<?xml version="1.0" encoding="UTF-8" standalone="no"?><!DOCTYPE svg PUBLIC "-//W3C//DTD SVG 1.1//EN" "http://www.w3.org/Graphics/SVG/1.1/DTD/svg11.dtd"><svg width="100%" height="100%" viewBox="0 0 1024 1024" version="1.1" xmlns="http://www.w3.org/2000/svg" xmlns:xlink="http://www.w3.org/1999/xlink" xml:space="preserve" xmlns:serif="http://www.serif.com/" style="fill-rule:evenodd;clip-rule:evenodd;stroke-linejoin:round;stroke-miterlimit:1.41421;"><path d="M300.671,402.113l9.484,-106.03l-109.434,0l8.511,-70.524l69.309,0l-4.621,39.639l36.964,0l5.107,-52.285l-141.778,0l-11.916,95.816l110.65,0l-8.268,80.738l-73.443,0l4.378,-44.747l-37.451,0l-5.836,57.393l148.344,0Z" style="fill:#fff;fill-rule:nonzero;"/><path d="M450.717,402.113l6.566,-47.422l-34.776,0l-4.864,35.262l-42.071,0l13.619,-105.3l40.612,0l-3.891,29.912l34.776,0l5.593,-42.071l-110.164,0l-16.78,129.619l111.38,0Z" style="fill:#fff;fill-rule:nonzero;"/><path d="M520.025,402.113l15.321,-117.46l43.287,0l4.134,-12.159l-80.494,0l-17.024,129.619l34.776,0Z" style="fill:#fff;fill-rule:nonzero;"/><path d="M699.011,402.113l15.564,-129.619l-110.164,0l-16.78,129.619l111.38,0Zm-33.317,-12.16l-41.828,0l13.618,-105.3l40.856,0l-12.646,105.3Z" style="fill:#fff;fill-rule:nonzero;"/><path d="M770.508,402.113l26.993,-206.466l-35.018,0l-26.994,206.466l35.019,0Z" style="fill:#fff;fill-rule:nonzero;"/><path d="M844.68,402.113l26.993,-206.466l-35.018,0l-26.994,206.466l35.019,0Z" style="fill:#fff;fill-rule:nonzero;"/><rect x="331.348" y="445.551" width="361.303" height="475.154" style="fill:none;"/><clipPath id="_clip1"><rect x="331.348" y="445.551" width="361.303" height="475.154"/></clipPath><g clip-path="url(#_clip1)"><path d="M324.737,496l-18.454,31.962l205.715,118.77l18.454,-31.962l-205.715,-118.77Z" style="fill:#fff;"/><path d="M324.737,626.585l-18.454,31.962l205.715,118.77l18.454,-31.963l-205.715,-118.769Z" style="fill:#fff;"/><path d="M324.737,757.169l-18.454,31.963l205.715,118.769l18.454,-31.962l-205.715,-118.77Z" style="fill:#fff;"/><path d="M717.717,527.962l-18.454,-31.962l-205.715,118.77l18.454,31.962l205.715,-118.77Z" style="fill:#fff;"/><path d="M717.717,658.547l-18.454,-31.962l-205.715,118.769l18.454,31.963l205.715,-118.77Z" style="fill:#fff;"/><path d="M717.717,789.132l-18.454,-31.963l-205.715,118.77l18.454,31.962l205.715,-118.769Z" style="fill:#fff;"/></g></svg>