<?xml version="1.0" standalone="no"?>
<!DOCTYPE svg PUBLIC "-//W3C//DTD SVG 1.1//EN" "http://www.w3.org/Graphics/SVG/1.1/DTD/svg11.dtd" >
<svg xmlns="http://www.w3.org/2000/svg">
<metadata></metadata>
<defs>
<font id="brother_1816_webmedium" horiz-adv-x="615" >
<font-face units-per-em="1000" ascent="800" descent="-200" />
<missing-glyph horiz-adv-x="260" />
<glyph horiz-adv-x="0" />
<glyph horiz-adv-x="0" />
<glyph unicode=" "  horiz-adv-x="260" />
<glyph unicode="&#x09;" horiz-adv-x="260" />
<glyph unicode="&#xa0;" horiz-adv-x="260" />
<glyph unicode="!" horiz-adv-x="320" d="M109 203l-10 517h122l-9 -517h-103zM108 5q-19 19 -19 50t19.5 50t51.5 19t51.5 -19t19.5 -50t-19.5 -49.5t-51.5 -18.5t-52 18z" />
<glyph unicode="&#x22;" horiz-adv-x="399" d="M52 433l-10 293h113l-10 -293h-93zM248 433l-10 293h113l-10 -293h-93z" />
<glyph unicode="#" horiz-adv-x="753" d="M75 440l12 92h139l26 188h99l-26 -188h151l26 188h98l-25 -188h138l-13 -92h-138l-22 -161h138l-13 -92h-138l-25 -187h-99l25 187h-150l-25 -187h-99l26 187h-140l12 92h140l22 161h-139zM313 440l-22 -161h150l22 161h-150z" />
<glyph unicode="$" horiz-adv-x="597" d="M73 28v123q91 -47 186 -53l12 212q-2 0 -3 1q-105 37 -153.5 86.5t-48.5 133.5q0 88 63 142t165 59l7 120h50l-7 -120q82 -5 157 -35v-118q-74 40 -163 43l-12 -211l10 -3q107 -40 156 -88.5t49 -130.5q0 -91 -63 -143.5t-175 -57.5l-6 -120h-50l6 120q-100 6 -180 40z M419 184q0 35 -22.5 59.5t-76.5 47.5l-11 -192q51 5 80.5 27t29.5 58zM189 533q0 -31 20.5 -55t68.5 -47l10 188q-46 -7 -72.5 -29.5t-26.5 -56.5z" />
<glyph unicode="%" horiz-adv-x="840" d="M50 557q0 74 49.5 125t122.5 51t123 -51t50 -125q0 -73 -50 -123.5t-123 -50.5t-122.5 50.5t-49.5 123.5zM222 456q40 0 66.5 28.5t26.5 72.5q0 45 -27 74t-66 29t-65.5 -29.5t-26.5 -73.5t26.5 -72.5t65.5 -28.5zM445 161q0 74 49.5 125t122.5 51t123 -51t50 -125 q0 -72 -50 -123t-123 -51q-72 0 -122 51t-50 123zM526 161q0 -44 26 -72.5t65 -28.5t66 28.5t27 72.5q0 45 -26.5 74t-66.5 29q-39 0 -65 -29t-26 -74zM122 0l513 720h79l-513 -720h-79z" />
<glyph unicode="&#x26;" horiz-adv-x="672" d="M506 365h106q10 -140 -54 -240l120 -125h-137l-53 55q-80 -68 -200 -68q-121 0 -190 56t-69 141q0 116 146 194q-41 45 -61 84.5t-20 92.5q0 72 56 125t139 53q79 0 136 -51t57 -120q0 -129 -151 -203l147 -151q35 69 28 157zM414 131l-177 182q-93 -49 -93 -119 q0 -48 40 -78.5t105 -30.5q73 0 125 46zM200 551q0 -33 15.5 -60.5t50.5 -64.5q111 57 111 125q0 35 -26 59.5t-62 24.5q-37 0 -63 -24.5t-26 -59.5z" />
<glyph unicode="'" horiz-adv-x="197" d="M52 433l-10 293h113l-10 -293h-93z" />
<glyph unicode="(" horiz-adv-x="324" d="M177 -67q-110 182 -110 427t110 427h124q-113 -190 -113 -427t113 -427h-124z" />
<glyph unicode=")" horiz-adv-x="324" d="M146 787q110 -182 110 -427t-110 -427h-124q113 190 113 427t-113 427h124z" />
<glyph unicode="*" horiz-adv-x="443" d="M377 668l30 -91l-122 -32l78 -98l-72 -52l-70 99l-69 -99l-72 52l77 98l-121 32l30 91l115 -46l-7 122h95l-6 -122z" />
<glyph unicode="+" horiz-adv-x="650" d="M88 312v96h187v190h99v-190h189v-96h-189v-190h-99v190h-187z" />
<glyph unicode="," horiz-adv-x="219" d="M176 58l-83 -208h-91l60 208h114z" />
<glyph unicode="-" horiz-adv-x="395" d="M42 234v97h311v-97h-311z" />
<glyph unicode="." horiz-adv-x="226" d="M61 5q-19 19 -19 50t19.5 50t51.5 19t51.5 -19t19.5 -50t-19.5 -49.5t-51.5 -18.5t-52 18z" />
<glyph unicode="/" horiz-adv-x="479" d="M-8 -67l366 854h129l-366 -854h-129z" />
<glyph unicode="0" horiz-adv-x="653" d="M326 733q128 0 205.5 -106t77.5 -267t-77.5 -267t-205.5 -106q-127 0 -205 106t-78 267t78 267t205 106zM326 103q73 0 115 70.5t42 186.5t-42 186.5t-115 70.5q-72 0 -114 -70.5t-42 -186.5t42 -186.5t114 -70.5z" />
<glyph unicode="1" horiz-adv-x="348" d="M33 720h217v-720h-125v613h-92v107z" />
<glyph unicode="2" horiz-adv-x="519" d="M39 571v118q63 44 162 44q114 0 182 -66.5t68 -172.5q0 -47 -14.5 -92t-49 -96t-60 -83t-79.5 -94q-13 -15 -19 -22h255v-107h-483q171 196 213 252q96 128 104 217q4 41 -8 74q-27 74 -124 74q-86 0 -147 -46z" />
<glyph unicode="3" horiz-adv-x="488" d="M174 622q-77 0 -149 -35v112q74 34 168 34q111 0 176 -54t65 -142q0 -59 -35 -103t-89 -64q59 -18 97.5 -65.5t38.5 -114.5q0 -92 -70.5 -147.5t-182.5 -55.5q-100 0 -180 39v112q80 -40 170 -40q60 0 96.5 29t36.5 76q0 56 -45 87t-127 31h-24v96h31q66 0 109.5 29 t43.5 76t-35.5 73.5t-94.5 26.5z" />
<glyph unicode="4" horiz-adv-x="582" d="M468 0h-110v164h-346l245 556h123l-197 -451h177v178h108v-178h95v-105h-95v-164z" />
<glyph unicode="5" horiz-adv-x="505" d="M41 32v111q63 -45 159 -45q65 0 107 35.5t42 96.5q0 60 -44 95t-112 35q-77 0 -138 -27l16 387h366v-107h-257l-6 -167q30 10 69 10q101 0 168 -66t67 -172t-73 -168.5t-190 -62.5q-105 0 -174 45z" />
<glyph unicode="6" horiz-adv-x="587" d="M316 471q103 0 170.5 -70.5t67.5 -168.5q0 -106 -73 -175.5t-183 -69.5q-109 0 -181 70.5t-72 180.5q0 125 91.5 264.5t195.5 217.5h160q-160 -118 -264 -278q36 29 88 29zM298 90q61 0 101 40t40 102q0 61 -40 101.5t-101 40.5q-62 0 -101.5 -40t-39.5 -100 q0 -63 39.5 -103.5t101.5 -40.5z" />
<glyph unicode="7" horiz-adv-x="498" d="M186 0h-132l267 613h-312v107h481z" />
<glyph unicode="8" horiz-adv-x="553" d="M177 366q-46 21 -86.5 68t-40.5 113q0 80 64.5 133.5t162.5 53.5t163 -53.5t65 -133.5q0 -65 -41 -112.5t-87 -68.5q53 -24 96.5 -72t43.5 -117q0 -82 -67.5 -136.5t-172.5 -54.5q-98 0 -164.5 49t-73.5 125q-3 32 7 68q13 50 52 85.5t79 52.5zM156 191q0 -42 35 -70 t86 -28t85.5 28t34.5 70q0 43 -35 78t-85 53q-50 -18 -85.5 -53t-35.5 -78zM170 535q0 -78 107 -122q107 44 107 122q0 40 -30.5 67t-76.5 27t-76.5 -27t-30.5 -67z" />
<glyph unicode="9" horiz-adv-x="564" d="M266 249q-104 0 -171.5 70.5t-67.5 168.5q0 106 73.5 176t183.5 70q108 0 180 -71.5t72 -180.5q0 -65 -27.5 -138.5t-71 -137.5t-92.5 -117.5t-96 -88.5h-160q164 120 264 278q-34 -29 -87 -29zM143 488q0 -61 39.5 -101.5t101.5 -40.5q61 0 101 40t40 100 q0 63 -39.5 103.5t-101.5 40.5t-101.5 -40t-39.5 -102z" />
<glyph unicode=":" horiz-adv-x="226" d="M61 394q-19 19 -19 50t19.5 50t51.5 19t51.5 -19t19.5 -50t-19.5 -49.5t-51.5 -18.5t-52 18zM61 5q-19 19 -19 50t19.5 50t51.5 19t51.5 -19t19.5 -50t-19.5 -49.5t-51.5 -18.5t-52 18z" />
<glyph unicode=";" horiz-adv-x="222" d="M176 58l-83 -208h-91l60 208h114zM57 394q-19 19 -19 50t19.5 50t51.5 19t51.5 -19t19.5 -50t-19.5 -49.5t-51.5 -18.5t-52 18z" />
<glyph unicode="&#x3c;" horiz-adv-x="595" d="M55 360l450 276v-127l-251 -149l251 -149v-127z" />
<glyph unicode="=" horiz-adv-x="620" d="M88 411v98h445v-98h-445zM88 211v98h445v-98h-445z" />
<glyph unicode="&#x3e;" horiz-adv-x="595" d="M540 360l-450 -276v127l252 149l-252 148v128z" />
<glyph unicode="?" horiz-adv-x="463" d="M116 202v48q0 43 17 78t41 58t48 44t41 47.5t17 56.5q0 40 -26.5 65.5t-71.5 25.5q-74 0 -150 -47v112q73 43 159 43q91 0 150.5 -50.5t59.5 -134.5q0 -48 -18.5 -87t-44.5 -64t-52 -48t-44.5 -52t-18.5 -62v-33h-107zM119 5q-19 19 -19 50t19.5 50t51.5 19t51 -19 t19 -50t-19 -49.5t-51 -18.5t-52 18z" />
<glyph unicode="@" horiz-adv-x="886" d="M801 9v-103q-112 -61 -275 -61q-194 0 -320 113.5t-126 291.5q0 175 120.5 288.5t314.5 113.5q125 0 194.5 -56t69.5 -152v-298q-136 -66 -248 -66q-82 0 -140 46.5t-58 126.5q0 100 92.5 147.5t233.5 25.5v19q-1 49 -40 76t-109 27q-139 0 -226 -81t-87 -208 q0 -136 92.5 -224t236.5 -88q151 0 275 62zM545 171q54 0 111 27v155q-96 17 -151.5 -9.5t-55.5 -80.5q0 -41 25.5 -66.5t70.5 -25.5z" />
<glyph unicode="A" horiz-adv-x="681" d="M-3 0l341 731h4l341 -731h-132l-64 143h-294l-64 -143h-132zM234 237h212q-65 147 -105 255q-83 -201 -107 -255z" />
<glyph unicode="B" horiz-adv-x="637" d="M475 378q51 -18 85 -65t34 -106q0 -96 -70.5 -151.5t-186.5 -55.5h-251v720h228q113 0 182.5 -52.5t69.5 -147.5q0 -48 -25 -86t-66 -56zM207 414h109q32 0 61 3q61 20 61 94q0 50 -31.5 79t-84.5 29h-115v-205zM207 324v-223h135q55 0 89 30.5t34 81.5q0 52 -30.5 81.5 t-78.5 29.5h-149z" />
<glyph unicode="C" horiz-adv-x="664" d="M628 682v-117q-102 52 -206 52q-115 0 -187 -73.5t-72 -183.5t71.5 -183.5t184.5 -73.5q114 0 214 51v-117q-31 -18 -89.5 -34t-129.5 -16q-163 0 -270.5 106.5t-107.5 266.5t108.5 266.5t272.5 106.5q121 0 211 -51z" />
<glyph unicode="D" horiz-adv-x="734" d="M308 0h-222v720h219q178 0 285.5 -99.5t107.5 -260.5t-106.5 -260.5t-283.5 -99.5zM304 614h-92v-508h95q120 0 192 70.5t72 183.5q0 112 -72.5 183t-194.5 71z" />
<glyph unicode="E" horiz-adv-x="590" d="M554 0h-468v720h453v-106h-327v-198h277v-103h-277v-207h342v-106z" />
<glyph unicode="F" horiz-adv-x="547" d="M516 614h-304v-204h256v-105h-256v-305h-126v720h430v-106z" />
<glyph unicode="G" horiz-adv-x="707" d="M660 42q-103 -55 -241 -55q-166 0 -274.5 106.5t-108.5 266.5t109 266.5t275 106.5q117 0 220 -50v-118q-106 52 -216 52q-118 0 -190 -73t-72 -184q0 -112 71.5 -185.5t185.5 -73.5q68 0 119 20v204h122v-283z" />
<glyph unicode="H" horiz-adv-x="750" d="M664 0h-126v312h-326v-312h-126v720h126v-303h326v303h126v-720z" />
<glyph unicode="I" horiz-adv-x="298" d="M212 0h-126v720h126v-720z" />
<glyph unicode="J" horiz-adv-x="390" d="M304 720v-525q0 -208 -194 -208q-64 0 -97 20v108q34 -19 80 -19q85 0 85 87v537h126z" />
<glyph unicode="K" horiz-adv-x="681" d="M212 720v-362l311 362h151l-260 -295l264 -425h-143l-206 341l-117 -129v-212h-126v720h126z" />
<glyph unicode="L" horiz-adv-x="524" d="M505 0h-419v720h126v-614h293v-106z" />
<glyph unicode="M" horiz-adv-x="847" d="M423 198l-188 217l-28 28v-443h-121v731h2l335 -372l335 372h2v-731h-120v443l-29 -28q-62 -73 -188 -217z" />
<glyph unicode="N" horiz-adv-x="755" d="M669 -11h-3l-421 431q-1 1 -14.5 13.5t-20.5 18.5v-452h-124v731h4l420 -430l35 -34v453h124v-731z" />
<glyph unicode="O" horiz-adv-x="818" d="M36 360q0 156 107 264.5t266 108.5q158 0 265.5 -107.5t107.5 -265.5t-106.5 -265.5t-266.5 -107.5q-159 0 -266 107.5t-107 265.5zM162 360q0 -110 70 -183.5t177 -73.5t176.5 73.5t69.5 183.5t-69.5 183.5t-176.5 73.5t-177 -74t-70 -183z" />
<glyph unicode="P" horiz-adv-x="602" d="M314 263h-102v-263h-126v720h228q121 0 191 -60t70 -169q0 -108 -70 -168t-191 -60zM315 614h-103v-245h108q59 0 93.5 32t34.5 90q0 59 -35.5 91t-97.5 32z" />
<glyph unicode="Q" horiz-adv-x="841" d="M47 360q0 156 107 264.5t266 108.5t266.5 -107.5t107.5 -265.5q0 -133 -78 -232t-202 -129q57 -51 134 -80.5t151 -29.5q66 0 110 11v-111q-41 -12 -121 -12q-116 0 -229 57.5t-184 155.5q-143 15 -235.5 119t-92.5 251zM174 360q0 -110 70 -183.5t176 -73.5 q107 0 176.5 73.5t69.5 183.5t-69.5 183.5t-176.5 73.5q-106 0 -176 -74t-70 -183z" />
<glyph unicode="R" horiz-adv-x="645" d="M86 720h243q124 0 195 -60t71 -169q0 -76 -40 -128.5t-102 -74.5l157 -288h-135l-138 267h-127v-267h-124v720zM330 614h-120v-245h126q62 0 97.5 32t35.5 90q0 59 -37 91t-102 32z" />
<glyph unicode="S" horiz-adv-x="543" d="M255 -13q-113 0 -211 41v123q97 -49 192 -52q44 0 72 8q82 19 82 77q0 42 -33.5 69.5t-117.5 57.5q-105 37 -153.5 86.5t-48.5 133.5q0 93 70 147.5t181 54.5q98 0 184 -36v-118q-77 43 -175 43q-62 0 -99.5 -24t-37.5 -65q0 -39 33 -67t115 -58q105 -39 154.5 -88 t49.5 -131q0 -95 -68 -148.5t-189 -53.5z" />
<glyph unicode="T" horiz-adv-x="566" d="M556 614h-210v-614h-126v614h-210v106h546v-106z" />
<glyph unicode="U" horiz-adv-x="727" d="M653 720v-463q0 -125 -77 -197.5t-213 -72.5q-135 0 -212 72.5t-77 197.5v463h125v-452q0 -78 43.5 -121.5t120.5 -43.5q78 0 121 43.5t43 121.5v452h126z" />
<glyph unicode="V" horiz-adv-x="673" d="M682 720l-343 -731h-4l-344 731h136l97 -216q89 -203 112 -262q30 73 114 262l96 216h136z" />
<glyph unicode="W" horiz-adv-x="1006" d="M5 720h138l106 -272q37 -96 65 -181q25 65 64 157l44 105l78 184h4q152 -353 186 -446q7 20 171 453h139l-307 -731h-4l-148 355q-36 89 -39 97l-38 -97l-149 -355h-4z" />
<glyph unicode="X" horiz-adv-x="699" d="M524 720h142l-248 -356l254 -364h-143l-179 266l-180 -266h-142l254 364l-248 356h142l174 -259z" />
<glyph unicode="Y" horiz-adv-x="618" d="M-14 720h141l182 -318l183 318h141l-261 -438v-282h-126v282z" />
<glyph unicode="Z" horiz-adv-x="623" d="M30 0l368 614h-340v106h531l-367 -614h362v-106h-554z" />
<glyph unicode="[" horiz-adv-x="359" d="M102 -67v854h199v-101h-75v-653h75v-100h-199z" />
<glyph unicode="\" horiz-adv-x="479" d="M121 787l366 -854h-129l-366 854h129z" />
<glyph unicode="]" horiz-adv-x="359" d="M264 787v-854h-199v100h76v653h-76v101h199z" />
<glyph unicode="^" horiz-adv-x="589" d="M539 327h-127l-117 207l-118 -208h-127l245 406z" />
<glyph unicode="_" d="M42 0h531v-98h-531v98z" />
<glyph unicode="`" horiz-adv-x="330" d="M198 733l89 -171h-107l-138 171h156z" />
<glyph unicode="a" horiz-adv-x="535" d="M71 367v110q67 36 180 36q110 0 165.5 -50.5t55.5 -145.5v-317h-111l-2 52l2 38h-2q-12 -30 -55 -66.5t-109 -36.5q-69 0 -114 39.5t-45 109.5q0 92 85 134t230 22v19q0 98 -119 98q-94 0 -161 -42zM222 82q53 0 89.5 42t36.5 96q-97 16 -146 -6t-49 -68q0 -29 19 -46.5 t50 -17.5z" />
<glyph unicode="b" horiz-adv-x="636" d="M343 409q-55 0 -96.5 -41.5t-41.5 -117.5t41.5 -117.5t96.5 -41.5q61 0 99 44.5t38 114.5q0 71 -38 115t-99 44zM80 0v720h122v-248l-3 -41h2q22 35 66 58.5t99 23.5q98 0 164 -72.5t66 -190.5q0 -117 -66.5 -190t-165.5 -73q-56 0 -103.5 29.5t-66.5 70.5h-2v-5 q1 -4 2 -11.5t0 -18.5l-2 -52h-112z" />
<glyph unicode="c" horiz-adv-x="497" d="M317 94q75 0 142 43v-111q-75 -39 -155 -39q-117 0 -190.5 74.5t-73.5 188.5t73.5 188.5t190.5 74.5q79 0 152 -38v-112q-63 43 -139 43q-68 0 -110.5 -43t-42.5 -113t42.5 -113t110.5 -43z" />
<glyph unicode="d" horiz-adv-x="637" d="M556 720v-720h-112l-2 52l2 35h-2q-19 -41 -66 -70.5t-103 -29.5q-100 0 -166.5 73t-66.5 190q0 118 66 190.5t164 72.5q55 0 99 -23.5t66 -58.5h2q-3 14 -3 41v248h122zM293 409q-61 0 -99 -44t-38 -115q0 -70 38 -114.5t99 -44.5q55 0 96.5 41.5t41.5 117.5 t-41.5 117.5t-96.5 41.5z" />
<glyph unicode="e" horiz-adv-x="557" d="M290 513q108 0 168.5 -68t60.5 -166q0 -13 -1.5 -32t-1.5 -22h-349q2 -63 44 -98.5t111 -35.5q50 0 100 12.5t77 29.5v-107q-72 -39 -186 -39q-123 0 -198 73t-75 190q0 113 72 188t178 75zM401 296q1 50 -29 84.5t-84 34.5q-52 0 -84 -34.5t-37 -84.5h234z" />
<glyph unicode="f" horiz-adv-x="350" d="M26 500h73v50q0 84 51.5 133.5t142.5 49.5q40 0 64 -6v-104q-24 6 -51 6q-43 0 -68.5 -23.5t-25.5 -67.5v-38h125v-97h-120v-403h-122v403h-69v97z" />
<glyph unicode="g" horiz-adv-x="535" d="M204 121q0 -16 25 -24t86 -15q101 -12 150 -45.5t49 -99.5q0 -75 -69 -117.5t-182 -42.5q-106 0 -170.5 34.5t-64.5 98.5q0 43 37.5 75.5t94.5 44.5q-34 5 -54 22t-20 44q0 23 19.5 43.5t54.5 31.5q-54 21 -86 63.5t-32 98.5q0 80 60.5 130t149.5 50q47 0 83 -13h184v-88 h-64q-12 0 -28 4q33 -36 33 -83q0 -72 -50 -119.5t-128 -55.5q-33 -3 -55.5 -13.5t-22.5 -23.5zM252 237q45 0 72 26t27 67t-27.5 68t-71.5 27q-43 0 -70.5 -27t-27.5 -68t27.5 -67t70.5 -26zM265 -143q58 0 93 19.5t35 51.5q0 71 -134 71q-49 0 -81.5 -21t-32.5 -52 q0 -33 33 -51t87 -18z" />
<glyph unicode="h" d="M80 720h120v-263q0 -13 -1 -31t-1 -21q24 41 69 74.5t108 33.5q173 0 173 -200v-313h-122v292q0 110 -82 110q-62 0 -102 -44t-40 -110v-248h-122v720z" />
<glyph unicode="i" horiz-adv-x="283" d="M80 500h122v-500h-122v500zM89 594q-19 19 -19 50t19.5 50t51.5 19t51.5 -19t19.5 -50t-19.5 -49.5t-51.5 -18.5t-52 18z" />
<glyph unicode="j" horiz-adv-x="283" d="M202 500v-554q0 -86 -46 -132.5t-131 -46.5q-44 0 -62 9v106q12 -5 36 -5q38 0 59.5 23t21.5 66v534h122zM89 594q-19 19 -19 50t19.5 50t51.5 19t51.5 -19t19.5 -50t-19.5 -49.5t-51.5 -18.5t-52 18z" />
<glyph unicode="k" horiz-adv-x="573" d="M540 500l-174 -210l187 -290h-139l-141 226l-73 -81v-145h-120v720h122v-448l196 228h142z" />
<glyph unicode="l" horiz-adv-x="322" d="M79 136v584h122v-558q0 -69 54 -69q26 0 47 8v-102q-30 -12 -81 -12q-64 0 -103 36t-39 113z" />
<glyph unicode="m" horiz-adv-x="929" d="M80 500h113l3 -64q0 -11 -2 -24l-2 -12h2q18 46 62.5 77t99.5 34q28 2 50 -4q87 -18 111 -101q28 47 73.5 77t97.5 30q174 0 174 -200v-313h-122v294q0 108 -79 108q-67 0 -98 -51t-31 -126v-225h-122v294q0 50 -16 79t-61 29q-66 0 -98.5 -51.5t-32.5 -125.5v-225h-122 v500z" />
<glyph unicode="n" d="M80 500h113l3 -64q0 -11 -2 -24l-2 -12h2q18 41 67 77t114 36q173 0 173 -200v-313h-122v292q0 110 -82 110q-62 0 -102 -44t-40 -110v-248h-122v500z" />
<glyph unicode="o" horiz-adv-x="604" d="M302 513q114 0 188 -74.5t74 -188.5t-74 -188.5t-188 -74.5q-113 0 -187.5 75t-74.5 188t74.5 188t187.5 75zM197 135q42 -44 105 -44t104.5 44.5t41.5 114.5t-41.5 114.5t-104.5 44.5t-104.5 -44.5t-41.5 -114.5t41 -115z" />
<glyph unicode="p" horiz-adv-x="637" d="M81 -220v720h112l2 -47q0 -9 -0.5 -18t-0.5 -13l-1 -4h2q19 39 66 67t103 28q100 0 166.5 -73t66.5 -190q0 -118 -66 -190.5t-164 -72.5q-55 0 -99.5 25t-65.5 62h-2q3 -14 3 -41v-253h-122zM344 91q61 0 99 44t38 115q0 70 -38 114.5t-99 44.5q-55 0 -96.5 -41.5 t-41.5 -117.5t41.5 -117.5t96.5 -41.5z" />
<glyph unicode="q" horiz-adv-x="637" d="M293 91q55 0 96.5 41.5t41.5 117.5t-41.5 117.5t-96.5 41.5q-61 0 -99 -44.5t-38 -114.5q0 -71 38 -115t99 -44zM556 500v-720h-122v253l3 41h-2q-22 -37 -66 -62t-99 -25q-98 0 -164 72.5t-66 190.5q0 117 66.5 190t166.5 73q56 0 103 -28t66 -67h2v4q-1 4 -1.5 13 t-0.5 18l2 47h112z" />
<glyph unicode="r" horiz-adv-x="392" d="M75 0v500h112q2 -40 2 -59v-35q25 49 64 78t88 29q22 0 31 -3v-118q-1 0 -5 1t-11 2t-14 1q-63 0 -104 -54t-41 -127v-215h-122z" />
<glyph unicode="s" horiz-adv-x="446" d="M297 137q0 24 -22.5 38t-76.5 31q-77 24 -116 59t-39 101t51 106.5t134 40.5q82 0 151 -30v-107q-62 33 -129 36q-29 0 -49 -4q-46 -13 -46 -47q0 -23 21.5 -38t69.5 -29q87 -27 125 -62t38 -98q0 -70 -52.5 -108.5t-141.5 -38.5q-93 0 -167 33v109q84 -44 164 -44 q37 0 61 12.5t24 39.5z" />
<glyph unicode="t" horiz-adv-x="379" d="M11 500h78v150h118v-150h142v-97h-142v-229q0 -83 69 -83q42 0 90 21v-102q-44 -23 -120 -23q-64 0 -109 35t-49 110q0 8 -0.5 24.5t-0.5 25.5v221h-76v97z" />
<glyph unicode="u" horiz-adv-x="612" d="M531 0h-112l-3 63q0 21 4 37h-2q-18 -41 -66.5 -77t-111.5 -36q-172 0 -172 200v313h122v-292q0 -51 17 -80.5t64 -29.5q60 0 99.5 44t39.5 110v248h121v-500z" />
<glyph unicode="v" horiz-adv-x="502" d="M382 500h128l-223 -509h-72l-223 509h128q113 -282 131 -333q5 13 26.5 72t33.5 89z" />
<glyph unicode="w" horiz-adv-x="778" d="M424 495l60 -171q10 -30 53 -160q10 24 30 82t28 80l63 174h127l-209 -509h-75l-112 307l-112 -307h-75l-209 509h128q15 -44 57 -161.5t62 -174.5q42 119 114 331h70z" />
<glyph unicode="x" horiz-adv-x="530" d="M509 500l-171 -241l180 -259h-135l-118 171l-116 -171h-136l176 249l-170 251h137l106 -168l107 168h140z" />
<glyph unicode="y" horiz-adv-x="534" d="M6 -223v105q27 -8 57 -8q50 0 82 33t60 96l-207 497h133l64 -177q47 -127 72 -202q10 24 37.5 103.5t34.5 98.5l63 177h133l-195 -487q-44 -111 -95 -169t-122 -72q-31 -4 -61 -3q-36 0 -56 8z" />
<glyph unicode="z" horiz-adv-x="478" d="M450 98v-98h-429l247 402h-227v98h409l-247 -402h247z" />
<glyph unicode="{" horiz-adv-x="359" d="M119 118v97q0 49 -22 74t-53 28v87q31 3 53 28t22 75v94q0 95 46 140.5t127 45.5h41v-101h-23q-32 0 -50.5 -21t-18.5 -61v-113q0 -53 -22 -86.5t-53 -42.5v-2q32 -10 53.5 -42.5t21.5 -85.5v-92q0 -54 15.5 -80t53.5 -26h23v-101h-41q-79 0 -126 45.5t-47 139.5z" />
<glyph unicode="|" horiz-adv-x="323" d="M221 -67h-119v854h119v-854z" />
<glyph unicode="}" horiz-adv-x="359" d="M240 602v-97q0 -49 22.5 -74t53.5 -28v-87q-32 -3 -54 -28t-22 -75v-94q0 -95 -46 -140.5t-127 -45.5h-41v100h23q31 0 50 21.5t19 61.5v113q0 53 22.5 86.5t53.5 42.5v2q-32 10 -54 43t-22 85v92q0 55 -15.5 80.5t-53.5 25.5h-23v101h41q79 0 126 -45.5t47 -139.5z" />
<glyph unicode="~" horiz-adv-x="551" d="M186 429q35 0 92 -20t91 -20q69 0 118 43v-92q-17 -19 -50.5 -31.5t-71.5 -12.5q-35 0 -92.5 20t-90.5 20q-66 0 -118 -44v93q17 19 51 31.5t71 12.5z" />
<glyph unicode="&#xa1;" horiz-adv-x="320" d="M212 297l9 -517h-122l10 517h103zM108 394q-19 19 -19 50t19.5 50t51.5 19t51.5 -19t19.5 -50t-19.5 -49.5t-51.5 -18.5t-52 18z" />
<glyph unicode="&#xa2;" horiz-adv-x="554" d="M310 751h46v-130q67 -4 128 -36v-113q-62 39 -128 43v-311q65 2 131 42v-111q-65 -34 -131 -38v-130h-46v130q-108 7 -175 80t-67 182t67 182t175 80v130zM310 206v305q-54 -11 -86.5 -51.5t-32.5 -100.5t32.5 -101t86.5 -52z" />
<glyph unicode="&#xa3;" d="M144 509q0 108 62.5 166t172.5 58q89 0 145 -26v-110q-58 29 -131 29q-61 0 -94.5 -33.5t-33.5 -94.5v-92h201v-89h-201v-99q0 -72 -33 -114h306v-104h-475q81 102 81 222v95h-82v89h82v103z" />
<glyph unicode="&#xa4;" horiz-adv-x="778" d="M388 599q67 0 122 -36l112 112l75 -76l-110 -111q38 -55 38 -122t-38 -122l110 -111l-75 -76l-113 111q-56 -35 -121 -35q-64 0 -121 35l-111 -111l-76 76l110 111q-37 56 -37 122t38 123l-111 110l76 76l111 -112q53 36 121 36zM388 238q54 0 91.5 37t37.5 91 q0 53 -37 90.5t-90 37.5q-54 0 -91.5 -37t-37.5 -91t37.5 -91t89.5 -37z" />
<glyph unicode="&#xa5;" horiz-adv-x="709" d="M40 720h141l172 -318l173 318h141l-138 -241h108v-81h-155l-43 -76h167v-81h-190v-241h-126v241h-190v81h167l-43 76h-154v81h108z" />
<glyph unicode="&#xa6;" horiz-adv-x="323" d="M221 446h-119v341h119v-341zM221 -67h-119v341h119v-341z" />
<glyph unicode="&#xa7;" horiz-adv-x="602" d="M540 703q0 -17 0.5 -51.5t0.5 -50.5q-68 35 -139 47q-45 -16 -45 -73q0 -27 15.5 -64t54.5 -115l66 -129q48 -94 48 -153q0 -93 -69.5 -147t-184.5 -54q-125 0 -225 49q0 17 -0.5 51t-0.5 51q66 -35 139 -47q45 16 45 73q0 41 -70 179l-66 129q-48 94 -48 150 q0 96 69.5 150t185.5 54q124 0 224 -49zM433 118q0 48 -39 121l-101 193q-46 89 -46 135q0 55 36 85q-55 -7 -84.5 -34t-29.5 -71q0 -48 39 -121l89 -166q59 -112 59 -164q0 -53 -38 -83q56 7 85.5 34t29.5 71z" />
<glyph unicode="&#xa8;" horiz-adv-x="433" d="M61 594q-19 19 -19 50t19.5 50t51.5 19t51.5 -19t19.5 -50t-19.5 -49.5t-51.5 -18.5t-52 18zM250 644q0 32 19 50.5t51 18.5t51.5 -19t19.5 -50t-19.5 -49.5t-51.5 -18.5t-51 18.5t-19 49.5z" />
<glyph unicode="&#xa9;" horiz-adv-x="828" d="M412 732q153 0 259.5 -108t106.5 -264t-106.5 -264t-259.5 -108q-151 0 -256.5 108t-105.5 264t105.5 264t256.5 108zM125 360q0 -126 83 -212t204 -86q122 0 206.5 86t84.5 212q0 125 -84.5 211.5t-206.5 86.5q-121 0 -204 -86.5t-83 -211.5zM414 147q-88 0 -146.5 60.5 t-58.5 152.5t58.5 152.5t146.5 60.5q66 0 128 -35v-88q-57 38 -118 38q-54 0 -88.5 -36.5t-34.5 -91.5t34.5 -91.5t87.5 -36.5q63 0 121 39v-89q-75 -35 -130 -35z" />
<glyph unicode="&#xaa;" horiz-adv-x="388" d="M45 615v89q56 29 141 29t128.5 -39.5t43.5 -113.5v-244h-92l-1 30q0 19 4 39v1q-8 -16 -21 -32t-43 -33t-65 -17q-52 0 -87.5 30t-35.5 82q0 62 51 97t133 35q33 0 58 -5q1 48 -19.5 67t-68.5 19q-71 0 -126 -34zM258 507q-23 4 -47 4q-47 0 -73.5 -17t-26.5 -46 q0 -21 15 -33.5t38 -12.5q39 0 65.5 30.5t28.5 74.5z" />
<glyph unicode="&#xab;" horiz-adv-x="610" d="M343 500l-164 -250l164 -250h-133l-158 250l158 250h133zM568 500l-163 -250l163 -250h-132l-158 250l158 250h132z" />
<glyph unicode="&#xac;" horiz-adv-x="652" d="M88 312v96h476v-250h-99v154h-377z" />
<glyph unicode="&#xad;" horiz-adv-x="390" d="M42 234v97h311v-97h-311z" />
<glyph unicode="&#xae;" horiz-adv-x="828" d="M412 732q153 0 259.5 -108t106.5 -264t-106.5 -264t-259.5 -108q-151 0 -256.5 108t-105.5 264t105.5 264t256.5 108zM125 360q0 -126 83 -212t204 -86q122 0 206.5 86t84.5 212q0 125 -84.5 211.5t-206.5 86.5q-121 0 -204 -86.5t-83 -211.5zM352 311v-150h-77v400h140 q63 0 103 -36t40 -93q0 -39 -21.5 -67.5t-57.5 -41.5l84 -162h-82l-72 150h-57zM404 492h-52v-119h52q74 0 74 59q0 60 -74 60z" />
<glyph unicode="&#xaf;" horiz-adv-x="400" d="M42 599v91h315v-91h-315z" />
<glyph unicode="&#xb0;" horiz-adv-x="410" d="M86 686q48 48 119 48t119.5 -47.5t48.5 -116.5t-48.5 -116.5t-119.5 -47.5t-119 47.5t-48 116.5t48 116zM205 482q36 0 60.5 25t24.5 63t-24.5 63t-60.5 25q-35 0 -60 -25t-25 -63t25 -63t60 -25z" />
<glyph unicode="&#xb1;" horiz-adv-x="595" d="M83 412v98h165v174h99v-174h166v-98h-166v-174h-99v174h-165zM96 41v96h404v-96h-404z" />
<glyph unicode="&#xb2;" horiz-adv-x="321" d="M23 625v80q44 29 107 29q67 0 105.5 -36t38.5 -96q0 -73 -114 -187h133v-78h-293q66 71 98 107.5t59.5 78.5t27.5 67q0 29 -18.5 46.5t-49.5 17.5q-48 0 -94 -29z" />
<glyph unicode="&#xb3;" horiz-adv-x="320" d="M194 615q0 42 -69 42q-43 0 -94 -22v75q50 23 105 23q66 0 105.5 -30.5t39.5 -79.5q0 -58 -72 -88q78 -25 78 -95q0 -52 -42 -83.5t-109 -31.5q-63 0 -111 23v75q56 -22 106 -22q32 0 50 13t18 34q0 25 -24 40t-67 15h-25v63h29q35 0 58.5 14t23.5 35z" />
<glyph unicode="&#xb4;" horiz-adv-x="330" d="M42 562l89 171h156l-136 -171h-109z" />
<glyph unicode="&#xb5;" d="M244 -13q-38 0 -66 13q5 -40 5 -80v-120h-113v700h122v-292q0 -82 44 -101q20 -9 47 -6q56 2 92.5 45t36.5 106v248h122v-500h-113l-3 63q0 9 1 17t2 13.5t1 6.5h-2q-18 -41 -65.5 -76.5t-110.5 -36.5z" />
<glyph unicode="&#xb6;" horiz-adv-x="596" d="M340 232h-43q-119 0 -192 67.5t-73 176.5q0 110 73 177t192 67h43v-488zM509 720v-762q0 -95 -47 -143t-131 -48q-46 0 -88 12v104q30 -10 68 -10q36 0 57 22t21 62v763h120z" />
<glyph unicode="&#xb7;" horiz-adv-x="226" d="M61 197q-19 19 -19 50t19.5 50t51.5 19t51.5 -19t19.5 -50t-19.5 -49.5t-51.5 -18.5t-52 18z" />
<glyph unicode="&#xb8;" horiz-adv-x="276" d="M96 10h64l-24 -62q38 -2 68 -25t30 -63q0 -46 -35.5 -69.5t-91.5 -23.5q-49 0 -65 8v73q18 -7 44 -7q21 0 37 9t16 26q0 22 -25.5 30t-58.5 4z" />
<glyph unicode="&#xb9;" horiz-adv-x="296" d="M30 720h169v-306h82v-77h-256v77h84v229h-79v77z" />
<glyph unicode="&#xba;" horiz-adv-x="453" d="M227 732q84 0 140 -58t56 -146q0 -86 -56 -144.5t-140 -58.5t-140.5 58t-56.5 145t56 145.5t141 58.5zM124 528q0 -51 29.5 -85.5t73.5 -34.5q43 0 73.5 34t30.5 86q0 51 -30 86t-74 35q-43 0 -73 -34.5t-30 -86.5z" />
<glyph unicode="&#xbb;" horiz-adv-x="610" d="M42 0l164 250l-164 250h133l158 -250l-158 -250h-133zM268 0l163 250l-163 250h132l158 -250l-158 -250h-132z" />
<glyph unicode="&#xbc;" horiz-adv-x="804" d="M694 0h-75v82h-191l143 314h83l-114 -246h81v95h73v-95h53v-68h-53v-82zM62 720h164v-311h81v-73h-250v73h84v238h-79v73zM113 0l513 720h79l-513 -720h-79z" />
<glyph unicode="&#xbd;" horiz-adv-x="846" d="M62 720h164v-311h81v-73h-250v73h84v238h-79v73zM520 293v77q44 27 103 27q68 0 107 -36.5t39 -97.5q0 -25 -9 -49.5t-31 -54t-33.5 -42.5t-40.5 -44h133v-73h-289q53 57 75 81t54.5 63.5t44.5 64.5t12 46q0 30 -19 48t-53 18q-49 0 -93 -28zM113 0l513 720h79l-513 -720 h-79z" />
<glyph unicode="&#xbe;" horiz-adv-x="819" d="M709 -1h-75v83h-191l143 314h83l-114 -246h82v94h72v-94h53v-69h-53v-82zM225 616q0 43 -71 43q-44 0 -91 -20v72q51 22 102 22q66 0 105 -30.5t39 -79.5q0 -29 -19.5 -52t-51.5 -36q77 -26 77 -96q0 -52 -41.5 -83.5t-108.5 -31.5q-62 0 -108 23v72q51 -21 103 -21 q32 0 50.5 13.5t18.5 35.5q0 25 -24 40.5t-69 15.5h-21v63h24q38 0 62 14t24 36zM117 0l513 720h79l-513 -720h-79z" />
<glyph unicode="&#xbf;" horiz-adv-x="463" d="M347 297v-48q0 -43 -17 -78t-41 -58t-48 -44t-41 -47.5t-17 -56.5q0 -40 27 -65t72 -25q75 0 149 47v-112q-73 -44 -158 -44q-92 0 -151.5 51t-59.5 134q0 48 18.5 87t44.5 64t52 48t44.5 52t18.5 62v33h107zM223 444q0 32 19 50.5t52 18.5q32 0 51 -19t19 -50t-19 -49.5 t-51 -18.5q-33 0 -52 18.5t-19 49.5z" />
<glyph unicode="&#xc0;" horiz-adv-x="681" d="M-3 0l341 731h4l341 -731h-132l-64 143h-294l-64 -143h-132zM234 237h212q-65 147 -105 255q-83 -201 -107 -255zM303 983l99 -201h-101l-151 201h153z" />
<glyph unicode="&#xc1;" horiz-adv-x="681" d="M-3 0l341 731h4l341 -731h-132l-64 143h-294l-64 -143h-132zM234 237h212q-65 147 -105 255q-83 -201 -107 -255zM278 782l99 201h153l-151 -201h-101z" />
<glyph unicode="&#xc2;" horiz-adv-x="681" d="M-3 0l341 731h4l341 -731h-132l-64 143h-294l-64 -143h-132zM234 237h212q-65 147 -105 255q-83 -201 -107 -255zM162 783l121 198h113l121 -198h-108l-69 121l-70 -121h-108z" />
<glyph unicode="&#xc3;" horiz-adv-x="681" d="M-3 0l341 731h4l341 -731h-132l-64 143h-294l-64 -143h-132zM234 237h212q-65 147 -105 255q-83 -201 -107 -255zM264 940q28 0 78 -18t74 -18q55 0 89 41v-97q-11 -15 -36 -27t-54 -12t-79.5 18t-74.5 18q-52 0 -89 -40v96q11 16 36.5 27.5t55.5 11.5z" />
<glyph unicode="&#xc4;" horiz-adv-x="681" d="M-3 0l341 731h4l341 -731h-132l-64 143h-294l-64 -143h-132zM234 237h212q-65 147 -105 255q-83 -201 -107 -255zM184 825q-19 19 -19 50t19.5 49.5t51.5 18.5t51.5 -18.5t19.5 -49.5t-19.5 -50t-51.5 -19t-52 19zM392 825q-19 19 -19 50t19.5 49.5t51.5 18.5t51.5 -18.5 t19.5 -49.5t-19.5 -50t-51.5 -19t-52 19z" />
<glyph unicode="&#xc5;" horiz-adv-x="681" d="M-3 0l341 731h4l341 -731h-132l-64 143h-294l-64 -143h-132zM234 237h212q-65 147 -105 255q-83 -201 -107 -255zM226 875q0 45 32.5 72.5t81.5 27.5q48 0 80.5 -27.5t32.5 -72.5q0 -46 -32.5 -73.5t-80.5 -27.5q-49 0 -81.5 27.5t-32.5 73.5zM299 875q0 -18 11.5 -29.5 t29.5 -11.5t29.5 11.5t11.5 29.5q0 17 -11.5 28t-29.5 11t-29.5 -11t-11.5 -28z" />
<glyph unicode="&#xc6;" horiz-adv-x="891" d="M540 0l-49 146h-287l-73 -146h-131l374 720h440v-106h-363l67 -198h281v-103h-245l70 -207h243v-106h-327zM375 503l-128 -265h214l-85 265h-1z" />
<glyph unicode="&#xc7;" horiz-adv-x="663" d="M628 682v-117q-102 52 -206 52q-115 0 -187 -73.5t-72 -183.5t71.5 -183.5t184.5 -73.5q114 0 214 51v-117q-84 -46 -204 -50l-15 -39q38 -2 68 -25t30 -63q0 -46 -35.5 -69.5t-91.5 -23.5q-49 0 -65 8v73q18 -7 44 -7q21 0 37 9t16 26q0 22 -25.5 30t-58.5 4l32 80 q-144 16 -236.5 119.5t-92.5 250.5q0 160 108.5 266.5t272.5 106.5q121 0 211 -51z" />
<glyph unicode="&#xc8;" horiz-adv-x="590" d="M554 0h-468v720h453v-106h-327v-198h277v-103h-277v-207h342v-106zM276 983l99 -201h-101l-151 201h153z" />
<glyph unicode="&#xc9;" horiz-adv-x="590" d="M554 0h-468v720h453v-106h-327v-198h277v-103h-277v-207h342v-106zM242 782l99 201h153l-151 -201h-101z" />
<glyph unicode="&#xca;" horiz-adv-x="590" d="M554 0h-468v720h453v-106h-327v-198h277v-103h-277v-207h342v-106zM134 783l121 198h113l121 -198h-108l-69 121l-70 -121h-108z" />
<glyph unicode="&#xcb;" horiz-adv-x="590" d="M554 0h-468v720h453v-106h-327v-198h277v-103h-277v-207h342v-106zM157 825q-19 19 -19 50t19.5 49.5t51.5 18.5t51.5 -18.5t19.5 -49.5t-19.5 -50t-51.5 -19t-52 19zM365 825q-19 19 -19 50t19.5 49.5t51.5 18.5t51.5 -18.5t19.5 -49.5t-19.5 -50t-51.5 -19t-52 19z" />
<glyph unicode="&#xcc;" horiz-adv-x="298" d="M212 0h-126v720h126v-720zM106 983l99 -201h-101l-151 201h153z" />
<glyph unicode="&#xcd;" horiz-adv-x="298" d="M212 0h-126v720h126v-720zM91 782l99 201h153l-151 -201h-101z" />
<glyph unicode="&#xce;" horiz-adv-x="298" d="M212 0h-126v720h126v-720zM-29 783l121 198h113l121 -198h-108l-69 121l-70 -121h-108z" />
<glyph unicode="&#xcf;" horiz-adv-x="298" d="M212 0h-126v720h126v-720zM-6 825q-20 19 -20 50t19.5 49.5t51.5 18.5t51.5 -18.5t19.5 -49.5t-19.5 -50t-51.5 -19t-51 19zM201 825q-19 19 -19 50t19.5 49.5t51.5 18.5t51.5 -18.5t19.5 -49.5t-19.5 -50t-51.5 -19t-52 19z" />
<glyph unicode="&#xd0;" horiz-adv-x="754" d="M26 319v82h80v319h219q178 0 285.5 -99.5t107.5 -260.5t-106.5 -260.5t-283.5 -99.5h-222v319h-80zM324 614h-92v-213h176v-82h-176v-213h95q120 0 192 70.5t72 183.5q0 112 -72.5 183t-194.5 71z" />
<glyph unicode="&#xd1;" horiz-adv-x="755" d="M669 -11h-3l-421 431q-1 1 -14.5 13.5t-20.5 18.5v-452h-124v731h4l420 -430l35 -34v453h124v-731zM303 940q28 0 78 -18t74 -18q55 0 89 41v-97q-11 -15 -36 -27t-54 -12t-79.5 18t-74.5 18q-52 0 -89 -40v96q11 16 36.5 27.5t55.5 11.5z" />
<glyph unicode="&#xd2;" horiz-adv-x="818" d="M36 360q0 156 107 264.5t266 108.5q158 0 265.5 -107.5t107.5 -265.5t-106.5 -265.5t-266.5 -107.5q-159 0 -266 107.5t-107 265.5zM162 360q0 -110 70 -183.5t177 -73.5t176.5 73.5t69.5 183.5t-69.5 183.5t-176.5 73.5t-177 -74t-70 -183zM377 983l99 -201h-101 l-151 201h153z" />
<glyph unicode="&#xd3;" horiz-adv-x="818" d="M36 360q0 156 107 264.5t266 108.5q158 0 265.5 -107.5t107.5 -265.5t-106.5 -265.5t-266.5 -107.5q-159 0 -266 107.5t-107 265.5zM162 360q0 -110 70 -183.5t177 -73.5t176.5 73.5t69.5 183.5t-69.5 183.5t-176.5 73.5t-177 -74t-70 -183zM333 782l99 201h153 l-151 -201h-101z" />
<glyph unicode="&#xd4;" horiz-adv-x="818" d="M36 360q0 156 107 264.5t266 108.5q158 0 265.5 -107.5t107.5 -265.5t-106.5 -265.5t-266.5 -107.5q-159 0 -266 107.5t-107 265.5zM162 360q0 -110 70 -183.5t177 -73.5t176.5 73.5t69.5 183.5t-69.5 183.5t-176.5 73.5t-177 -74t-70 -183zM231 783l121 198h113 l121 -198h-108l-69 121l-70 -121h-108z" />
<glyph unicode="&#xd5;" horiz-adv-x="818" d="M36 360q0 156 107 264.5t266 108.5q158 0 265.5 -107.5t107.5 -265.5t-106.5 -265.5t-266.5 -107.5q-159 0 -266 107.5t-107 265.5zM162 360q0 -110 70 -183.5t177 -73.5t176.5 73.5t69.5 183.5t-69.5 183.5t-176.5 73.5t-177 -74t-70 -183zM334 940q28 0 78 -18t74 -18 q55 0 89 41v-97q-11 -15 -36 -27t-54 -12t-79.5 18t-74.5 18q-52 0 -89 -40v96q11 16 36.5 27.5t55.5 11.5z" />
<glyph unicode="&#xd6;" horiz-adv-x="818" d="M36 360q0 156 107 264.5t266 108.5q158 0 265.5 -107.5t107.5 -265.5t-106.5 -265.5t-266.5 -107.5q-159 0 -266 107.5t-107 265.5zM162 360q0 -110 70 -183.5t177 -73.5t176.5 73.5t69.5 183.5t-69.5 183.5t-176.5 73.5t-177 -74t-70 -183zM253 825q-19 19 -19 50 t19.5 49.5t51.5 18.5t51.5 -18.5t19.5 -49.5t-19.5 -50t-51.5 -19t-52 19zM461 825q-19 19 -19 50t19.5 49.5t51.5 18.5t51.5 -18.5t19.5 -49.5t-19.5 -50t-51.5 -19t-52 19z" />
<glyph unicode="&#xd7;" horiz-adv-x="610" d="M453 578l69 -69l-148 -148l148 -148l-69 -69l-148 148l-148 -148l-69 69l148 148l-148 148l69 69l148 -148z" />
<glyph unicode="&#xd8;" horiz-adv-x="818" d="M36 360q0 156 107 264.5t266 108.5q94 0 175 -42l66 99h87l-92 -139q64 -51 100.5 -127t36.5 -164q0 -158 -106.5 -265.5t-266.5 -107.5q-96 0 -177 42l-65 -99h-86l91 138q-64 51 -100 127t-36 165zM162 360q0 -117 77 -191l280 423q-52 25 -110 25q-107 0 -177 -74 t-70 -183zM655 360q0 116 -77 190l-280 -422q52 -25 111 -25q107 0 176.5 73.5t69.5 183.5z" />
<glyph unicode="&#xd9;" horiz-adv-x="727" d="M653 720v-463q0 -125 -77 -197.5t-213 -72.5q-135 0 -212 72.5t-77 197.5v463h125v-452q0 -78 43.5 -121.5t120.5 -43.5q78 0 121 43.5t43 121.5v452h126zM323 983l99 -201h-101l-151 201h153z" />
<glyph unicode="&#xda;" horiz-adv-x="727" d="M653 720v-463q0 -125 -77 -197.5t-213 -72.5q-135 0 -212 72.5t-77 197.5v463h125v-452q0 -78 43.5 -121.5t120.5 -43.5q78 0 121 43.5t43 121.5v452h126zM299 782l99 201h153l-151 -201h-101z" />
<glyph unicode="&#xdb;" horiz-adv-x="727" d="M653 720v-463q0 -125 -77 -197.5t-213 -72.5q-135 0 -212 72.5t-77 197.5v463h125v-452q0 -78 43.5 -121.5t120.5 -43.5q78 0 121 43.5t43 121.5v452h126zM185 783l121 198h113l121 -198h-108l-69 121l-70 -121h-108z" />
<glyph unicode="&#xdc;" horiz-adv-x="727" d="M653 720v-463q0 -125 -77 -197.5t-213 -72.5q-135 0 -212 72.5t-77 197.5v463h125v-452q0 -78 43.5 -121.5t120.5 -43.5q78 0 121 43.5t43 121.5v452h126zM207 825q-19 19 -19 50t19.5 49.5t51.5 18.5t51.5 -18.5t19.5 -49.5t-19.5 -50t-51.5 -19t-52 19zM415 825 q-19 19 -19 50t19.5 49.5t51.5 18.5t51.5 -18.5t19.5 -49.5t-19.5 -50t-51.5 -19t-52 19z" />
<glyph unicode="&#xdd;" horiz-adv-x="618" d="M-14 720h141l182 -318l183 318h141l-261 -438v-282h-126v282zM250 782l99 201h153l-151 -201h-101z" />
<glyph unicode="&#xde;" horiz-adv-x="569" d="M273 131h-61v-131h-126v720h126v-131h61q123 0 194 -60t71 -169t-71 -169t-194 -60zM273 483h-61v-246h36q26 0 38 1q58 1 91 33t33 89q0 59 -36.5 91t-100.5 32z" />
<glyph unicode="&#xdf;" horiz-adv-x="640" d="M200 0h-120v499q0 41 14.5 80.5t43.5 75t80.5 57t118.5 21.5q90 0 148.5 -47.5t58.5 -120.5q0 -35 -16.5 -65.5t-40 -51.5t-47.5 -38t-40.5 -33t-16.5 -29q0 -19 14 -29.5t54 -26.5l15 -6q44 -18 67 -29.5t46.5 -29.5t33 -41t9.5 -56q0 -68 -52 -105.5t-140 -37.5 q-90 0 -158 33v109q81 -44 156 -44q33 0 56.5 12.5t23.5 37.5q0 23 -19.5 36t-74.5 34q-75 28 -108 55.5t-33 82.5q0 27 16 51.5t38.5 43t45 36t38.5 38.5t16 43q0 34 -25 54t-67 20q-61 0 -98 -38t-37 -101v-490z" />
<glyph unicode="&#xe0;" horiz-adv-x="535" d="M71 367v110q67 36 180 36q110 0 165.5 -50.5t55.5 -145.5v-317h-111l-2 52l2 38h-2q-12 -30 -55 -66.5t-109 -36.5q-69 0 -114 39.5t-45 109.5q0 92 85 134t230 22v19q0 98 -119 98q-94 0 -161 -42zM222 82q53 0 89.5 42t36.5 96q-97 16 -146 -6t-49 -68q0 -29 19 -46.5 t50 -17.5zM235 733l89 -171h-107l-138 171h156z" />
<glyph unicode="&#xe1;" horiz-adv-x="535" d="M71 367v110q67 36 180 36q110 0 165.5 -50.5t55.5 -145.5v-317h-111l-2 52l2 38h-2q-12 -30 -55 -66.5t-109 -36.5q-69 0 -114 39.5t-45 109.5q0 92 85 134t230 22v19q0 98 -119 98q-94 0 -161 -42zM222 82q53 0 89.5 42t36.5 96q-97 16 -146 -6t-49 -68q0 -29 19 -46.5 t50 -17.5zM191 562l89 171h156l-136 -171h-109z" />
<glyph unicode="&#xe2;" horiz-adv-x="535" d="M71 367v110q67 36 180 36q110 0 165.5 -50.5t55.5 -145.5v-317h-111l-2 52l2 38h-2q-12 -30 -55 -66.5t-109 -36.5q-69 0 -114 39.5t-45 109.5q0 92 85 134t230 22v19q0 98 -119 98q-94 0 -161 -42zM222 82q53 0 89.5 42t36.5 96q-97 16 -146 -6t-49 -68q0 -29 19 -46.5 t50 -17.5zM91 562l104 171h117l102 -171h-105l-56 99l-56 -99h-106z" />
<glyph unicode="&#xe3;" horiz-adv-x="535" d="M71 367v110q67 36 180 36q110 0 165.5 -50.5t55.5 -145.5v-317h-111l-2 52l2 38h-2q-12 -30 -55 -66.5t-109 -36.5q-69 0 -114 39.5t-45 109.5q0 92 85 134t230 22v19q0 98 -119 98q-94 0 -161 -42zM222 82q53 0 89.5 42t36.5 96q-97 16 -146 -6t-49 -68q0 -29 19 -46.5 t50 -17.5zM182 711q28 0 77 -17.5t73 -17.5q52 0 89 40v-94q-11 -15 -36 -27t-55 -12q-28 0 -77.5 18t-73.5 18q-52 0 -89 -41v95q11 15 36.5 26.5t55.5 11.5z" />
<glyph unicode="&#xe4;" horiz-adv-x="535" d="M71 367v110q67 36 180 36q110 0 165.5 -50.5t55.5 -145.5v-317h-111l-2 52l2 38h-2q-12 -30 -55 -66.5t-109 -36.5q-69 0 -114 39.5t-45 109.5q0 92 85 134t230 22v19q0 98 -119 98q-94 0 -161 -42zM222 82q53 0 89.5 42t36.5 96q-97 16 -146 -6t-49 -68q0 -29 19 -46.5 t50 -17.5zM96 594q-19 19 -19 50t19.5 50t51.5 19t51.5 -19t19.5 -50t-19.5 -49.5t-51.5 -18.5t-52 18zM285 644q0 32 19 50.5t51 18.5t51.5 -19t19.5 -50t-19.5 -49.5t-51.5 -18.5t-51 18.5t-19 49.5z" />
<glyph unicode="&#xe5;" horiz-adv-x="535" d="M71 367v110q67 36 180 36q110 0 165.5 -50.5t55.5 -145.5v-317h-111l-2 52l2 38h-2q-12 -30 -55 -66.5t-109 -36.5q-69 0 -114 39.5t-45 109.5q0 92 85 134t230 22v19q0 98 -119 98q-94 0 -161 -42zM222 82q53 0 89.5 42t36.5 96q-97 16 -146 -6t-49 -68q0 -29 19 -46.5 t50 -17.5zM141 644q0 46 32 72.5t82 26.5t81.5 -26.5t31.5 -72.5q0 -45 -31.5 -72t-81.5 -27t-82 27t-32 72zM225 672q-11 -11 -11 -28t11 -27.5t30 -10.5t30 10.5t11 27.5t-11 28t-30 11t-30 -11z" />
<glyph unicode="&#xe6;" horiz-adv-x="832" d="M71 367v110q62 32 164 35q27 1 60 -2q82 -10 124 -60q63 63 157 63q103 0 161 -67.5t58 -166.5q0 -13 -1.5 -32t-1.5 -22h-336q3 -63 43 -98.5t107 -35.5q48 0 95.5 12.5t74.5 29.5v-107q-70 -39 -180 -39q-138 0 -211 99q-28 -37 -75.5 -68t-113.5 -31 q-69 0 -114.5 39.5t-45.5 109.5q0 90 82 132t224 25q3 26 12 47q-15 69 -120 69q-96 0 -163 -42zM224 82q42 0 75 26t47 66q-6 22 -6 49q-94 11 -140.5 -11t-46.5 -66q0 -29 19.5 -46.5t51.5 -17.5zM677 296q2 50 -25.5 84.5t-79.5 34.5q-51 0 -81.5 -34.5t-34.5 -84.5h221z " />
<glyph unicode="&#xe7;" horiz-adv-x="497" d="M317 94q75 0 142 43v-111q-68 -37 -147 -39l-15 -39q38 -2 68 -25t30 -63q0 -46 -35.5 -69.5t-91.5 -23.5q-49 0 -65 8v73q18 -7 44 -7q21 0 37 9t16 26q0 22 -25.5 30t-58.5 4l33 82q-95 16 -152 87t-57 171q0 114 73.5 188.5t190.5 74.5q79 0 152 -38v-112 q-63 43 -139 43q-68 0 -110.5 -43t-42.5 -113t42.5 -113t110.5 -43z" />
<glyph unicode="&#xe8;" horiz-adv-x="557" d="M290 513q108 0 168.5 -68t60.5 -166q0 -13 -1.5 -32t-1.5 -22h-349q2 -63 44 -98.5t111 -35.5q50 0 100 12.5t77 29.5v-107q-72 -39 -186 -39q-123 0 -198 73t-75 190q0 113 72 188t178 75zM401 296q1 50 -29 84.5t-84 34.5q-52 0 -84 -34.5t-37 -84.5h234zM279 733 l89 -171h-107l-138 171h156z" />
<glyph unicode="&#xe9;" horiz-adv-x="557" d="M290 513q108 0 168.5 -68t60.5 -166q0 -13 -1.5 -32t-1.5 -22h-349q2 -63 44 -98.5t111 -35.5q50 0 100 12.5t77 29.5v-107q-72 -39 -186 -39q-123 0 -198 73t-75 190q0 113 72 188t178 75zM401 296q1 50 -29 84.5t-84 34.5q-52 0 -84 -34.5t-37 -84.5h234zM223 562 l89 171h156l-136 -171h-109z" />
<glyph unicode="&#xea;" horiz-adv-x="557" d="M290 513q108 0 168.5 -68t60.5 -166q0 -13 -1.5 -32t-1.5 -22h-349q2 -63 44 -98.5t111 -35.5q50 0 100 12.5t77 29.5v-107q-72 -39 -186 -39q-123 0 -198 73t-75 190q0 113 72 188t178 75zM401 296q1 50 -29 84.5t-84 34.5q-52 0 -84 -34.5t-37 -84.5h234zM129 562 l104 171h117l102 -171h-105l-56 99l-56 -99h-106z" />
<glyph unicode="&#xeb;" horiz-adv-x="557" d="M290 513q108 0 168.5 -68t60.5 -166q0 -13 -1.5 -32t-1.5 -22h-349q2 -63 44 -98.5t111 -35.5q50 0 100 12.5t77 29.5v-107q-72 -39 -186 -39q-123 0 -198 73t-75 190q0 113 72 188t178 75zM401 296q1 50 -29 84.5t-84 34.5q-52 0 -84 -34.5t-37 -84.5h234zM134 594 q-19 19 -19 50t19.5 50t51.5 19t51.5 -19t19.5 -50t-19.5 -49.5t-51.5 -18.5t-52 18zM323 644q0 32 19 50.5t51 18.5t51.5 -19t19.5 -50t-19.5 -49.5t-51.5 -18.5t-51 18.5t-19 49.5z" />
<glyph unicode="&#xec;" horiz-adv-x="283" d="M111 733l89 -171h-108l-137 171h156zM80 500h122v-500h-122v500z" />
<glyph unicode="&#xed;" horiz-adv-x="283" d="M83 562l89 171h156l-137 -171h-108zM80 500h122v-500h-122v500z" />
<glyph unicode="&#xee;" horiz-adv-x="283" d="M80 500h122v-500h-122v500zM-20 562l103 171h117l103 -171h-106l-55 99l-57 -99h-105z" />
<glyph unicode="&#xef;" horiz-adv-x="283" d="M-13 594q-20 19 -20 50t19.5 50t51.5 19t51 -19t19 -50t-19 -49.5t-51 -18.5t-51 18zM193 594q-19 19 -19 50t19 50t51 19t51.5 -19t19.5 -50t-19.5 -49.5t-51.5 -18.5t-51 18zM80 500h122v-500h-122v500z" />
<glyph unicode="&#xf0;" horiz-adv-x="587" d="M402 755l35 -53l-90 -53q199 -197 199 -389q0 -116 -70.5 -194.5t-182.5 -78.5t-182.5 76t-70.5 187q0 101 63 177t161 82q41 3 70 -14q-36 52 -84 96l-95 -56l-35 54l84 50q-27 28 -86 81h153q20 -16 28 -24zM430 260q1 61 -38 105.5t-99 44.5q-62 0 -99.5 -45.5 t-37.5 -114.5t37.5 -114t99.5 -45t99.5 47.5t37.5 121.5z" />
<glyph unicode="&#xf1;" d="M80 500h113l3 -64q0 -11 -2 -24l-2 -12h2q18 41 67 77t114 36q173 0 173 -200v-313h-122v292q0 110 -82 110q-62 0 -102 -44t-40 -110v-248h-122v500zM253 711q28 0 77 -17.5t73 -17.5q52 0 89 40v-94q-11 -15 -36 -27t-55 -12q-28 0 -77.5 18t-73.5 18q-52 0 -89 -41v95 q11 15 36.5 26.5t55.5 11.5z" />
<glyph unicode="&#xf2;" horiz-adv-x="604" d="M302 513q114 0 188 -74.5t74 -188.5t-74 -188.5t-188 -74.5q-113 0 -187.5 75t-74.5 188t74.5 188t187.5 75zM197 135q42 -44 105 -44t104.5 44.5t41.5 114.5t-41.5 114.5t-104.5 44.5t-104.5 -44.5t-41.5 -114.5t41 -115zM282 733l89 -171h-107l-138 171h156z" />
<glyph unicode="&#xf3;" horiz-adv-x="604" d="M302 513q114 0 188 -74.5t74 -188.5t-74 -188.5t-188 -74.5q-113 0 -187.5 75t-74.5 188t74.5 188t187.5 75zM197 135q42 -44 105 -44t104.5 44.5t41.5 114.5t-41.5 114.5t-104.5 44.5t-104.5 -44.5t-41.5 -114.5t41 -115zM240 562l89 171h156l-136 -171h-109z" />
<glyph unicode="&#xf4;" horiz-adv-x="604" d="M302 513q114 0 188 -74.5t74 -188.5t-74 -188.5t-188 -74.5q-113 0 -187.5 75t-74.5 188t74.5 188t187.5 75zM197 135q42 -44 105 -44t104.5 44.5t41.5 114.5t-41.5 114.5t-104.5 44.5t-104.5 -44.5t-41.5 -114.5t41 -115zM140 562l104 171h117l102 -171h-105l-56 99 l-56 -99h-106z" />
<glyph unicode="&#xf5;" horiz-adv-x="604" d="M302 513q114 0 188 -74.5t74 -188.5t-74 -188.5t-188 -74.5q-113 0 -187.5 75t-74.5 188t74.5 188t187.5 75zM197 135q42 -44 105 -44t104.5 44.5t41.5 114.5t-41.5 114.5t-104.5 44.5t-104.5 -44.5t-41.5 -114.5t41 -115zM228 711q28 0 77 -17.5t73 -17.5q52 0 89 40 v-94q-11 -15 -36 -27t-55 -12q-28 0 -77.5 18t-73.5 18q-52 0 -89 -41v95q11 15 36.5 26.5t55.5 11.5z" />
<glyph unicode="&#xf6;" horiz-adv-x="604" d="M302 513q114 0 188 -74.5t74 -188.5t-74 -188.5t-188 -74.5q-113 0 -187.5 75t-74.5 188t74.5 188t187.5 75zM197 135q42 -44 105 -44t104.5 44.5t41.5 114.5t-41.5 114.5t-104.5 44.5t-104.5 -44.5t-41.5 -114.5t41 -115zM146 594q-19 19 -19 50t19.5 50t51.5 19 t51.5 -19t19.5 -50t-19.5 -49.5t-51.5 -18.5t-52 18zM335 644q0 32 19 50.5t51 18.5t51.5 -19t19.5 -50t-19.5 -49.5t-51.5 -18.5t-51 18.5t-19 49.5z" />
<glyph unicode="&#xf7;" horiz-adv-x="630" d="M263 513q-19 19 -19 50t19 49.5t51 18.5t51.5 -18.5t19.5 -49.5t-19.5 -49.5t-51.5 -18.5t-51 18zM88 312v96h454v-96h-454zM263 107q-19 19 -19 50t19 49.5t51 18.5t51.5 -18.5t19.5 -49.5t-19.5 -49.5t-51.5 -18.5t-51 18z" />
<glyph unicode="&#xf8;" horiz-adv-x="604" d="M302 513q61 0 112 -23l51 80h89l-76 -121q86 -75 86 -199q0 -114 -74 -188.5t-188 -74.5q-54 0 -103 19l-48 -76h-89l72 114q-94 75 -94 206q0 113 74.5 188t187.5 75zM156 250q0 -67 38 -111l163 259q-27 11 -55 11q-63 0 -104.5 -44.5t-41.5 -114.5zM302 91 q63 0 104.5 44.5t41.5 114.5q0 58 -31 102l-161 -254q20 -7 46 -7z" />
<glyph unicode="&#xf9;" d="M533 0h-112l-3 63q0 21 4 37h-2q-18 -41 -66.5 -77t-111.5 -36q-172 0 -172 200v313h122v-292q0 -51 17 -80.5t64 -29.5q60 0 99.5 44t39.5 110v248h121v-500zM279 733l89 -171h-107l-138 171h156z" />
<glyph unicode="&#xfa;" d="M533 0h-112l-3 63q0 21 4 37h-2q-18 -41 -66.5 -77t-111.5 -36q-172 0 -172 200v313h122v-292q0 -51 17 -80.5t64 -29.5q60 0 99.5 44t39.5 110v248h121v-500zM239 562l89 171h156l-136 -171h-109z" />
<glyph unicode="&#xfb;" d="M533 0h-112l-3 63q0 21 4 37h-2q-18 -41 -66.5 -77t-111.5 -36q-172 0 -172 200v313h122v-292q0 -51 17 -80.5t64 -29.5q60 0 99.5 44t39.5 110v248h121v-500zM142 562l104 171h117l102 -171h-105l-56 99l-56 -99h-106z" />
<glyph unicode="&#xfc;" d="M533 0h-112l-3 63q0 21 4 37h-2q-18 -41 -66.5 -77t-111.5 -36q-172 0 -172 200v313h122v-292q0 -51 17 -80.5t64 -29.5q60 0 99.5 44t39.5 110v248h121v-500zM143 594q-19 19 -19 50t19.5 50t51.5 19t51.5 -19t19.5 -50t-19.5 -49.5t-51.5 -18.5t-52 18zM332 644 q0 32 19 50.5t51 18.5t51.5 -19t19.5 -50t-19.5 -49.5t-51.5 -18.5t-51 18.5t-19 49.5z" />
<glyph unicode="&#xfd;" horiz-adv-x="533" d="M6 -223v105q27 -8 57 -8q50 0 82 33t60 96l-207 497h133l64 -177q47 -127 72 -202q10 24 37.5 103.5t34.5 98.5l63 177h133l-195 -487q-44 -111 -95 -169t-122 -72q-31 -4 -61 -3q-36 0 -56 8zM206 562l89 171h156l-136 -171h-109z" />
<glyph unicode="&#xfe;" horiz-adv-x="639" d="M80 -220v940h122v-248l-4 -41h2q20 36 64.5 59t100.5 23q99 0 165 -73t66 -190q0 -118 -66 -190.5t-164 -72.5q-54 0 -98.5 25t-66.5 62h-2q3 -2 3 -90v-204h-122zM343 91q61 0 99 44t38 115q0 70 -38 114.5t-99 44.5q-55 0 -96.5 -41.5t-41.5 -117.5t41.5 -117.5 t96.5 -41.5z" />
<glyph unicode="&#xff;" horiz-adv-x="533" d="M6 -223v105q27 -8 57 -8q50 0 82 33t60 96l-207 497h133l64 -177q47 -127 72 -202q10 24 37.5 103.5t34.5 98.5l63 177h133l-195 -487q-44 -111 -95 -169t-122 -72q-31 -4 -61 -3q-36 0 -56 8zM111 594q-19 19 -19 50t19.5 50t51.5 19t51.5 -19t19.5 -50t-19.5 -49.5 t-51.5 -18.5t-52 18zM300 644q0 32 19 50.5t51 18.5t51.5 -19t19.5 -50t-19.5 -49.5t-51.5 -18.5t-51 18.5t-19 49.5z" />
<glyph unicode="&#x100;" horiz-adv-x="681" d="M-3 0l341 731h4l341 -731h-132l-64 143h-294l-64 -143h-132zM234 237h212q-65 147 -105 255q-83 -201 -107 -255zM176 828v93h328v-93h-328z" />
<glyph unicode="&#x101;" horiz-adv-x="535" d="M71 367v110q67 36 180 36q110 0 165.5 -50.5t55.5 -145.5v-317h-111l-2 52l2 38h-2q-12 -30 -55 -66.5t-109 -36.5q-69 0 -114 39.5t-45 109.5q0 92 85 134t230 22v19q0 98 -119 98q-94 0 -161 -42zM222 82q53 0 89.5 42t36.5 96q-97 16 -146 -6t-49 -68q0 -29 19 -46.5 t50 -17.5zM96 599v91h315v-91h-315z" />
<glyph unicode="&#x102;" horiz-adv-x="681" d="M-3 0l341 731h4l341 -731h-132l-64 143h-294l-64 -143h-132zM234 237h212q-65 147 -105 255q-83 -201 -107 -255zM398 952h92q0 -74 -38 -117t-111 -43q-74 0 -112.5 43t-37.5 117h91q0 -35 15.5 -55t43.5 -20t43 20t14 55z" />
<glyph unicode="&#x103;" horiz-adv-x="535" d="M71 367v110q67 36 180 36q110 0 165.5 -50.5t55.5 -145.5v-317h-111l-2 52l2 38h-2q-12 -30 -55 -66.5t-109 -36.5q-69 0 -114 39.5t-45 109.5q0 92 85 134t230 22v19q0 98 -119 98q-94 0 -161 -42zM222 82q53 0 89.5 42t36.5 96q-97 16 -146 -6t-49 -68q0 -29 19 -46.5 t50 -17.5zM308 725h91q1 -72 -36.5 -113.5t-108.5 -41.5t-108.5 41.5t-36.5 113.5h91q0 -33 14.5 -51.5t39.5 -18.5q26 0 40.5 18.5t13.5 51.5z" />
<glyph unicode="&#x104;" horiz-adv-x="681" d="M-3 0l341 731h4l341 -731h-1q-86 -55 -86 -112q0 -44 48 -44q23 0 49 10v-76q-33 -11 -66 -11q-54 0 -89.5 25t-35.5 74q0 74 110 134h-61l-64 143h-294l-64 -143h-132zM234 237h212q-65 147 -105 255q-83 -201 -107 -255z" />
<glyph unicode="&#x105;" horiz-adv-x="535" d="M71 367v110q67 36 180 36q110 0 165.5 -50.5t55.5 -145.5v-317q-86 -55 -86 -112q0 -44 48 -44q23 0 49 10v-76q-33 -11 -66 -11q-54 0 -89.5 25t-35.5 74q0 74 110 134h-41l-2 52l2 38h-2q-12 -30 -55 -66.5t-109 -36.5q-69 0 -114 39.5t-45 109.5q0 92 85 134t230 22 v19q0 98 -119 98q-94 0 -161 -42zM222 82q53 0 89.5 42t36.5 96q-97 16 -146 -6t-49 -68q0 -29 19 -46.5t50 -17.5z" />
<glyph unicode="&#x106;" horiz-adv-x="663" d="M628 682v-117q-102 52 -206 52q-115 0 -187 -73.5t-72 -183.5t71.5 -183.5t184.5 -73.5q114 0 214 51v-117q-31 -18 -89.5 -34t-129.5 -16q-163 0 -270.5 106.5t-107.5 266.5t108.5 266.5t272.5 106.5q121 0 211 -51zM325 782l99 201h153l-151 -201h-101z" />
<glyph unicode="&#x107;" horiz-adv-x="497" d="M317 94q75 0 142 43v-111q-75 -39 -155 -39q-117 0 -190.5 74.5t-73.5 188.5t73.5 188.5t190.5 74.5q79 0 152 -38v-112q-63 43 -139 43q-68 0 -110.5 -43t-42.5 -113t42.5 -113t110.5 -43zM242 562l89 171h156l-136 -171h-109z" />
<glyph unicode="&#x108;" horiz-adv-x="663" d="M628 682v-117q-102 52 -206 52q-115 0 -187 -73.5t-72 -183.5t71.5 -183.5t184.5 -73.5q114 0 214 51v-117q-31 -18 -89.5 -34t-129.5 -16q-163 0 -270.5 106.5t-107.5 266.5t108.5 266.5t272.5 106.5q121 0 211 -51zM219 783l121 198h113l121 -198h-108l-69 121 l-70 -121h-108z" />
<glyph unicode="&#x109;" horiz-adv-x="497" d="M317 94q75 0 142 43v-111q-75 -39 -155 -39q-117 0 -190.5 74.5t-73.5 188.5t73.5 188.5t190.5 74.5q79 0 152 -38v-112q-63 43 -139 43q-68 0 -110.5 -43t-42.5 -113t42.5 -113t110.5 -43zM128 562l104 171h117l102 -171h-105l-56 99l-56 -99h-106z" />
<glyph unicode="&#x10a;" horiz-adv-x="663" d="M628 682v-117q-102 52 -206 52q-115 0 -187 -73.5t-72 -183.5t71.5 -183.5t184.5 -73.5q114 0 214 51v-117q-31 -18 -89.5 -34t-129.5 -16q-163 0 -270.5 106.5t-107.5 266.5t108.5 266.5t272.5 106.5q121 0 211 -51zM349 825q-19 19 -19 50t19.5 49.5t51.5 18.5 t51.5 -18.5t19.5 -49.5t-19.5 -50t-51.5 -19t-52 19z" />
<glyph unicode="&#x10b;" horiz-adv-x="497" d="M317 94q75 0 142 43v-111q-75 -39 -155 -39q-117 0 -190.5 74.5t-73.5 188.5t73.5 188.5t190.5 74.5q79 0 152 -38v-112q-63 43 -139 43q-68 0 -110.5 -43t-42.5 -113t42.5 -113t110.5 -43zM250 594q-19 19 -19 50t19.5 50t51.5 19t51.5 -19t19.5 -50t-19.5 -49.5 t-51.5 -18.5t-52 18z" />
<glyph unicode="&#x10c;" horiz-adv-x="663" d="M628 682v-117q-102 52 -206 52q-115 0 -187 -73.5t-72 -183.5t71.5 -183.5t184.5 -73.5q114 0 214 51v-117q-31 -18 -89.5 -34t-129.5 -16q-163 0 -270.5 106.5t-107.5 266.5t108.5 266.5t272.5 106.5q121 0 211 -51zM577 981l-121 -198h-113l-121 198h108l70 -121 l69 121h108z" />
<glyph unicode="&#x10d;" horiz-adv-x="497" d="M317 94q75 0 142 43v-111q-75 -39 -155 -39q-117 0 -190.5 74.5t-73.5 188.5t73.5 188.5t190.5 74.5q79 0 152 -38v-112q-63 43 -139 43q-68 0 -110.5 -43t-42.5 -113t42.5 -113t110.5 -43zM449 733l-102 -171h-117l-104 171h106l56 -99l56 99h105z" />
<glyph unicode="&#x10e;" horiz-adv-x="734" d="M308 0h-222v720h219q178 0 285.5 -99.5t107.5 -260.5t-106.5 -260.5t-283.5 -99.5zM304 614h-92v-508h95q120 0 192 70.5t72 183.5q0 112 -72.5 183t-194.5 71zM500 981l-121 -198h-113l-121 198h108l70 -121l69 121h108z" />
<glyph unicode="&#x10f;" horiz-adv-x="747" d="M556 720v-720h-112l-2 47q0 9 0.5 18t1.5 13v4h-2q-19 -39 -66 -67t-103 -28q-100 0 -166.5 73t-66.5 190q0 118 66 190.5t164 72.5q55 0 99.5 -25t65.5 -62h2q-3 14 -3 41v253h122zM293 409q-61 0 -99 -44t-38 -115q0 -70 38 -114.5t99 -44.5q55 0 96.5 41.5t41.5 117.5 t-41.5 117.5t-96.5 41.5zM633 421v293h113v-293h-113z" />
<glyph unicode="&#x110;" horiz-adv-x="754" d="M26 319v82h80v319h219q178 0 285.5 -99.5t107.5 -260.5t-106.5 -260.5t-283.5 -99.5h-222v319h-80zM324 614h-92v-213h176v-82h-176v-213h95q120 0 192 70.5t72 183.5q0 112 -72.5 183t-194.5 71z" />
<glyph unicode="&#x111;" horiz-adv-x="637" d="M556 720v-69h76v-81h-76v-570h-112l-2 47q0 9 0.5 18t1.5 13v4h-2q-19 -39 -66 -67t-103 -28q-100 0 -166.5 73t-66.5 190q0 118 66 190.5t164 72.5q55 0 99.5 -25t65.5 -62h2q-3 14 -3 41v103h-152v81h152v69h122zM293 409q-61 0 -99 -44t-38 -115q0 -70 38 -114.5 t99 -44.5q55 0 96.5 41.5t41.5 117.5t-41.5 117.5t-96.5 41.5z" />
<glyph unicode="&#x112;" horiz-adv-x="590" d="M554 0h-468v720h453v-106h-327v-198h277v-103h-277v-207h342v-106zM146 828v93h328v-93h-328z" />
<glyph unicode="&#x113;" horiz-adv-x="557" d="M290 513q108 0 168.5 -68t60.5 -166q0 -13 -1.5 -32t-1.5 -22h-349q2 -63 44 -98.5t111 -35.5q50 0 100 12.5t77 29.5v-107q-72 -39 -186 -39q-123 0 -198 73t-75 190q0 113 72 188t178 75zM401 296q1 50 -29 84.5t-84 34.5q-52 0 -84 -34.5t-37 -84.5h234zM133 599v91 h315v-91h-315z" />
<glyph unicode="&#x114;" horiz-adv-x="590" d="M554 0h-468v720h453v-106h-327v-198h277v-103h-277v-207h342v-106zM369 952h92q0 -74 -38 -117t-111 -43q-74 0 -112.5 43t-37.5 117h91q0 -35 15.5 -55t43.5 -20t43 20t14 55z" />
<glyph unicode="&#x115;" horiz-adv-x="557" d="M290 513q108 0 168.5 -68t60.5 -166q0 -13 -1.5 -32t-1.5 -22h-349q2 -63 44 -98.5t111 -35.5q50 0 100 12.5t77 29.5v-107q-72 -39 -186 -39q-123 0 -198 73t-75 190q0 113 72 188t178 75zM401 296q1 50 -29 84.5t-84 34.5q-52 0 -84 -34.5t-37 -84.5h234zM346 725h91 q1 -72 -36.5 -113.5t-108.5 -41.5t-108.5 41.5t-36.5 113.5h91q0 -33 14.5 -51.5t39.5 -18.5q26 0 40.5 18.5t13.5 51.5z" />
<glyph unicode="&#x116;" horiz-adv-x="590" d="M554 0h-468v720h453v-106h-327v-198h277v-103h-277v-207h342v-106zM256 825q-19 19 -19 50t19.5 49.5t51.5 18.5t51.5 -18.5t19.5 -49.5t-19.5 -50t-51.5 -19t-52 19z" />
<glyph unicode="&#x117;" horiz-adv-x="557" d="M290 513q108 0 168.5 -68t60.5 -166q0 -13 -1.5 -32t-1.5 -22h-349q2 -63 44 -98.5t111 -35.5q50 0 100 12.5t77 29.5v-107q-72 -39 -186 -39q-123 0 -198 73t-75 190q0 113 72 188t178 75zM401 296q1 50 -29 84.5t-84 34.5q-52 0 -84 -34.5t-37 -84.5h234zM239 594 q-19 19 -19 50t19.5 50t51.5 19t51.5 -19t19.5 -50t-19.5 -49.5t-51.5 -18.5t-52 18z" />
<glyph unicode="&#x118;" horiz-adv-x="590" d="M554 0h-8q-86 -55 -86 -112q0 -44 48 -44q23 0 49 10v-76q-33 -11 -66 -11q-54 0 -89.5 25t-35.5 74q0 74 110 134h-390v720h453v-106h-327v-198h277v-103h-277v-207h342v-106z" />
<glyph unicode="&#x119;" horiz-adv-x="557" d="M290 513q108 0 168.5 -68t60.5 -166q0 -13 -1.5 -32t-1.5 -22h-349q2 -63 44 -98.5t111 -35.5q50 0 100 12.5t77 29.5v-107q-31 -16 -72 -26q-86 -55 -86 -112q0 -44 48 -44q23 0 49 10v-76q-33 -11 -66 -11q-54 0 -89.5 25t-35.5 74q0 66 88 122q-7 -1 -22 -1 q-123 0 -198 73t-75 190q0 113 72 188t178 75zM401 296q1 50 -29 84.5t-84 34.5q-52 0 -84 -34.5t-37 -84.5h234z" />
<glyph unicode="&#x11a;" horiz-adv-x="590" d="M554 0h-468v720h453v-106h-327v-198h277v-103h-277v-207h342v-106zM489 981l-121 -198h-113l-121 198h108l70 -121l69 121h108z" />
<glyph unicode="&#x11b;" horiz-adv-x="557" d="M290 513q108 0 168.5 -68t60.5 -166q0 -13 -1.5 -32t-1.5 -22h-349q2 -63 44 -98.5t111 -35.5q50 0 100 12.5t77 29.5v-107q-72 -39 -186 -39q-123 0 -198 73t-75 190q0 113 72 188t178 75zM401 296q1 50 -29 84.5t-84 34.5q-52 0 -84 -34.5t-37 -84.5h234zM450 733 l-102 -171h-117l-104 171h106l56 -99l56 99h105z" />
<glyph unicode="&#x11c;" horiz-adv-x="707" d="M660 42q-103 -55 -241 -55q-166 0 -274.5 106.5t-108.5 266.5t109 266.5t275 106.5q117 0 220 -50v-118q-106 52 -216 52q-118 0 -190 -73t-72 -184q0 -112 71.5 -185.5t185.5 -73.5q68 0 119 20v204h122v-283zM226 783l121 198h113l121 -198h-108l-69 121l-70 -121h-108 z" />
<glyph unicode="&#x11d;" horiz-adv-x="535" d="M204 121q0 -16 25 -24t86 -15q101 -12 150 -45.5t49 -99.5q0 -75 -69 -117.5t-182 -42.5q-106 0 -170.5 34.5t-64.5 98.5q0 43 37.5 75.5t94.5 44.5q-34 5 -54 22t-20 44q0 23 19.5 43.5t54.5 31.5q-54 21 -86 63.5t-32 98.5q0 80 60.5 130t149.5 50q47 0 83 -13h184v-88 h-64q-12 0 -28 4q33 -36 33 -83q0 -72 -50 -119.5t-128 -55.5q-33 -3 -55.5 -13.5t-22.5 -23.5zM252 237q45 0 72 26t27 67t-27.5 68t-71.5 27q-43 0 -70.5 -27t-27.5 -68t27.5 -67t70.5 -26zM265 -143q58 0 93 19.5t35 51.5q0 71 -134 71q-49 0 -81.5 -21t-32.5 -52 q0 -33 33 -51t87 -18zM99 562l104 171h117l102 -171h-105l-56 99l-56 -99h-106z" />
<glyph unicode="&#x11e;" horiz-adv-x="707" d="M660 42q-103 -55 -241 -55q-166 0 -274.5 106.5t-108.5 266.5t109 266.5t275 106.5q117 0 220 -50v-118q-106 52 -216 52q-118 0 -190 -73t-72 -184q0 -112 71.5 -185.5t185.5 -73.5q68 0 119 20v204h122v-283zM465 952h92q0 -74 -38 -117t-111 -43q-74 0 -112.5 43 t-37.5 117h91q0 -35 15.5 -55t43.5 -20t43 20t14 55z" />
<glyph unicode="&#x11f;" horiz-adv-x="535" d="M204 121q0 -16 25 -24t86 -15q101 -12 150 -45.5t49 -99.5q0 -75 -69 -117.5t-182 -42.5q-106 0 -170.5 34.5t-64.5 98.5q0 43 37.5 75.5t94.5 44.5q-34 5 -54 22t-20 44q0 23 19.5 43.5t54.5 31.5q-54 21 -86 63.5t-32 98.5q0 80 60.5 130t149.5 50q47 0 83 -13h184v-88 h-64q-12 0 -28 4q33 -36 33 -83q0 -72 -50 -119.5t-128 -55.5q-33 -3 -55.5 -13.5t-22.5 -23.5zM252 237q45 0 72 26t27 67t-27.5 68t-71.5 27q-43 0 -70.5 -27t-27.5 -68t27.5 -67t70.5 -26zM265 -143q58 0 93 19.5t35 51.5q0 71 -134 71q-49 0 -81.5 -21t-32.5 -52 q0 -33 33 -51t87 -18zM313 725h91q1 -72 -36.5 -113.5t-108.5 -41.5t-108.5 41.5t-36.5 113.5h91q0 -33 14.5 -51.5t39.5 -18.5q26 0 40.5 18.5t13.5 51.5z" />
<glyph unicode="&#x120;" horiz-adv-x="707" d="M660 42q-103 -55 -241 -55q-166 0 -274.5 106.5t-108.5 266.5t109 266.5t275 106.5q117 0 220 -50v-118q-106 52 -216 52q-118 0 -190 -73t-72 -184q0 -112 71.5 -185.5t185.5 -73.5q68 0 119 20v204h122v-283zM351 825q-19 19 -19 50t19.5 49.5t51.5 18.5t51.5 -18.5 t19.5 -49.5t-19.5 -50t-51.5 -19t-52 19z" />
<glyph unicode="&#x121;" horiz-adv-x="535" d="M204 121q0 -16 25 -24t86 -15q101 -12 150 -45.5t49 -99.5q0 -75 -69 -117.5t-182 -42.5q-106 0 -170.5 34.5t-64.5 98.5q0 43 37.5 75.5t94.5 44.5q-34 5 -54 22t-20 44q0 23 19.5 43.5t54.5 31.5q-54 21 -86 63.5t-32 98.5q0 80 60.5 130t149.5 50q47 0 83 -13h184v-88 h-64q-12 0 -28 4q33 -36 33 -83q0 -72 -50 -119.5t-128 -55.5q-33 -3 -55.5 -13.5t-22.5 -23.5zM252 237q45 0 72 26t27 67t-27.5 68t-71.5 27q-43 0 -70.5 -27t-27.5 -68t27.5 -67t70.5 -26zM265 -143q58 0 93 19.5t35 51.5q0 71 -134 71q-49 0 -81.5 -21t-32.5 -52 q0 -33 33 -51t87 -18zM208 594q-19 19 -19 50t19.5 50t51.5 19t51.5 -19t19.5 -50t-19.5 -49.5t-51.5 -18.5t-52 18z" />
<glyph unicode="&#x122;" horiz-adv-x="707" d="M660 42q-103 -55 -241 -55q-166 0 -274.5 106.5t-108.5 266.5t109 266.5t275 106.5q117 0 220 -50v-118q-106 52 -216 52q-118 0 -190 -73t-72 -184q0 -112 71.5 -185.5t185.5 -73.5q68 0 119 20v204h122v-283zM472 -56l-71 -177h-96l41 177h126z" />
<glyph unicode="&#x123;" horiz-adv-x="535" d="M204 121q0 -16 25 -24t86 -15q101 -12 150 -45.5t49 -99.5q0 -75 -69 -117.5t-182 -42.5q-106 0 -170.5 34.5t-64.5 98.5q0 43 37.5 75.5t94.5 44.5q-34 5 -54 22t-20 44q0 23 19.5 43.5t54.5 31.5q-54 21 -86 63.5t-32 98.5q0 80 60.5 130t149.5 50q47 0 83 -13h184v-88 h-64q-12 0 -28 4q33 -36 33 -83q0 -72 -50 -119.5t-128 -55.5q-33 -3 -55.5 -13.5t-22.5 -23.5zM252 237q45 0 72 26t27 67t-27.5 68t-71.5 27q-43 0 -70.5 -27t-27.5 -68t27.5 -67t70.5 -26zM265 -143q58 0 93 19.5t35 51.5q0 71 -134 71q-49 0 -81.5 -21t-32.5 -52 q0 -33 33 -51t87 -18zM183 557l71 177h96l-41 -177h-126z" />
<glyph unicode="&#x124;" horiz-adv-x="750" d="M667 0h-126v312h-326v-312h-126v720h126v-303h326v303h126v-720zM194 783l121 198h113l121 -198h-108l-69 121l-70 -121h-108z" />
<glyph unicode="&#x125;" d="M80 720h120v-263q0 -13 -1 -31t-1 -21q24 41 69 74.5t108 33.5q173 0 173 -200v-313h-122v292q0 110 -82 110q-62 0 -102 -44t-40 -110v-248h-122v720zM-21 767l104 171h117l102 -171h-105l-56 99l-56 -99h-106z" />
<glyph unicode="&#x126;" horiz-adv-x="808" d="M28 531v81h90v108h126v-108h326v108h126v-108h85v-81h-85v-531h-126v312h-326v-312h-126v531h-90zM244 417h326v114h-326v-114z" />
<glyph unicode="&#x127;" d="M80 720h120v-69h145v-81h-145v-113q0 -13 -1 -31t-1 -21q24 41 69 74.5t108 33.5q173 0 173 -200v-313h-122v292q0 110 -82 110q-62 0 -102 -44t-40 -110v-248h-122v570h-76v81h76v69z" />
<glyph unicode="&#x128;" horiz-adv-x="298" d="M212 0h-126v720h126v-720zM73 940q28 0 78 -18t74 -18q55 0 89 41v-97q-11 -15 -36 -27t-54 -12t-79.5 18t-74.5 18q-52 0 -89 -40v96q11 16 36.5 27.5t55.5 11.5z" />
<glyph unicode="&#x129;" horiz-adv-x="283" d="M67 711q28 0 77.5 -17.5t73.5 -17.5q52 0 89 40v-94q-11 -16 -36.5 -27.5t-55.5 -11.5q-28 0 -77 18t-73 18q-52 0 -89 -41v95q11 15 36 26.5t55 11.5zM80 500h122v-500h-122v500z" />
<glyph unicode="&#x12a;" horiz-adv-x="298" d="M212 0h-126v720h126v-720zM-15 828v93h328v-93h-328z" />
<glyph unicode="&#x12b;" horiz-adv-x="283" d="M-16 599v91h315v-91h-315zM80 500h122v-500h-122v500z" />
<glyph unicode="&#x12c;" horiz-adv-x="298" d="M212 0h-126v720h126v-720zM206 952h92q0 -74 -38 -117t-111 -43q-74 0 -112.5 43t-37.5 117h91q0 -35 15.5 -55t43.5 -20t43 20t14 55z" />
<glyph unicode="&#x12d;" horiz-adv-x="283" d="M195 725h91q1 -72 -36.5 -113.5t-108.5 -41.5t-108.5 41.5t-36.5 113.5h91q-1 -33 13.5 -51.5t40.5 -18.5t40.5 18.5t13.5 51.5zM80 500h122v-500h-122v500z" />
<glyph unicode="&#x12e;" horiz-adv-x="298" d="M212 0q-86 -55 -86 -112q0 -44 48 -44q23 0 49 10v-76q-33 -11 -66 -11q-54 0 -89.5 25t-35.5 74q0 74 110 134h-56v720h126v-720z" />
<glyph unicode="&#x12f;" horiz-adv-x="283" d="M80 500h122v-500q-86 -55 -86 -112q0 -44 48 -44q23 0 49 10v-76q-33 -11 -66 -11q-54 0 -89 25t-35 74q0 74 109 134h-52v500zM89 594q-19 19 -19 50t19.5 50t51.5 19t51.5 -19t19.5 -50t-19.5 -49.5t-51.5 -18.5t-52 18z" />
<glyph unicode="&#x130;" horiz-adv-x="298" d="M212 0h-126v720h126v-720zM96 825q-19 19 -19 50t19.5 49.5t51.5 18.5t51.5 -18.5t19.5 -49.5t-19.5 -50t-51.5 -19t-52 19z" />
<glyph unicode="&#x131;" horiz-adv-x="283" d="M80 500h122v-500h-122v500z" />
<glyph unicode="&#x132;" horiz-adv-x="688" d="M212 0h-126v720h126v-720zM602 720v-525q0 -208 -194 -208q-64 0 -97 20v108q34 -19 80 -19q85 0 85 87v537h126z" />
<glyph unicode="&#x133;" horiz-adv-x="565" d="M80 500h122v-500h-122v500zM485 500v-554q0 -86 -46 -132.5t-131 -46.5q-43 0 -63 9v106q12 -5 36 -5q39 0 60.5 23t21.5 66v534h122zM89 594q-19 19 -19 50t19.5 50t51.5 19t51.5 -19t19.5 -50t-19.5 -49.5t-51.5 -18.5t-52 18zM353 644q0 32 19 50.5t51 18.5t51.5 -19 t19.5 -50t-19.5 -49.5t-51.5 -18.5t-51 18.5t-19 49.5z" />
<glyph unicode="&#x134;" horiz-adv-x="390" d="M304 720v-525q0 -208 -194 -208q-64 0 -97 20v108q34 -19 80 -19q85 0 85 87v537h126zM63 783l121 198h113l121 -198h-108l-69 121l-70 -121h-108z" />
<glyph unicode="&#x135;" horiz-adv-x="283" d="M202 500v-554q0 -86 -46 -132.5t-131 -46.5q-44 0 -62 9v106q12 -5 36 -5q38 0 59.5 23t21.5 66v534h122zM-20 562l104 171h117l102 -171h-105l-56 99l-56 -99h-106z" />
<glyph unicode="&#x136;" horiz-adv-x="681" d="M212 720v-362l311 362h151l-260 -295l264 -425h-143l-206 341l-117 -129v-212h-126v720h126zM427 -56l-71 -177h-96l41 177h126z" />
<glyph unicode="&#x137;" horiz-adv-x="573" d="M540 500l-174 -210l187 -290h-139l-141 226l-73 -81v-145h-120v720h122v-448l196 228h142zM365 -56l-71 -177h-96l41 177h126z" />
<glyph unicode="&#x138;" horiz-adv-x="573" d="M540 500l-174 -210l187 -290h-139l-141 226l-73 -81v-145h-120v500h122v-228l196 228h142z" />
<glyph unicode="&#x139;" horiz-adv-x="524" d="M505 0h-419v720h126v-614h293v-106zM96 782l99 201h153l-151 -201h-101z" />
<glyph unicode="&#x13a;" horiz-adv-x="322" d="M79 136v584h122v-558q0 -69 54 -69q26 0 47 8v-102q-30 -12 -81 -12q-64 0 -103 36t-39 113zM81 767l89 171h156l-136 -171h-109z" />
<glyph unicode="&#x13b;" horiz-adv-x="524" d="M505 0h-419v720h126v-614h293v-106zM366 -56l-71 -177h-96l41 177h126z" />
<glyph unicode="&#x13c;" horiz-adv-x="322" d="M79 136v584h122v-558q0 -69 54 -69q26 0 47 8v-102q-30 -12 -81 -12q-64 0 -103 36t-39 113zM257 -56l-71 -177h-96l41 177h126z" />
<glyph unicode="&#x13d;" horiz-adv-x="524" d="M505 0h-419v720h126v-614h293v-106zM336 475v293h113v-293h-113z" />
<glyph unicode="&#x13e;" horiz-adv-x="411" d="M79 136v584h122v-558q0 -69 54 -69q26 0 47 8v-102q-30 -12 -81 -12q-64 0 -103 36t-39 113zM289 421v293h113v-293h-113z" />
<glyph unicode="&#x13f;" horiz-adv-x="526" d="M505 0h-419v720h126v-614h293v-106zM348 302q-19 19 -19 50t19.5 50t51.5 19t51.5 -19t19.5 -50t-19.5 -49.5t-51.5 -18.5t-52 18z" />
<glyph unicode="&#x140;" horiz-adv-x="404" d="M79 136v584h122v-558q0 -69 54 -69q26 0 47 8v-102q-30 -12 -81 -12q-64 0 -103 36t-39 113zM289 303q-19 19 -19 50t19.5 50t51.5 19t51.5 -19t19.5 -50t-19.5 -49.5t-51.5 -18.5t-52 18z" />
<glyph unicode="&#x141;" horiz-adv-x="531" d="M10 227v84l83 56v353h126v-268l115 78v-83l-115 -78v-263h293v-106h-419v283z" />
<glyph unicode="&#x142;" horiz-adv-x="334" d="M8 239v85l80 52v344h122v-264l81 53v-85l-81 -53v-209q0 -69 54 -69q26 0 47 8v-102q-30 -12 -81 -12q-64 0 -103 36t-39 113v155z" />
<glyph unicode="&#x143;" horiz-adv-x="755" d="M669 -11h-3l-421 431q-1 1 -14.5 13.5t-20.5 18.5v-452h-124v731h4l420 -430l35 -34v453h124v-731zM299 782l99 201h153l-151 -201h-101z" />
<glyph unicode="&#x144;" d="M80 500h113l3 -64q0 -11 -2 -24l-2 -12h2q18 41 67 77t114 36q173 0 173 -200v-313h-122v292q0 110 -82 110q-62 0 -102 -44t-40 -110v-248h-122v500zM266 562l89 171h156l-136 -171h-109z" />
<glyph unicode="&#x145;" horiz-adv-x="755" d="M669 -11h-3l-421 431q-1 1 -14.5 13.5t-20.5 18.5v-452h-124v731h4l420 -430l35 -34v453h124v-731zM461 -56l-71 -177h-96l41 177h126z" />
<glyph unicode="&#x146;" d="M80 500h113l3 -64q0 -11 -2 -24l-2 -12h2q18 41 67 77t114 36q173 0 173 -200v-313h-122v292q0 110 -82 110q-62 0 -102 -44t-40 -110v-248h-122v500zM378 -56l-71 -177h-96l41 177h126z" />
<glyph unicode="&#x147;" horiz-adv-x="755" d="M669 -11h-3l-421 431q-1 1 -14.5 13.5t-20.5 18.5v-452h-124v731h4l420 -430l35 -34v453h124v-731zM557 981l-121 -198h-113l-121 198h108l70 -121l69 121h108z" />
<glyph unicode="&#x148;" d="M80 500h113l3 -64q0 -11 -2 -24l-2 -12h2q18 41 67 77t114 36q173 0 173 -200v-313h-122v292q0 110 -82 110q-62 0 -102 -44t-40 -110v-248h-122v500zM494 733l-102 -171h-117l-104 171h106l56 -99l56 99h105z" />
<glyph unicode="&#x14c;" horiz-adv-x="818" d="M36 360q0 156 107 264.5t266 108.5q158 0 265.5 -107.5t107.5 -265.5t-106.5 -265.5t-266.5 -107.5q-159 0 -266 107.5t-107 265.5zM162 360q0 -110 70 -183.5t177 -73.5t176.5 73.5t69.5 183.5t-69.5 183.5t-176.5 73.5t-177 -74t-70 -183zM245 828v93h328v-93h-328z " />
<glyph unicode="&#x14d;" horiz-adv-x="604" d="M302 513q114 0 188 -74.5t74 -188.5t-74 -188.5t-188 -74.5q-113 0 -187.5 75t-74.5 188t74.5 188t187.5 75zM197 135q42 -44 105 -44t104.5 44.5t41.5 114.5t-41.5 114.5t-104.5 44.5t-104.5 -44.5t-41.5 -114.5t41 -115zM144 599v91h315v-91h-315z" />
<glyph unicode="&#x14e;" horiz-adv-x="818" d="M36 360q0 156 107 264.5t266 108.5q158 0 265.5 -107.5t107.5 -265.5t-106.5 -265.5t-266.5 -107.5q-159 0 -266 107.5t-107 265.5zM162 360q0 -110 70 -183.5t177 -73.5t176.5 73.5t69.5 183.5t-69.5 183.5t-176.5 73.5t-177 -74t-70 -183zM466 952h92q0 -74 -38 -117 t-111 -43q-74 0 -112.5 43t-37.5 117h91q0 -35 15.5 -55t43.5 -20t43 20t14 55z" />
<glyph unicode="&#x14f;" horiz-adv-x="604" d="M302 513q114 0 188 -74.5t74 -188.5t-74 -188.5t-188 -74.5q-113 0 -187.5 75t-74.5 188t74.5 188t187.5 75zM197 135q42 -44 105 -44t104.5 44.5t41.5 114.5t-41.5 114.5t-104.5 44.5t-104.5 -44.5t-41.5 -114.5t41 -115zM356 725h91q1 -72 -36.5 -113.5t-108.5 -41.5 t-108.5 41.5t-36.5 113.5h91q0 -33 14.5 -51.5t39.5 -18.5q26 0 40.5 18.5t13.5 51.5z" />
<glyph unicode="&#x150;" horiz-adv-x="818" d="M36 360q0 156 107 264.5t266 108.5q158 0 265.5 -107.5t107.5 -265.5t-106.5 -265.5t-266.5 -107.5q-159 0 -266 107.5t-107 265.5zM162 360q0 -110 70 -183.5t177 -73.5t176.5 73.5t69.5 183.5t-69.5 183.5t-176.5 73.5t-177 -74t-70 -183zM262 782l75 185h136 l-108 -185h-103zM441 782l103 185h143l-142 -185h-104z" />
<glyph unicode="&#x151;" horiz-adv-x="604" d="M302 513q114 0 188 -74.5t74 -188.5t-74 -188.5t-188 -74.5q-113 0 -187.5 75t-74.5 188t74.5 188t187.5 75zM197 135q42 -44 105 -44t104.5 44.5t41.5 114.5t-41.5 114.5t-104.5 44.5t-104.5 -44.5t-41.5 -114.5t41 -115zM156 562l75 171h136l-108 -171h-103zM335 562 l103 171h143l-142 -171h-104z" />
<glyph unicode="&#x152;" horiz-adv-x="1030" d="M578 720h402v-106h-278v-198h221v-103h-221v-207h293v-106h-417v41q-79 -54 -182 -54q-153 0 -256.5 107.5t-103.5 265.5q0 156 104 264.5t256 108.5q103 0 182 -54v41zM401 103q114 0 177 73v367q-64 74 -177 74q-103 0 -171 -73t-68 -184t68 -184t171 -73z" />
<glyph unicode="&#x153;" horiz-adv-x="850" d="M591 513q104 0 162.5 -68t58.5 -166q0 -13 -1.5 -32t-1.5 -22h-335q3 -63 43 -98.5t107 -35.5q47 0 94 12.5t74 29.5v-107q-68 -39 -178 -39q-94 0 -162 51q-65 -51 -154 -51q-112 0 -185 75t-73 188t73 188t185 75q83 0 151 -50q63 50 142 50zM298 91q48 0 82 29 q-31 69 -31 131q0 72 31 129q-35 29 -82 29q-61 0 -101.5 -44.5t-40.5 -114.5t40.5 -114.5t101.5 -44.5zM694 296q2 50 -25.5 84.5t-78.5 34.5t-81 -34.5t-34 -84.5h219z" />
<glyph unicode="&#x154;" horiz-adv-x="646" d="M86 720h243q124 0 195 -60t71 -169q0 -76 -40 -128.5t-102 -74.5l157 -288h-135l-138 267h-127v-267h-124v720zM330 614h-120v-245h126q62 0 97.5 32t35.5 90q0 59 -37 91t-102 32zM236 782l99 201h153l-151 -201h-101z" />
<glyph unicode="&#x155;" horiz-adv-x="392" d="M75 0v500h112q2 -40 2 -59v-35q25 49 64 78t88 29q22 0 31 -3v-118q-1 0 -5 1t-11 2t-14 1q-63 0 -104 -54t-41 -127v-215h-122zM168 562l89 171h156l-136 -171h-109z" />
<glyph unicode="&#x156;" horiz-adv-x="646" d="M86 720h243q124 0 195 -60t71 -169q0 -76 -40 -128.5t-102 -74.5l157 -288h-135l-138 267h-127v-267h-124v720zM330 614h-120v-245h126q62 0 97.5 32t35.5 90q0 59 -37 91t-102 32zM398 -56l-71 -177h-96l41 177h126z" />
<glyph unicode="&#x157;" horiz-adv-x="392" d="M75 0v500h112q2 -40 2 -59v-35q25 49 64 78t88 29q22 0 31 -3v-118q-1 0 -5 1t-11 2t-14 1q-63 0 -104 -54t-41 -127v-215h-122zM202 -56l-71 -177h-96l41 177h126z" />
<glyph unicode="&#x158;" horiz-adv-x="646" d="M86 720h243q124 0 195 -60t71 -169q0 -76 -40 -128.5t-102 -74.5l157 -288h-135l-138 267h-127v-267h-124v720zM330 614h-120v-245h126q62 0 97.5 32t35.5 90q0 59 -37 91t-102 32zM481 981l-121 -198h-113l-121 198h108l70 -121l69 121h108z" />
<glyph unicode="&#x159;" horiz-adv-x="392" d="M75 0v500h112q2 -40 2 -59v-35q25 49 64 78t88 29q22 0 31 -3v-118q-1 0 -5 1t-11 2t-14 1q-63 0 -104 -54t-41 -127v-215h-122zM394 733l-102 -171h-117l-104 171h106l56 -99l56 99h105z" />
<glyph unicode="&#x15a;" horiz-adv-x="541" d="M254 -13q-113 0 -211 41v123q97 -49 192 -52q44 0 72 8q82 19 82 77q0 42 -33.5 69.5t-117.5 57.5q-105 37 -153.5 86.5t-48.5 133.5q0 93 70 147.5t181 54.5q98 0 184 -36v-118q-77 43 -175 43q-62 0 -99.5 -24t-37.5 -65q0 -39 33 -67t115 -58q105 -39 154.5 -88 t49.5 -131q0 -95 -68 -148.5t-189 -53.5zM202 782l99 201h153l-151 -201h-101z" />
<glyph unicode="&#x15b;" horiz-adv-x="453" d="M301 137q0 24 -22.5 38t-76.5 31q-77 24 -116 59t-39 101t51 106.5t134 40.5q82 0 151 -30v-107q-62 33 -129 36q-29 0 -49 -4q-46 -13 -46 -47q0 -23 21.5 -38t69.5 -29q87 -27 125 -62t38 -98q0 -70 -52.5 -108.5t-141.5 -38.5q-93 0 -167 33v109q84 -44 164 -44 q37 0 61 12.5t24 39.5zM163 562l89 171h156l-136 -171h-109z" />
<glyph unicode="&#x15c;" horiz-adv-x="541" d="M254 -13q-113 0 -211 41v123q97 -49 192 -52q44 0 72 8q82 19 82 77q0 42 -33.5 69.5t-117.5 57.5q-105 37 -153.5 86.5t-48.5 133.5q0 93 70 147.5t181 54.5q98 0 184 -36v-118q-77 43 -175 43q-62 0 -99.5 -24t-37.5 -65q0 -39 33 -67t115 -58q105 -39 154.5 -88 t49.5 -131q0 -95 -68 -148.5t-189 -53.5zM89 783l121 198h113l121 -198h-108l-69 121l-70 -121h-108z" />
<glyph unicode="&#x15d;" horiz-adv-x="453" d="M301 137q0 24 -22.5 38t-76.5 31q-77 24 -116 59t-39 101t51 106.5t134 40.5q82 0 151 -30v-107q-62 33 -129 36q-29 0 -49 -4q-46 -13 -46 -47q0 -23 21.5 -38t69.5 -29q87 -27 125 -62t38 -98q0 -70 -52.5 -108.5t-141.5 -38.5q-93 0 -167 33v109q84 -44 164 -44 q37 0 61 12.5t24 39.5zM71 562l104 171h117l102 -171h-105l-56 99l-56 -99h-106z" />
<glyph unicode="&#x15e;" horiz-adv-x="541" d="M511 189q0 -88 -58.5 -140t-163.5 -60l-15 -41q38 -2 68 -25t30 -63q0 -46 -35.5 -69.5t-91.5 -23.5q-49 0 -65 8v73q18 -7 44 -7q21 0 37 9t16 26q0 22 -25.5 30t-58.5 4l32 78q-103 6 -182 40v123q97 -49 192 -52q44 0 72 8q82 19 82 77q0 42 -33.5 69.5t-117.5 57.5 q-105 37 -153.5 86.5t-48.5 133.5q0 93 70 147.5t181 54.5q98 0 184 -36v-118q-77 43 -175 43q-62 0 -99.5 -24t-37.5 -65q0 -39 33 -67t115 -58q105 -39 154.5 -88t49.5 -131z" />
<glyph unicode="&#x15f;" horiz-adv-x="453" d="M301 137q0 24 -22.5 38t-76.5 31q-77 24 -116 59t-39 101t51 106.5t134 40.5q82 0 151 -30v-107q-62 33 -129 36q-29 0 -49 -4q-46 -13 -46 -47q0 -23 21.5 -38t69.5 -29q87 -27 125 -62t38 -98q0 -64 -44.5 -102t-122.5 -44l-15 -40q38 -2 68 -25t30 -63 q0 -46 -35.5 -69.5t-91.5 -23.5q-49 0 -65 8v73q17 -7 44 -7q21 0 37 9t16 26q0 22 -25.5 30t-58.5 4l32 79q-73 5 -130 31v109q84 -44 164 -44q37 0 61 12.5t24 39.5z" />
<glyph unicode="&#x160;" horiz-adv-x="541" d="M254 -13q-113 0 -211 41v123q97 -49 192 -52q44 0 72 8q82 19 82 77q0 42 -33.5 69.5t-117.5 57.5q-105 37 -153.5 86.5t-48.5 133.5q0 93 70 147.5t181 54.5q98 0 184 -36v-118q-77 43 -175 43q-62 0 -99.5 -24t-37.5 -65q0 -39 33 -67t115 -58q105 -39 154.5 -88 t49.5 -131q0 -95 -68 -148.5t-189 -53.5zM449 981l-121 -198h-113l-121 198h108l70 -121l69 121h108z" />
<glyph unicode="&#x161;" horiz-adv-x="453" d="M301 137q0 24 -22.5 38t-76.5 31q-77 24 -116 59t-39 101t51 106.5t134 40.5q82 0 151 -30v-107q-62 33 -129 36q-29 0 -49 -4q-46 -13 -46 -47q0 -23 21.5 -38t69.5 -29q87 -27 125 -62t38 -98q0 -70 -52.5 -108.5t-141.5 -38.5q-93 0 -167 33v109q84 -44 164 -44 q37 0 61 12.5t24 39.5zM389 733l-102 -171h-117l-104 171h106l56 -99l56 99h105z" />
<glyph unicode="&#x162;" horiz-adv-x="566" d="M556 614h-210v-614h-32l-20 -52q38 -2 68 -25t30 -63q0 -46 -35.5 -69.5t-91.5 -23.5q-49 0 -65 8v73q18 -7 44 -7q21 0 37 9t16 26q0 22 -25.5 30t-58.5 4l37 90h-30v614h-210v106h546v-106z" />
<glyph unicode="&#x163;" horiz-adv-x="379" d="M13 500h78v150h118v-150h142v-97h-142v-229q0 -83 69 -83q42 0 90 21v-102q-43 -22 -111 -23l-15 -39q38 -2 68 -25t30 -63q0 -46 -35.5 -69.5t-91.5 -23.5q-49 0 -65 8v73q17 -7 44 -7q21 0 37 9t16 26q0 22 -25.5 30t-58.5 4l34 84q-45 11 -73.5 45t-31.5 93 q0 8 -0.5 24.5t-0.5 25.5v221h-76v97z" />
<glyph unicode="&#x164;" horiz-adv-x="566" d="M556 614h-210v-614h-126v614h-210v106h546v-106zM460 981l-121 -198h-113l-121 198h108l70 -121l69 121h108z" />
<glyph unicode="&#x165;" horiz-adv-x="401" d="M267 558v288h112v-288h-112zM13 500h78v150h118v-150h142v-97h-142v-229q0 -83 69 -83q42 0 90 21v-102q-44 -23 -120 -23q-64 0 -109 35t-49 110q0 8 -0.5 24.5t-0.5 25.5v221h-76v97z" />
<glyph unicode="&#x166;" horiz-adv-x="566" d="M556 614h-210v-184h124v-81h-124v-349h-126v349h-124v81h124v184h-210v106h546v-106z" />
<glyph unicode="&#x167;" horiz-adv-x="379" d="M13 500h78v150h118v-150h142v-97h-142v-94h135v-81h-135v-54q0 -83 69 -83q42 0 90 21v-102q-44 -23 -120 -23q-64 0 -109 35t-49 110q0 8 -0.5 24.5t-0.5 25.5v46h-69v81h69v94h-76v97z" />
<glyph unicode="&#x168;" horiz-adv-x="727" d="M653 720v-463q0 -125 -77 -197.5t-213 -72.5q-135 0 -212 72.5t-77 197.5v463h125v-452q0 -78 43.5 -121.5t120.5 -43.5q78 0 121 43.5t43 121.5v452h126zM288 940q28 0 78 -18t74 -18q55 0 89 41v-97q-11 -15 -36 -27t-54 -12t-79.5 18t-74.5 18q-52 0 -89 -40v96 q11 16 36.5 27.5t55.5 11.5z" />
<glyph unicode="&#x169;" d="M533 0h-112l-3 63q0 21 4 37h-2q-18 -41 -66.5 -77t-111.5 -36q-172 0 -172 200v313h122v-292q0 -51 17 -80.5t64 -29.5q60 0 99.5 44t39.5 110v248h121v-500zM228 711q28 0 77 -17.5t73 -17.5q52 0 89 40v-94q-11 -15 -36 -27t-55 -12q-28 0 -77.5 18t-73.5 18 q-52 0 -89 -41v95q11 15 36.5 26.5t55.5 11.5z" />
<glyph unicode="&#x16a;" horiz-adv-x="727" d="M653 720v-463q0 -125 -77 -197.5t-213 -72.5q-135 0 -212 72.5t-77 197.5v463h125v-452q0 -78 43.5 -121.5t120.5 -43.5q78 0 121 43.5t43 121.5v452h126zM200 828v93h328v-93h-328z" />
<glyph unicode="&#x16b;" d="M533 0h-112l-3 63q0 21 4 37h-2q-18 -41 -66.5 -77t-111.5 -36q-172 0 -172 200v313h122v-292q0 -51 17 -80.5t64 -29.5q60 0 99.5 44t39.5 110v248h121v-500zM148 599v91h315v-91h-315z" />
<glyph unicode="&#x16c;" horiz-adv-x="727" d="M653 720v-463q0 -125 -77 -197.5t-213 -72.5q-135 0 -212 72.5t-77 197.5v463h125v-452q0 -78 43.5 -121.5t120.5 -43.5q78 0 121 43.5t43 121.5v452h126zM422 952h92q0 -74 -38 -117t-111 -43q-74 0 -112.5 43t-37.5 117h91q0 -35 15.5 -55t43.5 -20t43 20t14 55z" />
<glyph unicode="&#x16d;" d="M533 0h-112l-3 63q0 21 4 37h-2q-18 -41 -66.5 -77t-111.5 -36q-172 0 -172 200v313h122v-292q0 -51 17 -80.5t64 -29.5q60 0 99.5 44t39.5 110v248h121v-500zM354 725h91q1 -72 -36.5 -113.5t-108.5 -41.5t-108.5 41.5t-36.5 113.5h91q0 -33 14.5 -51.5t39.5 -18.5 q26 0 40.5 18.5t13.5 51.5z" />
<glyph unicode="&#x16e;" horiz-adv-x="727" d="M653 720v-463q0 -125 -77 -197.5t-213 -72.5q-135 0 -212 72.5t-77 197.5v463h125v-452q0 -78 43.5 -121.5t120.5 -43.5q78 0 121 43.5t43 121.5v452h126zM250 875q0 45 32.5 72.5t81.5 27.5q48 0 80.5 -27.5t32.5 -72.5q0 -46 -32.5 -73.5t-80.5 -27.5q-49 0 -81.5 27.5 t-32.5 73.5zM323 875q0 -18 11.5 -29.5t29.5 -11.5t29.5 11.5t11.5 29.5q0 17 -11.5 28t-29.5 11t-29.5 -11t-11.5 -28z" />
<glyph unicode="&#x16f;" d="M533 0h-112l-3 63q0 21 4 37h-2q-18 -41 -66.5 -77t-111.5 -36q-172 0 -172 200v313h122v-292q0 -51 17 -80.5t64 -29.5q60 0 99.5 44t39.5 110v248h121v-500zM184 644q0 46 32 72.5t82 26.5t81.5 -26.5t31.5 -72.5q0 -45 -31.5 -72t-81.5 -27t-82 27t-32 72zM268 672 q-11 -11 -11 -28t11 -27.5t30 -10.5t30 10.5t11 27.5t-11 28t-30 11t-30 -11z" />
<glyph unicode="&#x170;" horiz-adv-x="727" d="M653 720v-463q0 -125 -77 -197.5t-213 -72.5q-135 0 -212 72.5t-77 197.5v463h125v-452q0 -78 43.5 -121.5t120.5 -43.5q78 0 121 43.5t43 121.5v452h126zM210 782l75 185h136l-108 -185h-103zM389 782l103 185h143l-142 -185h-104z" />
<glyph unicode="&#x171;" d="M533 0h-112l-3 63q0 21 4 37h-2q-18 -41 -66.5 -77t-111.5 -36q-172 0 -172 200v313h122v-292q0 -51 17 -80.5t64 -29.5q60 0 99.5 44t39.5 110v248h121v-500zM152 562l75 171h136l-108 -171h-103zM331 562l103 171h143l-142 -171h-104z" />
<glyph unicode="&#x172;" horiz-adv-x="727" d="M653 720v-463q0 -98 -48.5 -165t-137.5 -92h1q-86 -55 -86 -112q0 -44 48 -44q23 0 49 10v-76q-33 -11 -66 -11q-54 0 -89.5 25t-35.5 74q0 65 88 121h-13q-135 0 -212 72.5t-77 197.5v463h125v-452q0 -78 43.5 -121.5t120.5 -43.5q78 0 121 43.5t43 121.5v452h126z" />
<glyph unicode="&#x173;" d="M533 500v-499l1 -1q-86 -55 -86 -112q0 -44 48 -44q23 0 49 10v-76q-33 -11 -66 -11q-54 0 -89.5 25t-35.5 74q0 74 110 134h-43l-3 63q0 21 4 37h-2q-18 -41 -66.5 -77t-111.5 -36q-172 0 -172 200v313h122v-292q0 -51 17 -80.5t64 -29.5q60 0 99.5 44t39.5 110v248h121 z" />
<glyph unicode="&#x174;" horiz-adv-x="1006" d="M5 720h138l106 -272q37 -96 65 -181q25 65 64 157l44 105l78 184h4q152 -353 186 -446q7 20 171 453h139l-307 -731h-4l-148 355q-36 89 -39 97l-38 -97l-149 -355h-4zM324 783l121 198h113l121 -198h-108l-69 121l-70 -121h-108z" />
<glyph unicode="&#x175;" horiz-adv-x="778" d="M424 495l60 -171q10 -30 53 -160q10 24 30 82t28 80l63 174h127l-209 -509h-75l-112 307l-112 -307h-75l-209 509h128q15 -44 57 -161.5t62 -174.5q42 119 114 331h70zM228 562l104 171h117l102 -171h-105l-56 99l-56 -99h-106z" />
<glyph unicode="&#x176;" horiz-adv-x="618" d="M-14 720h141l182 -318l183 318h141l-261 -438v-282h-126v282zM131 783l121 198h113l121 -198h-108l-69 121l-70 -121h-108z" />
<glyph unicode="&#x177;" horiz-adv-x="533" d="M6 -223v105q27 -8 57 -8q50 0 82 33t60 96l-207 497h133l64 -177q47 -127 72 -202q10 24 37.5 103.5t34.5 98.5l63 177h133l-195 -487q-44 -111 -95 -169t-122 -72q-31 -4 -61 -3q-36 0 -56 8zM105 562l104 171h117l102 -171h-105l-56 99l-56 -99h-106z" />
<glyph unicode="&#x178;" horiz-adv-x="618" d="M-14 720h141l182 -318l183 318h141l-261 -438v-282h-126v282zM153 825q-19 19 -19 50t19.5 49.5t51.5 18.5t51.5 -18.5t19.5 -49.5t-19.5 -50t-51.5 -19t-52 19zM361 825q-19 19 -19 50t19.5 49.5t51.5 18.5t51.5 -18.5t19.5 -49.5t-19.5 -50t-51.5 -19t-52 19z" />
<glyph unicode="&#x179;" horiz-adv-x="623" d="M30 0l368 614h-340v106h531l-367 -614h362v-106h-554zM241 782l99 201h153l-151 -201h-101z" />
<glyph unicode="&#x17a;" horiz-adv-x="478" d="M450 98v-98h-429l247 402h-227v98h409l-247 -402h247zM180 562l89 171h156l-136 -171h-109z" />
<glyph unicode="&#x17b;" horiz-adv-x="623" d="M30 0l368 614h-340v106h531l-367 -614h362v-106h-554zM260 825q-19 19 -19 50t19.5 49.5t51.5 18.5t51.5 -18.5t19.5 -49.5t-19.5 -50t-51.5 -19t-52 19z" />
<glyph unicode="&#x17c;" horiz-adv-x="478" d="M450 98v-98h-429l247 402h-227v98h409l-247 -402h247zM190 594q-19 19 -19 50t19.5 50t51.5 19t51.5 -19t19.5 -50t-19.5 -49.5t-51.5 -18.5t-52 18z" />
<glyph unicode="&#x17d;" horiz-adv-x="623" d="M30 0l368 614h-340v106h531l-367 -614h362v-106h-554zM494 981l-121 -198h-113l-121 198h108l70 -121l69 121h108z" />
<glyph unicode="&#x17e;" horiz-adv-x="478" d="M450 98v-98h-429l247 402h-227v98h409l-247 -402h247zM404 733l-102 -171h-117l-104 171h106l56 -99l56 99h105z" />
<glyph unicode="&#x192;" horiz-adv-x="514" d="M72 414h107q9 72 23 145q17 79 72 126.5t145 47.5q28 0 63 -7v-103q-16 6 -56 6q-43 0 -71 -25t-36 -71l-18 -119h121v-95h-135l-45 -293q-7 -47 -18 -96q-18 -77 -72.5 -120t-130.5 -43q-40 0 -63 7v102q20 -5 57 -5q38 0 63.5 25t32.5 71l53 352h-92v95z" />
<glyph unicode="&#x1fa;" horiz-adv-x="681" d="M-3 0l341 731h4l341 -731h-132l-64 143h-294l-64 -143h-132zM234 237h212q-65 147 -105 255q-83 -201 -107 -255zM228 859q0 44 31.5 70t79.5 26q49 0 80 -26t31 -70q0 -45 -31 -71t-80 -26q-48 0 -79.5 26t-31.5 71zM301 859q0 -17 10 -27t28 -10t28 10t10 27 q0 15 -10 25t-28 10t-28 -10t-10 -25zM351 1112h147l-108 -132h-108z" />
<glyph unicode="&#x1fb;" horiz-adv-x="535" d="M71 367v110q67 36 180 36q110 0 165.5 -50.5t55.5 -145.5v-317h-111l-2 52l2 38h-2q-12 -30 -55 -66.5t-109 -36.5q-69 0 -114 39.5t-45 109.5q0 92 85 134t230 22v19q0 98 -119 98q-94 0 -161 -42zM222 82q53 0 89.5 42t36.5 96q-97 16 -146 -6t-49 -68q0 -29 19 -46.5 t50 -17.5zM143 639q0 44 31 70t79 26q49 0 80 -26t31 -70q0 -45 -31 -71t-80 -26q-48 0 -79 26t-31 71zM215 639q0 -17 10 -27t28 -10t28.5 10t10.5 27q0 15 -10.5 25t-28.5 10t-28 -10t-10 -25zM264 892h147l-107 -132h-108z" />
<glyph unicode="&#x1fc;" horiz-adv-x="891" d="M540 0l-49 146h-287l-73 -146h-131l374 720h440v-106h-363l67 -198h281v-103h-245l70 -207h243v-106h-327zM375 503l-128 -265h214l-85 265h-1zM529 782l99 201h153l-151 -201h-101z" />
<glyph unicode="&#x1fd;" horiz-adv-x="832" d="M71 367v110q62 32 164 35q27 1 60 -2q82 -10 124 -60q63 63 157 63q103 0 161 -67.5t58 -166.5q0 -13 -1.5 -32t-1.5 -22h-336q3 -63 43 -98.5t107 -35.5q48 0 95.5 12.5t74.5 29.5v-107q-70 -39 -180 -39q-138 0 -211 99q-28 -37 -75.5 -68t-113.5 -31 q-69 0 -114.5 39.5t-45.5 109.5q0 90 82 132t224 25q3 26 12 47q-15 69 -120 69q-96 0 -163 -42zM224 82q42 0 75 26t47 66q-6 22 -6 49q-94 11 -140.5 -11t-46.5 -66q0 -29 19.5 -46.5t51.5 -17.5zM677 296q2 50 -25.5 84.5t-79.5 34.5q-51 0 -81.5 -34.5t-34.5 -84.5h221z M340 562l89 171h156l-136 -171h-109z" />
<glyph unicode="&#x1fe;" horiz-adv-x="818" d="M36 360q0 156 107 264.5t266 108.5q94 0 175 -42l66 99h87l-92 -139q64 -51 100.5 -127t36.5 -164q0 -158 -106.5 -265.5t-266.5 -107.5q-96 0 -177 42l-65 -99h-86l91 138q-64 51 -100 127t-36 165zM162 360q0 -117 77 -191l280 423q-52 25 -110 25q-107 0 -177 -74 t-70 -183zM655 360q0 116 -77 190l-280 -422q52 -25 111 -25q107 0 176.5 73.5t69.5 183.5zM333 782l99 201h153l-151 -201h-101z" />
<glyph unicode="&#x1ff;" horiz-adv-x="604" d="M302 513q61 0 112 -23l51 80h89l-76 -121q86 -75 86 -199q0 -114 -74 -188.5t-188 -74.5q-54 0 -103 19l-48 -76h-89l72 114q-94 75 -94 206q0 113 74.5 188t187.5 75zM156 250q0 -67 38 -111l163 259q-27 11 -55 11q-63 0 -104.5 -44.5t-41.5 -114.5zM302 91 q63 0 104.5 44.5t41.5 114.5q0 58 -31 102l-161 -254q20 -7 46 -7zM240 562l89 171h156l-136 -171h-109z" />
<glyph unicode="&#x218;" horiz-adv-x="541" d="M254 -13q-113 0 -211 41v123q97 -49 192 -52q44 0 72 8q82 19 82 77q0 42 -33.5 69.5t-117.5 57.5q-105 37 -153.5 86.5t-48.5 133.5q0 93 70 147.5t181 54.5q98 0 184 -36v-118q-77 43 -175 43q-62 0 -99.5 -24t-37.5 -65q0 -39 33 -67t115 -58q105 -39 154.5 -88 t49.5 -131q0 -95 -68 -148.5t-189 -53.5zM337 -56l-71 -177h-96l41 177h126z" />
<glyph unicode="&#x219;" horiz-adv-x="453" d="M301 137q0 24 -22.5 38t-76.5 31q-77 24 -116 59t-39 101t51 106.5t134 40.5q82 0 151 -30v-107q-62 33 -129 36q-29 0 -49 -4q-46 -13 -46 -47q0 -23 21.5 -38t69.5 -29q87 -27 125 -62t38 -98q0 -70 -52.5 -108.5t-141.5 -38.5q-93 0 -167 33v109q84 -44 164 -44 q37 0 61 12.5t24 39.5zM289 -56l-71 -177h-96l41 177h126z" />
<glyph unicode="&#x21a;" horiz-adv-x="566" d="M556 614h-210v-614h-126v614h-210v106h546v-106zM345 -56l-71 -177h-96l41 177h126z" />
<glyph unicode="&#x21b;" horiz-adv-x="379" d="M13 500h78v150h118v-150h142v-97h-142v-229q0 -83 69 -83q42 0 90 21v-102q-44 -23 -120 -23q-64 0 -109 35t-49 110q0 8 -0.5 24.5t-0.5 25.5v221h-76v97zM297 -56l-71 -177h-96l41 177h126z" />
<glyph unicode="&#x237;" horiz-adv-x="283" d="M202 500v-554q0 -86 -46 -132.5t-131 -46.5q-44 0 -62 9v106q12 -5 36 -5q38 0 59.5 23t21.5 66v534h122z" />
<glyph unicode="&#x2c6;" horiz-adv-x="408" d="M42 562l104 171h117l102 -171h-105l-56 99l-56 -99h-106z" />
<glyph unicode="&#x2c7;" horiz-adv-x="408" d="M365 733l-102 -171h-117l-104 171h106l56 -99l56 99h105z" />
<glyph unicode="&#x2d8;" horiz-adv-x="376" d="M242 725h91q1 -72 -36.5 -113.5t-108.5 -41.5t-108.5 41.5t-36.5 113.5h91q0 -33 14.5 -51.5t39.5 -18.5q26 0 40.5 18.5t13.5 51.5z" />
<glyph unicode="&#x2d9;" horiz-adv-x="226" d="M61 594q-19 19 -19 50t19.5 50t51.5 19t51.5 -19t19.5 -50t-19.5 -49.5t-51.5 -18.5t-52 18z" />
<glyph unicode="&#x2da;" horiz-adv-x="311" d="M42 644q0 46 32 72.5t82 26.5t81.5 -26.5t31.5 -72.5q0 -45 -31.5 -72t-81.5 -27t-82 27t-32 72zM126 672q-11 -11 -11 -28t11 -27.5t30 -10.5t30 10.5t11 27.5t-11 28t-30 11t-30 -11z" />
<glyph unicode="&#x2db;" horiz-adv-x="275" d="M206 25l16 -25q-86 -55 -86 -112q0 -44 48 -44q23 0 49 10v-76q-33 -11 -66 -11q-54 0 -89.5 25t-35.5 74q0 50 48.5 91t115.5 68z" />
<glyph unicode="&#x2dc;" horiz-adv-x="416" d="M134 711q28 0 77 -17.5t73 -17.5q52 0 89 40v-94q-11 -15 -36 -27t-55 -12q-28 0 -77.5 18t-73.5 18q-52 0 -89 -41v95q11 15 36.5 26.5t55.5 11.5z" />
<glyph unicode="&#x2dd;" horiz-adv-x="509" d="M42 562l75 171h136l-108 -171h-103zM221 562l103 171h143l-142 -171h-104z" />
<glyph unicode="&#x301;" horiz-adv-x="327" d="M116 697h147l-107 -132h-108z" />
<glyph unicode="&#x3c0;" horiz-adv-x="761" d="M72 400v100h612v-100h-98v-244q0 -69 66 -69q20 0 36 4v-95q-20 -9 -63 -9q-92 0 -123 54.5t-31 161.5v197h-185v-400h-115v400h-99z" />
<glyph unicode="&#x1e80;" horiz-adv-x="1006" d="M5 720h138l106 -272q37 -96 65 -181q25 65 64 157l44 105l78 184h4q152 -353 186 -446q7 20 171 453h139l-307 -731h-4l-148 355q-36 89 -39 97l-38 -97l-149 -355h-4zM453 983l99 -201h-101l-151 201h153z" />
<glyph unicode="&#x1e81;" horiz-adv-x="778" d="M424 495l60 -171q10 -30 53 -160q10 24 30 82t28 80l63 174h127l-209 -509h-75l-112 307l-112 -307h-75l-209 509h128q15 -44 57 -161.5t62 -174.5q42 119 114 331h70zM349 733l89 -171h-107l-138 171h156z" />
<glyph unicode="&#x1e82;" horiz-adv-x="1006" d="M5 720h138l106 -272q37 -96 65 -181q25 65 64 157l44 105l78 184h4q152 -353 186 -446q7 20 171 453h139l-307 -731h-4l-148 355q-36 89 -39 97l-38 -97l-149 -355h-4zM441 782l99 201h153l-151 -201h-101z" />
<glyph unicode="&#x1e83;" horiz-adv-x="778" d="M424 495l60 -171q10 -30 53 -160q10 24 30 82t28 80l63 174h127l-209 -509h-75l-112 307l-112 -307h-75l-209 509h128q15 -44 57 -161.5t62 -174.5q42 119 114 331h70zM335 562l89 171h156l-136 -171h-109z" />
<glyph unicode="&#x1e84;" horiz-adv-x="1006" d="M5 720h138l106 -272q37 -96 65 -181q25 65 64 157l44 105l78 184h4q152 -353 186 -446q7 20 171 453h139l-307 -731h-4l-148 355q-36 89 -39 97l-38 -97l-149 -355h-4zM554 825q-19 19 -19 50t19.5 49.5t51.5 18.5t51.5 -18.5t19.5 -49.5t-19.5 -50t-51.5 -19t-52 19z M346 825q-19 19 -19 50t19.5 49.5t51.5 18.5t51.5 -18.5t19.5 -49.5t-19.5 -50t-51.5 -19t-52 19z" />
<glyph unicode="&#x1e85;" horiz-adv-x="778" d="M424 495l60 -171q10 -30 53 -160q10 24 30 82t28 80l63 174h127l-209 -509h-75l-112 307l-112 -307h-75l-209 509h128q15 -44 57 -161.5t62 -174.5q42 119 114 331h70zM234 594q-19 19 -19 50t19.5 50t51.5 19t51.5 -19t19.5 -50t-19.5 -49.5t-51.5 -18.5t-52 18z M423 644q0 32 19 50.5t51 18.5t51.5 -19t19.5 -50t-19.5 -49.5t-51.5 -18.5t-51 18.5t-19 49.5z" />
<glyph unicode="&#x1e9e;" horiz-adv-x="671" d="M194 0h-122v484q0 102 73.5 175.5t206.5 73.5q89 0 159.5 -33t110.5 -72l-183 -251l43 -17q84 -31 128 -76t44 -116q0 -84 -59.5 -132.5t-166.5 -48.5q-94 0 -158 32v106q71 -34 138 -37q42 -2 69 7q61 17 61 73q0 40 -36 68t-106 53l-108 38l185 261q-42 34 -124 34 q-65 0 -110 -38.5t-45 -110.5v-473z" />
<glyph unicode="&#x1ef2;" horiz-adv-x="618" d="M-14 720h141l182 -318l183 318h141l-261 -438v-282h-126v282zM255 983l99 -201h-101l-151 201h153z" />
<glyph unicode="&#x1ef3;" horiz-adv-x="533" d="M6 -223v105q27 -8 57 -8q50 0 82 33t60 96l-207 497h133l64 -177q47 -127 72 -202q10 24 37.5 103.5t34.5 98.5l63 177h133l-195 -487q-44 -111 -95 -169t-122 -72q-31 -4 -61 -3q-36 0 -56 8zM233 733l89 -171h-107l-138 171h156z" />
<glyph unicode="&#x2000;" horiz-adv-x="556" />
<glyph unicode="&#x2001;" horiz-adv-x="1112" />
<glyph unicode="&#x2002;" horiz-adv-x="556" />
<glyph unicode="&#x2003;" horiz-adv-x="1112" />
<glyph unicode="&#x2004;" horiz-adv-x="370" />
<glyph unicode="&#x2005;" horiz-adv-x="278" />
<glyph unicode="&#x2006;" horiz-adv-x="185" />
<glyph unicode="&#x2007;" horiz-adv-x="185" />
<glyph unicode="&#x2008;" horiz-adv-x="139" />
<glyph unicode="&#x2009;" horiz-adv-x="222" />
<glyph unicode="&#x200a;" horiz-adv-x="61" />
<glyph unicode="&#x2010;" horiz-adv-x="395" d="M42 234v97h311v-97h-311z" />
<glyph unicode="&#x2011;" horiz-adv-x="395" d="M42 234v97h311v-97h-311z" />
<glyph unicode="&#x2012;" horiz-adv-x="395" d="M42 234v97h311v-97h-311z" />
<glyph unicode="&#x2013;" horiz-adv-x="586" d="M42 234v97h501v-97h-501z" />
<glyph unicode="&#x2014;" horiz-adv-x="810" d="M42 234v97h726v-97h-726z" />
<glyph unicode="&#x2018;" horiz-adv-x="215" d="M7 505l106 283h99l-77 -283h-128z" />
<glyph unicode="&#x2019;" horiz-adv-x="215" d="M210 788l-105 -283h-100l77 283h128z" />
<glyph unicode="&#x201a;" horiz-adv-x="215" d="M210 137l-105 -282h-100l77 282h128z" />
<glyph unicode="&#x201c;" horiz-adv-x="400" d="M192 505l106 283h99l-77 -283h-128zM7 505l106 283h99l-77 -283h-128z" />
<glyph unicode="&#x201d;" horiz-adv-x="402" d="M397 788l-105 -283h-100l77 283h128zM210 788l-105 -283h-100l77 283h128z" />
<glyph unicode="&#x201e;" horiz-adv-x="402" d="M397 137l-105 -282h-100l77 282h128zM210 137l-105 -282h-100l77 282h128z" />
<glyph unicode="&#x2020;" horiz-adv-x="580" d="M226 -67v493h-188v108h188v253h123v-253h193v-108h-193v-493h-123z" />
<glyph unicode="&#x2021;" horiz-adv-x="565" d="M221 239v242h-183v109h183v197h118v-197h188v-109h-188v-242h188v-109h-188v-197h-118v197h-183v109h183z" />
<glyph unicode="&#x2022;" horiz-adv-x="291" d="M42 359q0 46 28 73.5t75 27.5t75.5 -27.5t28.5 -73.5q0 -44 -29 -71.5t-75 -27.5t-74.5 27.5t-28.5 71.5z" />
<glyph unicode="&#x2026;" horiz-adv-x="689" d="M61 5q-19 19 -19 50t19.5 50t51.5 19t51.5 -19t19.5 -50t-19.5 -49.5t-51.5 -18.5t-52 18zM292 5q-19 19 -19 50t19.5 50t51.5 19t51.5 -19t19.5 -50t-19.5 -49.5t-51.5 -18.5t-52 18zM506 55q0 32 19 50.5t51 18.5t51.5 -19t19.5 -50t-19.5 -49.5t-51.5 -18.5t-51 18.5 t-19 49.5z" />
<glyph unicode="&#x202f;" horiz-adv-x="222" />
<glyph unicode="&#x2030;" horiz-adv-x="1081" d="M445 161q0 74 49.5 125t122.5 51q84 0 135 -70q49 70 133 70q73 0 123 -51t50 -125q0 -72 -50.5 -123t-122.5 -51q-83 0 -133 69q-51 -69 -135 -69q-72 0 -122 51t-50 123zM50 557q0 74 49.5 125t122.5 51t123 -51t50 -125q0 -73 -50 -123.5t-123 -50.5t-122.5 50.5 t-49.5 123.5zM526 161q0 -44 26 -72.5t65 -28.5t66 28.5t27 72.5q0 45 -26.5 74t-66.5 29q-39 0 -65 -29t-26 -74zM222 456q40 0 66.5 28.5t26.5 72.5q0 45 -27 74t-66 29t-65.5 -29.5t-26.5 -73.5t26.5 -72.5t65.5 -28.5zM793 161q0 -44 26.5 -72.5t65.5 -28.5t65.5 28.5 t26.5 72.5q0 45 -26.5 74t-65.5 29t-65.5 -29t-26.5 -74zM122 0l513 720h79l-513 -720h-79z" />
<glyph unicode="&#x2039;" horiz-adv-x="385" d="M343 500l-164 -250l164 -250h-133l-158 250l158 250h133z" />
<glyph unicode="&#x203a;" horiz-adv-x="385" d="M50 0l164 250l-164 250h133l158 -250l-158 -250h-133z" />
<glyph unicode="&#x2044;" horiz-adv-x="626" d="M17 0l513 720h79l-513 -720h-79z" />
<glyph unicode="&#x205f;" horiz-adv-x="278" />
<glyph unicode="&#x2070;" horiz-adv-x="403" d="M30 529q0 87 47.5 146t123.5 59q77 0 124.5 -58.5t47.5 -146.5t-47.5 -146t-124.5 -58t-124 58t-47 146zM201 408q37 0 59.5 33t22.5 88t-22.5 88.5t-59.5 33.5q-36 0 -58.5 -33.5t-22.5 -88.5t22.5 -88t58.5 -33z" />
<glyph unicode="&#x2074;" horiz-adv-x="347" d="M282 337h-78v79h-193l142 313h87l-113 -243h82v95h73v-95h53v-72h-53v-77z" />
<glyph unicode="&#x20a4;" horiz-adv-x="629" d="M482 249h-211v-31q0 -71 -32 -114h313v-104h-483q79 98 81 206q1 15 1 43h-91v73h91v76h-86v74h86v37q0 108 64.5 166t177.5 58q89 0 145 -26v-110q-58 29 -131 29q-65 0 -100.5 -33.5t-35.5 -94.5v-26h216v-74h-216v-76h211v-73z" />
<glyph unicode="&#x20ac;" horiz-adv-x="798" d="M618 398h-350q-2 -13 -2 -38q0 -26 2 -38h340v-73h-319q28 -67 87.5 -106.5t138.5 -39.5q108 0 206 51v-117q-88 -50 -212 -50q-129 0 -225 72t-130 190h-117v73h104q-2 12 -2 38q0 25 2 38h-94v74h108q33 117 130 189t227 72q114 0 204 -51v-117q-97 52 -198 52 q-80 0 -140 -39t-88 -106h328v-74z" />
<glyph unicode="&#x2122;" horiz-adv-x="660" d="M555 599l-85 -104l-84 105v-181h-74v301h62l96 -129l97 129h62v-301h-74v180zM276 649h-83v-230h-81v230h-81v71h245v-71z" />
<glyph unicode="&#x212e;" horiz-adv-x="1026" d="M926 342h-669q-6 0 -6 -5v-191q0 -13 9 -25q97 -94 254 -94q168 0 266 106h60q-56 -67 -141 -106t-186 -39q-175 0 -294 108t-119 263t121 264t292 109q170 0 291.5 -111.5t121.5 -266.5v-12zM774 385v190q0 13 -9 25q-96 93 -251 93q-156 0 -253 -93q-10 -13 -10 -28 v-187q0 -7 6 -7h514q3 0 3 7z" />
<glyph unicode="&#x2153;" horiz-adv-x="834" d="M62 720h164v-311h81v-73h-250v73h84v238h-79v73zM687 279q0 43 -70 43q-45 0 -92 -20v72q51 22 102 22q66 0 105 -30.5t39 -79.5q0 -29 -19.5 -52t-51.5 -36q77 -26 77 -96q0 -52 -41.5 -83.5t-108.5 -31.5q-62 0 -108 23v72q51 -21 103 -21q53 0 66 32q3 14 -4 24 q-2 23 -24 36t-62 13h-21v63h25q37 0 61 14t24 36zM113 0l513 720h79l-513 -720h-79z" />
<glyph unicode="&#x2154;" horiz-adv-x="884" d="M78 629v77q43 28 103 28q68 0 107 -36.5t39 -97.5q0 -25 -9 -49.5t-31 -54t-33.5 -42.5t-40.5 -44h134v-74h-290q53 57 75 81t54.5 63.5t44.5 64.5t12 46q0 30 -19.5 48.5t-52.5 18.5q-50 0 -93 -29zM737 279q0 43 -70 43q-44 0 -92 -20v72q51 22 102 22 q66 0 105.5 -30.5t39.5 -79.5q0 -59 -72 -88q77 -26 77 -96q0 -52 -41.5 -83.5t-108.5 -31.5q-62 0 -108 23v72q51 -21 103 -21q53 0 66 32q3 14 -4 24q-2 23 -24 36t-62 13h-21v63h25q37 0 61 14t24 36zM163 0l513 720h79l-513 -720h-79z" />
<glyph unicode="&#x2212;" horiz-adv-x="620" d="M88 312v96h445v-96h-445z" />
<glyph unicode="&#x2215;" horiz-adv-x="626" d="M17 0l513 720h79l-513 -720h-79z" />
<glyph unicode="&#x2219;" horiz-adv-x="226" d="M61 307q-19 19 -19 50t19.5 50t51.5 19t51.5 -19t19.5 -50t-19.5 -49.5t-51.5 -18.5t-52 18z" />
<glyph unicode="&#x2248;" horiz-adv-x="601" d="M88 385v92q17 17 50.5 28.5t70.5 11.5q33 0 91.5 -18t91.5 -18q70 0 119 40v-93q-42 -40 -121 -40q-33 0 -92 18.5t-91 18.5q-67 0 -119 -40zM91 200v92q17 17 50.5 29t69.5 12q33 0 92 -18.5t91 -18.5q69 0 120 40v-92q-18 -17 -51.5 -29t-69.5 -12q-34 0 -92.5 18.5 t-91.5 18.5q-68 0 -118 -40z" />
<glyph unicode="&#x2260;" horiz-adv-x="620" d="M88 411v98h263l83 172h48l-82 -172h133v-98h-175l-49 -102h224v-98h-265l-82 -172h-48l82 172h-132v98h173l49 102h-222z" />
<glyph unicode="&#x2264;" horiz-adv-x="595" d="M81 37v65h424v-65h-424zM55 430l450 276v-126l-251 -150l251 -148v-127z" />
<glyph unicode="&#x2265;" horiz-adv-x="595" d="M90 706l450 -276l-450 -275v127l252 148l-252 150v126zM514 102v-65h-424v65h424z" />
<glyph unicode="&#x25fc;" horiz-adv-x="500" d="M0 500h500v-500h-500v500z" />
<glyph unicode="&#xf6c3;" horiz-adv-x="251" d="M209 -56l-71 -177h-96l41 177h126z" />
<glyph horiz-adv-x="333" />
<glyph horiz-adv-x="687" d="M-1 0l290 720h109l291 -720h-132l-62 162h-303l-61 -162h-132zM231 262h226q-54 137 -113 299h-1q-45 -122 -112 -299z" />
<glyph horiz-adv-x="687" d="M-1 0l290 720h109l291 -720h-132l-62 162h-303l-61 -162h-132zM231 262h226q-54 137 -113 299h-1q-45 -122 -112 -299zM301 782l98 201h153l-151 -201h-100z" />
<glyph horiz-adv-x="687" d="M-1 0l290 720h109l291 -720h-132l-62 162h-303l-61 -162h-132zM231 262h226q-54 137 -113 299h-1q-45 -122 -112 -299zM403 952h91q1 -74 -37.5 -117t-111.5 -43t-111.5 43t-37.5 117h91q-1 -35 14.5 -55t43.5 -20t43 20t15 55z" />
<glyph horiz-adv-x="687" d="M-1 0l290 720h109l291 -720h-132l-62 162h-303l-61 -162h-132zM166 783l121 198h113l121 -198h-108l-69 121l-70 -121h-108zM231 262h226q-54 137 -113 299h-1q-45 -122 -112 -299z" />
<glyph horiz-adv-x="687" d="M-1 0l290 720h109l291 -720h-132l-62 162h-303l-61 -162h-132zM231 262h226q-54 137 -113 299h-1q-45 -122 -112 -299zM189 825q-19 19 -19 50t19.5 49.5t51.5 18.5t51.5 -18.5t19.5 -49.5t-19.5 -50t-51.5 -19t-52 19zM397 825q-19 19 -19 50t19.5 49.5t51.5 18.5 t51 -18.5t19 -49.5t-19 -50t-51 -19t-52 19z" />
<glyph horiz-adv-x="687" d="M-1 0l290 720h109l291 -720h-132l-62 162h-303l-61 -162h-132zM231 262h226q-54 137 -113 299h-1q-45 -122 -112 -299zM296 983l99 -201h-101l-150 201h152z" />
<glyph horiz-adv-x="687" d="M-1 0l290 720h109l291 -720h-132l-62 162h-303l-61 -162h-132zM231 262h226q-54 137 -113 299h-1q-45 -122 -112 -299zM181 828v93h327v-93h-327z" />
<glyph horiz-adv-x="687" d="M-1 0l290 720h109l291 -720h-8q-86 -55 -86 -112q0 -44 48 -44q23 0 49 10v-76q-33 -11 -66 -11q-54 0 -89 25t-35 74q0 74 109 134h-54l-62 162h-303l-61 -162h-132zM231 262h226q-54 137 -113 299h-1q-45 -122 -112 -299z" />
<glyph horiz-adv-x="687" d="M-1 0l290 720h109l291 -720h-132l-62 162h-303l-61 -162h-132zM231 875q0 45 32 72.5t81 27.5t81 -27.5t32 -72.5q0 -46 -32 -73.5t-81 -27.5t-81 27.5t-32 73.5zM231 262h226q-54 137 -113 299h-1q-45 -122 -112 -299zM304 875q0 -18 11 -29.5t29 -11.5q19 0 30 11.5 t11 29.5q0 17 -11 28t-30 11q-18 0 -29 -11t-11 -28z" />
<glyph horiz-adv-x="687" d="M-1 0l290 720h109l291 -720h-132l-62 162h-303l-61 -162h-132zM233 855q0 44 31.5 70t79.5 26q49 0 79.5 -26t30.5 -70q0 -45 -30.5 -71t-79.5 -26q-48 0 -79.5 26t-31.5 71zM231 262h226q-39 95 -113 299h-1q-45 -122 -112 -299zM356 1106h147l-107 -132h-109zM306 855 q0 -17 10 -27t28 -10q17 0 27.5 10t10.5 27q0 15 -10.5 25t-27.5 10q-18 0 -28 -10t-10 -25z" />
<glyph horiz-adv-x="687" d="M-1 0l290 720h109l291 -720h-132l-62 162h-303l-61 -162h-132zM231 262h226q-54 137 -113 299h-1q-45 -122 -112 -299zM269 940q28 0 78 -18t74 -18q55 0 89 41v-97q-11 -15 -36 -27t-54 -12t-79.5 18t-74.5 18q-52 0 -89 -40v96q11 16 36.5 27.5t55.5 11.5z" />
<glyph horiz-adv-x="298" d="M212 720v-741q0 -208 -193 -208q-64 0 -98 19v109q34 -19 80 -19q85 0 85 89v751h126z" />
<glyph horiz-adv-x="298" d="M212 720v-741q0 -208 -193 -208q-64 0 -98 19v109q34 -19 80 -19q85 0 85 89v751h126zM-28 783l120 198h114l120 -198h-107l-70 121l-70 -121h-107z" />
<glyph horiz-adv-x="708" d="M212 720v-362l311 362h151l-261 -295l108 -203q41 -77 58 -95q25 -26 59 -27q26 -3 51 3v-108q-34 -8 -66 -8q-66 0 -106.5 36.5t-91.5 131.5l-99 184l-114 -127v-212h-126v720h126z" />
<glyph horiz-adv-x="666" d="M212 720v-362l311 362h151l-255 -290q115 -310 294 -460t393 -150q81 0 141 12v-111q-50 -17 -145 -17q-118 0 -226 36t-208 111t-186 199.5t-151 292.5l-119 -134v-209h-126v720h126z" />
<glyph horiz-adv-x="631" d="M212 720v-362l311 362h151l-258 -292l58 -142q91 -224 203.5 -324.5t264.5 -100.5q79 0 139 16v-108q-52 -20 -144 -20q-185 0 -323 110.5t-242 366.5l-46 112l-114 -126v-212h-126v720h126z" />
<glyph horiz-adv-x="708" d="M212 720v-362l311 362h151l-261 -295l108 -203q41 -77 58 -95q25 -26 59 -27q26 -3 51 3v-108q-34 -8 -66 -8q-66 0 -106.5 36.5t-91.5 131.5l-99 184l-114 -127v-212h-126v720h126zM420 -56l-71 -177h-95l40 177h126z" />
<glyph horiz-adv-x="633" d="M212 720v-362l311 362h151l-255 -290q115 -310 294 -460t393 -150q81 0 141 12v-111q-50 -17 -145 -17q-118 0 -226 36t-208 111t-186 199.5t-151 292.5l-119 -134v-209h-126v720h126zM396 -56l-71 -177h-96l41 177h126z" />
<glyph horiz-adv-x="608" d="M212 720v-362l311 362h151l-258 -292l58 -142q91 -224 203.5 -324.5t264.5 -100.5q79 0 139 16v-108q-52 -20 -144 -20q-185 0 -323 110.5t-242 366.5l-46 112l-114 -126v-212h-126v720h126zM386 -56l-71 -177h-96l41 177h126z" />
<glyph horiz-adv-x="889" d="M444 175l-234 341v-516h-124v720h121l237 -356l239 356h120v-720h-123v516z" />
<glyph horiz-adv-x="783" d="M697 0h-114l-371 505v-505h-126v720h114l371 -510v510h126v-720z" />
<glyph horiz-adv-x="783" d="M697 0h-114l-371 505v-505h-126v720h114l371 -510v510h126v-720zM326 782l99 201h152l-150 -201h-101z" />
<glyph horiz-adv-x="783" d="M697 0h-114l-371 505v-505h-126v720h114l371 -510v510h126v-720zM564 981l-121 -198h-113l-121 198h108l69 -121l70 121h108z" />
<glyph horiz-adv-x="783" d="M697 0h-114l-371 505v-505h-126v720h114l371 -510v510h126v-720zM453 -56l-71 -177h-96l41 177h126z" />
<glyph horiz-adv-x="783" d="M697 0h-114l-371 505v-505h-126v720h114l371 -510v510h126v-720zM301 940q28 0 78.5 -18t74.5 -18q55 0 89 41v-97q-12 -16 -36.5 -27.5t-54.5 -11.5q-28 0 -78.5 18t-74.5 18q-52 0 -89 -40v96q11 15 36.5 27t54.5 12z" />
<glyph horiz-adv-x="833" d="M36 360q0 156 107 264.5t266 108.5q158 0 265.5 -107.5t107.5 -265.5q0 -97 -43 -178t-118 -130q257 -256 592 -256q154 0 276 61v-115q-36 -23 -120.5 -41.5t-158.5 -18.5q-379 0 -701 317q-55 -12 -100 -12q-159 0 -266 107.5t-107 265.5zM162 360q0 -110 70 -183.5 t177 -73.5t176.5 73.5t69.5 183.5t-69.5 183.5t-176.5 73.5t-177 -74t-70 -183z" />
<glyph horiz-adv-x="829" d="M36 360q0 156 107 264.5t266 108.5q158 0 265.5 -107.5t107.5 -265.5q0 -102 -46.5 -185.5t-127.5 -131.5q185 -203 435 -203q123 0 224 47v-114q-33 -18 -96 -33t-131 -15q-300 0 -548 271q-49 -9 -83 -9q-159 0 -266 107.5t-107 265.5zM162 360q0 -110 70 -183.5 t177 -73.5t176.5 73.5t69.5 183.5t-69.5 183.5t-176.5 73.5t-177 -74t-70 -183z" />
<glyph horiz-adv-x="640" d="M334 267h-124v-267h-124v720h242q124 0 195.5 -60t71.5 -169q0 -76 -41 -130t-106 -76l58 -135q24 -58 75 -58q18 0 34 4v-101q-30 -8 -62 -8q-57 0 -92.5 35.5t-73.5 124.5zM329 614h-119v-245h125q62 0 98 32t36 90q0 59 -37.5 91t-102.5 32z" />
<glyph horiz-adv-x="641" d="M86 720h242q124 0 195.5 -60t71.5 -169q0 -76 -41 -130t-105 -75q24 -50 56 -110q97 -184 245.5 -271.5t353.5 -87.5q87 0 164 21v-110q-62 -24 -172 -24q-485 0 -701 440q-46 95 -59 123h-126v-267h-124v720zM330 614h-120v-245h126q62 0 97.5 31.5t35.5 90.5t-37 91 t-102 32z" />
<glyph horiz-adv-x="618" d="M86 720h242q124 0 195.5 -60t71.5 -169q0 -73 -42.5 -127t-106.5 -77l39 -90q153 -337 454 -337q78 0 146 19v-108q-54 -24 -151 -24q-396 0 -569 439l-33 81h-122v-267h-124v720zM330 614h-120v-245h126q62 0 97.5 31.5t35.5 90.5t-37 91t-102 32z" />
<glyph horiz-adv-x="640" d="M334 267h-124v-267h-124v720h242q124 0 195.5 -60t71.5 -169q0 -76 -41 -130t-106 -76l58 -135q24 -58 75 -58q18 0 34 4v-101q-30 -8 -62 -8q-57 0 -92.5 35.5t-73.5 124.5zM329 614h-119v-245h125q62 0 98 32t36 90q0 59 -37.5 91t-102.5 32zM230 782l99 201h153 l-151 -201h-101z" />
<glyph horiz-adv-x="642" d="M86 720h242q124 0 195.5 -60t71.5 -169q0 -76 -41 -130t-105 -75q24 -50 56 -110q97 -184 245.5 -271.5t353.5 -87.5q87 0 164 21v-110q-62 -24 -172 -24q-485 0 -701 440q-46 95 -59 123h-126v-267h-124v720zM330 614h-120v-245h126q62 0 97.5 31.5t35.5 90.5t-37 91 t-102 32zM240 782l98 201h153l-150 -201h-101z" />
<glyph horiz-adv-x="618" d="M86 720h242q124 0 195.5 -60t71.5 -169q0 -73 -42.5 -127t-106.5 -77l39 -90q153 -337 454 -337q78 0 146 19v-108q-54 -24 -151 -24q-396 0 -569 439l-33 81h-122v-267h-124v720zM330 614h-120v-245h126q62 0 97.5 31.5t35.5 90.5t-37 91t-102 32zM240 782l98 201h153 l-150 -201h-101z" />
<glyph horiz-adv-x="640" d="M334 267h-124v-267h-124v720h242q124 0 195.5 -60t71.5 -169q0 -76 -41 -130t-106 -76l58 -135q24 -58 75 -58q18 0 34 4v-101q-30 -8 -62 -8q-57 0 -92.5 35.5t-73.5 124.5zM329 614h-119v-245h125q62 0 98 32t36 90q0 59 -37.5 91t-102.5 32zM481 981l-121 -198h-113 l-121 198h108l69 -121l70 121h108z" />
<glyph horiz-adv-x="642" d="M86 720h242q124 0 195.5 -60t71.5 -169q0 -76 -41 -130t-105 -75q24 -50 56 -110q97 -184 245.5 -271.5t353.5 -87.5q87 0 164 21v-110q-62 -24 -172 -24q-485 0 -701 440q-46 95 -59 123h-126v-267h-124v720zM330 614h-120v-245h126q62 0 97.5 31.5t35.5 90.5t-37 91 t-102 32zM478 981l-121 -198h-113l-121 198h107l70 -121l70 121h108z" />
<glyph horiz-adv-x="618" d="M86 720h242q124 0 195.5 -60t71.5 -169q0 -73 -42.5 -127t-106.5 -77l39 -90q153 -337 454 -337q78 0 146 19v-108q-54 -24 -151 -24q-396 0 -569 439l-33 81h-122v-267h-124v720zM330 614h-120v-245h126q62 0 97.5 31.5t35.5 90.5t-37 91t-102 32zM478 981l-121 -198 h-113l-121 198h107l70 -121l70 121h108z" />
<glyph horiz-adv-x="640" d="M334 267h-124v-267h-124v720h242q124 0 195.5 -60t71.5 -169q0 -76 -41 -130t-106 -76l58 -135q24 -58 75 -58q18 0 34 4v-101q-30 -8 -62 -8q-57 0 -92.5 35.5t-73.5 124.5zM329 614h-119v-245h125q62 0 98 32t36 90q0 59 -37.5 91t-102.5 32zM396 -56l-71 -177h-96 l41 177h126z" />
<glyph horiz-adv-x="642" d="M86 720h242q124 0 195.5 -60t71.5 -169q0 -76 -41 -130t-105 -75q24 -50 56 -110q97 -184 245.5 -271.5t353.5 -87.5q87 0 164 21v-110q-62 -24 -172 -24q-485 0 -701 440q-46 95 -59 123h-126v-267h-124v720zM330 614h-120v-245h126q62 0 97.5 31.5t35.5 90.5t-37 91 t-102 32zM376 -56l-71 -177h-96l41 177h126z" />
<glyph horiz-adv-x="618" d="M86 720h242q124 0 195.5 -60t71.5 -169q0 -73 -42.5 -127t-106.5 -77l39 -90q153 -337 454 -337q78 0 146 19v-108q-54 -24 -151 -24q-396 0 -569 439l-33 81h-122v-267h-124v720zM330 614h-120v-245h126q62 0 97.5 31.5t35.5 90.5t-37 91t-102 32zM368 -56l-71 -177h-96 l41 177h126z" />
<glyph horiz-adv-x="684" d="M342 175l204 545h140l-290 -720h-108l-289 720h139z" />
<glyph horiz-adv-x="1058" d="M750 192l170 528h139l-253 -720h-108l-173 487l-165 -487h-108l-253 720h139l170 -528h1l174 528h85l181 -528h1z" />
<glyph horiz-adv-x="1058" d="M750 192l170 528h139l-253 -720h-108l-173 487l-165 -487h-108l-253 720h139l170 -528h1l174 528h85l181 -528h1zM475 782l98 201h153l-151 -201h-100z" />
<glyph horiz-adv-x="1058" d="M750 192l170 528h139l-253 -720h-108l-173 487l-165 -487h-108l-253 720h139l170 -528h1l174 528h85l181 -528h1zM351 783l120 198h114l120 -198h-107l-70 121l-70 -121h-107z" />
<glyph horiz-adv-x="1058" d="M750 192l170 528h139l-253 -720h-108l-173 487l-165 -487h-108l-253 720h139l170 -528h1l174 528h85l181 -528h1zM562 875q0 31 19 49.5t51 18.5t51.5 -18.5t19.5 -49.5t-19.5 -50t-51.5 -19t-51 18.5t-19 50.5zM354 875q0 31 19 49.5t51 18.5t51.5 -18.5t19.5 -49.5 t-19.5 -50t-51.5 -19t-51 18.5t-19 50.5z" />
<glyph horiz-adv-x="1058" d="M750 192l170 528h139l-253 -720h-108l-173 487l-165 -487h-108l-253 720h139l170 -528h1l174 528h85l181 -528h1zM471 983l99 -201h-101l-150 201h152z" />
<glyph horiz-adv-x="576" d="M37 102l356 511h-336v107h472v-102l-355 -511h372v-107h-509v102z" />
<glyph horiz-adv-x="547" d="M1282 -142l1 -116q-43 -26 -120.5 -43t-160.5 -17q-86 0 -166 19.5t-158 61t-127.5 73.5t-130.5 92.5t-113 82.5q-72 51 -119 55l-49 -79h-122l381 627h-340v106h531l-341 -561q55 -9 130 -62q37 -24 106.5 -75.5t117.5 -83.5t115 -68t138.5 -54t149.5 -18q73 0 152 16.5 t125 43.5z" />
<glyph horiz-adv-x="547" d="M1282 -141l1 -116q-42 -27 -119.5 -43.5t-161.5 -16.5q-72 0 -144 16t-127 38.5t-120 61t-105.5 68t-103 75.5t-95.5 69q-72 51 -119 55l-49 -79h-122l400 626h-359v107h494v-101l-304 -460q55 -9 130 -62q36 -24 106 -75.5t117.5 -83t115 -67.5t139 -54t149.5 -18 q74 0 153 16.5t124 43.5z" />
<glyph horiz-adv-x="528" d="M1059 -111l1 -113q-37 -21 -101.5 -36t-127.5 -15q-58 0 -116.5 14.5t-102.5 34t-96.5 53.5t-83.5 58.5t-79 63.5t-69 55q-60 47 -102 54l-43 -71h-122l381 627h-340v106h531l-345 -567q45 -9 107 -56q28 -21 78.5 -63.5t88 -71t88.5 -60t108 -47.5t119 -16 q59 0 123 14.5t103 35.5z" />
<glyph horiz-adv-x="528" d="M1059 -111l1 -113q-37 -21 -101.5 -36t-127.5 -15q-58 0 -116.5 14.5t-102.5 34t-96.5 53.5t-83.5 58.5t-79 63.5t-69 55q-60 47 -102 54l-43 -71h-122l401 626h-360v107h494v-101l-308 -466q45 -9 107 -56q28 -21 78.5 -63.5t88 -71t88.5 -60t108 -47.5t119 -16 q59 0 123 14.5t103 35.5z" />
<glyph horiz-adv-x="581" d="M37 102l356 511h-336v107h472v-102l-355 -511h372v-107h-509v102zM233 782l99 201h153l-151 -201h-101z" />
<glyph horiz-adv-x="531" d="M1282 -142q0 -19 0.5 -57.5t0.5 -58.5q-43 -26 -120.5 -43t-160.5 -17q-72 0 -144 16.5t-126.5 38.5t-120 61t-105.5 68t-104 76t-95 69q-74 52 -119 55l-49 -79h-122l381 627h-340v106h531l-341 -561q55 -9 130 -62q37 -24 106.5 -75.5t117.5 -83.5t115 -68t138.5 -54 t149.5 -18q73 0 152 16.5t125 43.5zM245 782l99 201h153l-151 -201h-101z" />
<glyph horiz-adv-x="531" d="M1282 -141q0 -19 0.5 -58t0.5 -58q-42 -27 -119.5 -43.5t-161.5 -16.5q-72 0 -144 16.5t-126.5 38.5t-120.5 61t-105.5 67.5t-103.5 75.5t-95 69q-74 52 -119 55l-49 -79h-122l400 626h-359v107h494v-101l-304 -460q55 -9 130 -62q36 -24 106 -75.5t117.5 -83t115 -67.5 t139 -54t149.5 -18q74 0 153 16.5t124 43.5zM240 782l99 201h152l-150 -201h-101z" />
<glyph horiz-adv-x="530" d="M1059 -111q0 -19 0.5 -56.5t0.5 -56.5q-37 -21 -101.5 -36t-127.5 -15q-58 0 -116.5 14.5t-102.5 34t-96.5 53.5t-83.5 58.5t-79 63.5t-69 55q-65 47 -102 54l-43 -71h-122l381 627h-340v106h531l-345 -567q41 -8 107 -56q28 -21 78.5 -64t88 -71t88.5 -59.5t108 -47.5 t119 -16q60 0 123.5 14.5t102.5 35.5zM245 782l99 201h153l-151 -201h-101z" />
<glyph horiz-adv-x="530" d="M1059 -111q0 -19 0.5 -56.5t0.5 -56.5q-37 -21 -101.5 -36t-127.5 -15q-58 0 -116.5 14.5t-102.5 34t-96.5 53.5t-83.5 58.5t-79 63.5t-69 55q-65 47 -102 54l-43 -71h-122l401 626h-360v107h494v-101l-308 -466q41 -8 107 -56q28 -21 78.5 -64t88 -71t88.5 -59.5 t108 -47.5t119 -16q59 0 123 14.5t103 35.5zM240 782l99 201h152l-150 -201h-101z" />
<glyph horiz-adv-x="578" d="M37 102l356 511h-336v107h472v-102l-355 -511h372v-107h-509v102zM476 981l-120 -198h-114l-121 198h108l70 -121l70 121h107z" />
<glyph horiz-adv-x="531" d="M1282 -142q0 -19 0.5 -57.5t0.5 -58.5q-43 -26 -120.5 -43t-160.5 -17q-72 0 -144 16.5t-126.5 38.5t-120 61t-105.5 68t-104 76t-95 69q-74 52 -119 55l-49 -79h-122l381 627h-340v106h531l-341 -561q55 -9 130 -62q37 -24 106.5 -75.5t117.5 -83.5t115 -68t138.5 -54 t149.5 -18q73 0 152 16.5t125 43.5zM493 981l-121 -198h-113l-121 198h108l70 -121l69 121h108z" />
<glyph horiz-adv-x="531" d="M1282 -141q0 -19 0.5 -58t0.5 -58q-42 -27 -119.5 -43.5t-161.5 -16.5q-72 0 -144 16.5t-126.5 38.5t-120.5 61t-105.5 67.5t-103.5 75.5t-95 69q-74 52 -119 55l-49 -79h-122l400 626h-359v107h494v-101l-304 -460q55 -9 130 -62q36 -24 106 -75.5t117.5 -83t115 -67.5 t139 -54t149.5 -18q74 0 153 16.5t124 43.5zM488 981l-121 -198h-113l-121 198h108l70 -121l69 121h108z" />
<glyph horiz-adv-x="530" d="M1059 -111q0 -19 0.5 -56.5t0.5 -56.5q-37 -21 -101.5 -36t-127.5 -15q-58 0 -116.5 14.5t-102.5 34t-96.5 53.5t-83.5 58.5t-79 63.5t-69 55q-65 47 -102 54l-43 -71h-122l381 627h-340v106h531l-345 -567q41 -8 107 -56q28 -21 78.5 -64t88 -71t88.5 -59.5t108 -47.5 t119 -16q60 0 123.5 14.5t102.5 35.5zM493 981l-121 -198h-113l-121 198h108l70 -121l69 121h108z" />
<glyph horiz-adv-x="530" d="M1059 -111q0 -19 0.5 -56.5t0.5 -56.5q-37 -21 -101.5 -36t-127.5 -15q-58 0 -116.5 14.5t-102.5 34t-96.5 53.5t-83.5 58.5t-79 63.5t-69 55q-65 47 -102 54l-43 -71h-122l401 626h-360v107h494v-101l-308 -466q41 -8 107 -56q28 -21 78.5 -64t88 -71t88.5 -59.5 t108 -47.5t119 -16q59 0 123 14.5t103 35.5zM488 981l-121 -198h-113l-121 198h108l70 -121l69 121h108z" />
<glyph horiz-adv-x="576" d="M37 102l356 511h-336v107h472v-102l-355 -511h372v-107h-509v102zM237 825q-19 19 -19 50t19.5 49.5t51.5 18.5t51.5 -18.5t19.5 -49.5t-19.5 -50t-51.5 -19t-52 19z" />
<glyph horiz-adv-x="531" d="M1282 -142l1 -116q-43 -26 -120.5 -43t-160.5 -17q-86 0 -166 19.5t-158 61t-127.5 73.5t-130.5 92.5t-113 82.5q-72 51 -119 55l-49 -79h-122l381 627h-340v106h531l-341 -561q55 -9 130 -62q37 -24 106.5 -75.5t117.5 -83.5t115 -68t138.5 -54t149.5 -18q73 0 152 16.5 t125 43.5zM246 875q0 31 19 49.5t51 18.5t51.5 -18.5t19.5 -49.5t-19.5 -50t-51.5 -19t-51 18.5t-19 50.5z" />
<glyph horiz-adv-x="531" d="M1282 -141l1 -116q-42 -27 -119.5 -43.5t-161.5 -16.5q-72 0 -144 16t-127 38.5t-120 61t-105.5 68t-103 75.5t-95.5 69q-72 51 -119 55l-49 -79h-122l400 626h-359v107h494v-101l-304 -460q55 -9 130 -62q36 -24 106 -75.5t117.5 -83t115 -67.5t139 -54t149.5 -18 q74 0 153 16.5t124 43.5zM257 825q-19 19 -19 50t19.5 49.5t51.5 18.5t51 -18.5t19 -49.5t-19 -50t-51 -19t-52 19z" />
<glyph horiz-adv-x="530" d="M1059 -111l1 -113q-37 -21 -101.5 -36t-127.5 -15q-58 0 -116.5 14.5t-102.5 34t-96.5 53.5t-83.5 58.5t-79 63.5t-69 55q-60 47 -102 54l-43 -71h-122l381 627h-340v106h531l-345 -567q45 -9 107 -56q28 -21 78.5 -63.5t88 -71t88.5 -60t108 -47.5t119 -16 q59 0 123 14.5t103 35.5zM246 875q0 31 19 49.5t51 18.5t51.5 -18.5t19.5 -49.5t-19.5 -50t-51.5 -19t-51 18.5t-19 50.5z" />
<glyph horiz-adv-x="530" d="M1059 -111l1 -113q-37 -21 -101.5 -36t-127.5 -15q-58 0 -116.5 14.5t-102.5 34t-96.5 53.5t-83.5 58.5t-79 63.5t-69 55q-60 47 -102 54l-43 -71h-122l401 626h-360v107h494v-101l-308 -466q45 -9 107 -56q28 -21 78.5 -63.5t88 -71t88.5 -60t108 -47.5t119 -16 q59 0 123 14.5t103 35.5zM257 825q-19 19 -19 50t19.5 49.5t51.5 18.5t51 -18.5t19 -49.5t-19 -50t-51 -19t-52 19z" />
<glyph horiz-adv-x="636" d="M293 409q-61 0 -99 -44t-38 -115q0 -70 38 -114.5t99 -44.5q55 0 96.5 41.5t41.5 117.5t-41.5 117.5t-96.5 41.5zM556 500v-500h-112l-2 52l2 35h-2q-19 -42 -66.5 -71t-104.5 -29q-99 0 -165 73t-66 190q0 118 66 190.5t165 72.5q56 0 104 -28t67 -67h2l-2 35l2 47h112z " />
<glyph horiz-adv-x="640" d="M559 500v-500h-112l-2 52l2 35h-2q-19 -42 -66.5 -71t-104.5 -29q-99 0 -165 73t-66 190q0 118 66 190.5t165 72.5q56 0 104 -28t67 -67h2l-2 35l2 47h112zM296 409q-61 0 -99 -44t-38 -115q0 -70 38 -114.5t99 -44.5q55 0 96.5 41.5t41.5 117.5t-41.5 117.5t-96.5 41.5z M223 562l89 171h156l-136 -171h-109z" />
<glyph horiz-adv-x="640" d="M559 500v-500h-112l-2 52l2 35h-2q-19 -42 -66.5 -71t-104.5 -29q-99 0 -165 73t-66 190q0 118 66 190.5t165 72.5q56 0 104 -28t67 -67h2l-2 35l2 47h112zM296 409q-61 0 -99 -44t-38 -115q0 -70 38 -114.5t99 -44.5q55 0 96.5 41.5t41.5 117.5t-41.5 117.5t-96.5 41.5z M339 725h90q1 -72 -36.5 -113.5t-108.5 -41.5t-108.5 41.5t-35.5 113.5h90q0 -33 14.5 -51.5t39.5 -18.5q26 0 40.5 18.5t14.5 51.5z" />
<glyph horiz-adv-x="640" d="M559 500v-500h-112l-2 52l2 35h-2q-19 -42 -66.5 -71t-104.5 -29q-99 0 -165 73t-66 190q0 118 66 190.5t165 72.5q56 0 104 -28t67 -67h2l-2 35l2 47h112zM296 409q-61 0 -99 -44t-38 -115q0 -70 38 -114.5t99 -44.5q55 0 96.5 41.5t41.5 117.5t-41.5 117.5t-96.5 41.5z M132 562l103 171h117l103 -171h-106l-55 99l-57 -99h-105z" />
<glyph horiz-adv-x="336" d="M42 562l99 201h153l-151 -201h-101z" />
<glyph horiz-adv-x="323" d="M115 697h147l-108 -132h-108z" />
<glyph horiz-adv-x="640" d="M559 500v-500h-112l-2 52l2 35h-2q-19 -42 -66.5 -71t-104.5 -29q-99 0 -165 73t-66 190q0 118 66 190.5t165 72.5q56 0 104 -28t67 -67h2l-2 35l2 47h112zM296 409q-61 0 -99 -44t-38 -115q0 -70 38 -114.5t99 -44.5q55 0 96.5 41.5t41.5 117.5t-41.5 117.5t-96.5 41.5z M134 594q-19 19 -19 50t19.5 50t51.5 19t51 -19t19 -50t-19 -49.5t-51 -18.5t-52 18zM341 594q-19 19 -19 50t19 50t51 19t51.5 -19t19.5 -50t-19.5 -49.5t-51.5 -18.5t-51 18z" />
<glyph horiz-adv-x="640" d="M559 500v-500h-112l-2 52l2 35h-2q-19 -42 -66.5 -71t-104.5 -29q-99 0 -165 73t-66 190q0 118 66 190.5t165 72.5q56 0 104 -28t67 -67h2l-2 35l2 47h112zM296 409q-61 0 -99 -44t-38 -115q0 -70 38 -114.5t99 -44.5q55 0 96.5 41.5t41.5 117.5t-41.5 117.5t-96.5 41.5z M269 733l89 -171h-108l-137 171h156z" />
<glyph horiz-adv-x="640" d="M559 500v-500h-112l-2 52l2 35h-2q-19 -42 -66.5 -71t-104.5 -29q-99 0 -165 73t-66 190q0 118 66 190.5t165 72.5q56 0 104 -28t67 -67h2l-2 35l2 47h112zM296 409q-61 0 -99 -44t-38 -115q0 -70 38 -114.5t99 -44.5q55 0 96.5 41.5t41.5 117.5t-41.5 117.5t-96.5 41.5z M126 599v91h315v-91h-315z" />
<glyph horiz-adv-x="729" d="M506 371h106q13 -136 -52 -237q24 -22 47 -33t34.5 -12.5t30.5 -1.5q24 -1 44 6v-96q-30 -10 -63 -10q-83 0 -163 69q-81 -69 -202 -69t-190 56t-69 141q0 116 146 194q-41 45 -61 84.5t-20 92.5q0 69 51 120.5t128 55.5q28 1 58 -5q65 -13 108 -59.5t43 -104.5 q0 -129 -151 -203l146 -151q37 78 29 163zM414 131l-177 182q-93 -49 -93 -119q0 -48 40 -78.5t105 -30.5q73 0 125 46zM200 551q0 -33 15.5 -60.5t50.5 -64.5q111 57 111 125q0 35 -26 59.5t-62 24.5q-37 0 -63 -24.5t-26 -59.5z" />
<glyph horiz-adv-x="640" d="M559 500v-500q-86 -55 -86 -112q0 -44 48 -44q23 0 49 10v-76q-33 -11 -66 -11q-54 0 -89.5 25t-35.5 74q0 74 109 134h-41l-2 52l2 35h-2q-19 -42 -66.5 -71t-104.5 -29q-99 0 -165 73t-66 190q0 118 66 190.5t165 72.5q56 0 104 -28t67 -67h2l-2 35l2 47h112zM296 409 q-61 0 -99 -44t-38 -115q0 -70 38 -114.5t99 -44.5q55 0 96.5 41.5t41.5 117.5t-41.5 117.5t-96.5 41.5z" />
<glyph horiz-adv-x="640" d="M559 500v-500h-112l-2 52l2 35h-2q-19 -42 -66.5 -71t-104.5 -29q-99 0 -165 73t-66 190q0 118 66 190.5t165 72.5q56 0 104 -28t67 -67h2l-2 35l2 47h112zM296 409q-61 0 -99 -44t-38 -115q0 -70 38 -114.5t99 -44.5q55 0 96.5 41.5t41.5 117.5t-41.5 117.5t-96.5 41.5z M177 644q0 46 32 72.5t82 26.5q49 0 80.5 -26.5t31.5 -72.5q0 -45 -31.5 -72t-80.5 -27q-50 0 -82 27t-32 72zM250 644q0 -17 11 -27.5t30 -10.5q18 0 29 10.5t11 27.5q0 18 -10.5 28.5t-29.5 10.5t-30 -10.5t-11 -28.5z" />
<glyph horiz-adv-x="640" d="M559 500v-500h-112l-2 52l2 35h-2q-19 -42 -66.5 -71t-104.5 -29q-99 0 -165 73t-66 190q0 118 66 190.5t165 72.5q56 0 104 -28t67 -67h2l-2 35l2 47h112zM296 409q-61 0 -99 -44t-38 -115q0 -70 38 -114.5t99 -44.5q55 0 96.5 41.5t41.5 117.5t-41.5 117.5t-96.5 41.5z M182 638q0 45 31 71t80 26q48 0 79 -26t31 -71q0 -44 -31 -70t-79 -26q-49 0 -80 26t-31 70zM293 602q17 0 27.5 10t10.5 26t-10.5 26t-27.5 10q-38 0 -38 -36t38 -36zM299 891h147l-107 -132h-108z" />
<glyph horiz-adv-x="601" d="M551 327h-128l-122 269l-124 -270h-127l193 403h115z" />
<glyph horiz-adv-x="640" d="M559 500v-500h-112l-2 52l2 35h-2q-19 -42 -66.5 -71t-104.5 -29q-99 0 -165 73t-66 190q0 118 66 190.5t165 72.5q56 0 104 -28t67 -67h2l-2 35l2 47h112zM296 409q-61 0 -99 -44t-38 -115q0 -70 38 -114.5t99 -44.5q55 0 96.5 41.5t41.5 117.5t-41.5 117.5t-96.5 41.5z M215 711q28 0 77.5 -17.5t73.5 -17.5q51 0 88 40v-94q-11 -15 -36 -27t-55 -12q-28 0 -77.5 18t-72.5 18q-52 0 -89 -41v95q11 15 36 26.5t55 11.5z" />
<glyph horiz-adv-x="406" d="M261 732h92q0 -74 -38 -117t-111 -43q-74 0 -112.5 43t-37.5 117h91q0 -35 15.5 -55t43.5 -20t43 20t14 55z" />
<glyph horiz-adv-x="439" d="M397 761l-121 -198h-113l-121 198h108l70 -121l69 121h108z" />
<glyph horiz-adv-x="439" d="M42 563l121 198h113l121 -198h-108l-69 121l-70 -121h-108z" />
<glyph horiz-adv-x="434" d="M61 605q-19 19 -19 50t19.5 49.5t51.5 18.5t51.5 -18.5t19.5 -49.5t-19.5 -50t-51.5 -19t-52 19zM269 605q-19 19 -19 50t19.5 49.5t51.5 18.5t51.5 -18.5t19.5 -49.5t-19.5 -50t-51.5 -19t-52 19z" />
<glyph horiz-adv-x="226" d="M61 605q-19 19 -19 50t19.5 49.5t51.5 18.5t51.5 -18.5t19.5 -49.5t-19.5 -50t-51.5 -19t-52 19z" />
<glyph horiz-adv-x="350" d="M26 500h73v50q0 84 51 133.5t143 49.5q40 0 64 -6v-104q-24 6 -51 6q-44 0 -69 -23.5t-25 -67.5v-38h125v-97h-120v-623h-122v623h-69v97z" />
<glyph horiz-adv-x="1128" d="M292 267v170h32l4 -11l4 3q8 11 28 11q24 0 37.5 -17t13.5 -46t-16 -47t-43 -18q-12 0 -20 5v-50h-40zM780 267v170h32l4 -11l3 3q11 11 30 11q23 0 36.5 -17t13.5 -46t-16 -47t-43 -18q-11 0 -21 5v-50h-39zM491 440q30 0 46.5 -17t16.5 -46q0 -30 -17 -47.5t-47 -17.5 q-29 0 -45 17t-16 46q0 30 16.5 47.5t45.5 17.5zM679 322l-44 115h44l25 -84h1l20 84h43l-39 -125q-18 -50 -61 -50q-16 0 -30 7l5 28q1 0 4 -0.5t8 -1.5t10 -1q15 0 18 15zM100 461v35h144v-35h-55v-147h-39v147h-50zM528 461v35h139v-35h-50v-147h-39v147h-50zM1024 368 h-68q3 -24 27 -24q15 0 34 7l8 -29q-17 -10 -46 -10q-30 0 -46.5 17t-16.5 46q0 30 16.5 47.5t46.5 17.5q23 0 36 -13t13 -33q0 -14 -4 -26zM221 314v123h40v-123h-40zM881 181q0 30 29 30q12 0 20.5 -8.5t8.5 -21.5t-8.5 -22t-21.5 -9q-12 0 -20 9t-8 22zM535 181 q0 30 29 30q13 0 20.5 -8t7.5 -22q0 -13 -7.5 -22t-21.5 -9q-12 0 -20 9t-8 22zM469 377q0 -37 22 -37t22 35q0 37 -22 37t-22 -35zM819 403v-57q8 -4 16 -4q23 0 23 33q0 34 -23 34q-8 0 -16 -6zM332 403v-57q4 -4 15 -4q23 0 23 33q0 34 -22 34q-10 0 -16 -6zM933 180 q0 27 -24 27q-23 0 -23 -26t24 -26q10 0 16.5 6.5t6.5 18.5zM587 180q0 27 -24 27q-22 0 -22 -26t23 -26t23 25zM710 152h-5v58h18q21 0 21 -17q0 -18 -21 -18h-13v-23zM493 152h-5v58h18q21 0 21 -17q0 -18 -22 -18h-12v-23zM159 208h4l19 -50l18 52h6l-21 -58h-6l-18 49 l-19 -49h-5l-21 58h6l18 -52zM342 208h5l18 -50l19 52h5l-21 -58h-6l-18 49l-18 -49h-5l-21 58h6l18 -52zM953 152v58h7l25 -44l23 44h8v-58h-5v53l-24 -45h-4l-24 45v-53h-6zM250 208h5l19 -50l17 52h6l-21 -58h-5l-19 49l-17 -49h-5l-21 58h4l19 -52zM505 207h-12v-28h13 q16 0 16 13q0 15 -17 15zM723 207h-13v-28h13q15 0 15 13q0 15 -15 15zM956 389h34q5 23 -14 23q-17 0 -20 -23zM791 210v-3h-30v-24h29v-4h-29v-23h31v-4h-36v58h35zM857 211q9 0 13 -3v-1q-1 -1 -1 -2q-6 2 -13 2q-23 0 -23 -26t26 -26q8 0 12 2l2 -4q-12 -3 -15 -3 q-14 0 -22.5 9t-8.5 22q0 30 30 30zM666 152v22l-22 36h5l20 -32l20 32h5l-23 -36v-22h-5zM408 207v3h44v-3h-19v-55h-5v55h-20zM597 207v3h44v-3h-19v-55h-5v55h-20zM463 152v58h6v-58h-6zM814 155q0 -5 -4 -5t-4 5q0 4 4 4t4 -4zM396 159q2 0 2 -4q0 -5 -3 -5q-4 0 -4 5 q0 4 5 4z" />
<glyph horiz-adv-x="573" d="M460 0h-110v147h-326v99l229 474h130l-232 -468h201v195h108v-195h95v-105h-95v-147z" />
<glyph horiz-adv-x="345" d="M280 337h-78v72h-181v60l129 260h88l-124 -250h93v102h73v-102h52v-72h-52v-70z" />
<glyph horiz-adv-x="636" d="M96 -192v112q75 -44 174 -44q76 0 121.5 36t45.5 102q0 59 2 60h-1q-22 -37 -67 -62t-101 -25q-98 0 -164 72.5t-66 190.5q0 117 66.5 190t166.5 73q56 0 103 -28t66 -67h2v4q-1 4 -1.5 13t-0.5 18l2 47h112v-443q0 -39 -1 -58q-4 -114 -78.5 -173t-195.5 -59 q-115 0 -185 41zM293 91q55 0 96.5 41.5t41.5 117.5t-41.5 117.5t-96.5 41.5q-61 0 -99 -44.5t-38 -114.5q0 -71 38 -115t99 -44z" />
<glyph horiz-adv-x="638" d="M97 -192v112q77 -44 174 -44q77 0 122.5 36t45.5 102q0 64 2 60h-2q-22 -37 -67 -62t-101 -25q-98 0 -163.5 72.5t-65.5 190.5q0 117 66.5 190t165.5 73q56 0 103 -28t67 -67h2v4q-1 4 -2 13t-1 18l3 47h111v-443q0 -39 -1 -58q-4 -114 -78 -173t-196 -59q-115 0 -185 41 zM294 91q56 0 97.5 41.5t41.5 117.5t-41.5 117.5t-97.5 41.5q-60 0 -98 -44.5t-38 -114.5t38 -114.5t98 -44.5zM339 725h91q1 -72 -36.5 -113.5t-108.5 -41.5t-108.5 41.5t-36.5 113.5h91q0 -33 14.5 -51.5t39.5 -18.5q26 0 40.5 18.5t13.5 51.5z" />
<glyph horiz-adv-x="638" d="M97 -192v112q77 -44 174 -44q77 0 122.5 36t45.5 102q0 64 2 60h-2q-22 -37 -67 -62t-101 -25q-98 0 -163.5 72.5t-65.5 190.5q0 117 66.5 190t165.5 73q56 0 103 -28t67 -67h2v4q-1 4 -2 13t-1 18l3 47h111v-443q0 -39 -1 -58q-4 -114 -78 -173t-196 -59q-115 0 -185 41 zM294 91q56 0 97.5 41.5t41.5 117.5t-41.5 117.5t-97.5 41.5q-60 0 -98 -44.5t-38 -114.5t38 -114.5t98 -44.5zM126 562l104 171h116l103 -171h-105l-56 99l-56 -99h-106z" />
<glyph horiz-adv-x="638" d="M97 -192v112q77 -44 174 -44q77 0 122.5 36t45.5 102q0 64 2 60h-2q-22 -37 -67 -62t-101 -25q-98 0 -163.5 72.5t-65.5 190.5q0 117 66.5 190t165.5 73q56 0 103 -28t67 -67h2v4q-1 4 -2 13t-1 18l3 47h111v-443q0 -39 -1 -58q-4 -114 -78 -173t-196 -59q-115 0 -185 41 zM294 91q56 0 97.5 41.5t41.5 117.5t-41.5 117.5t-97.5 41.5q-60 0 -98 -44.5t-38 -114.5t38 -114.5t98 -44.5zM217 559l71 177h96l-40 -177h-127z" />
<glyph horiz-adv-x="638" d="M97 -192v112q77 -44 174 -44q77 0 122.5 36t45.5 102q0 64 2 60h-2q-22 -37 -67 -62t-101 -25q-98 0 -163.5 72.5t-65.5 190.5q0 117 66.5 190t165.5 73q56 0 103 -28t67 -67h2v4q-1 4 -2 13t-1 18l3 47h111v-443q0 -39 -1 -58q-4 -114 -78 -173t-196 -59q-115 0 -185 41 zM294 91q56 0 97.5 41.5t41.5 117.5t-41.5 117.5t-97.5 41.5q-60 0 -98 -44.5t-38 -114.5t38 -114.5t98 -44.5zM240 594q-19 19 -19 50t19.5 50t51.5 19t51.5 -19t19.5 -50t-19.5 -49.5t-51.5 -18.5t-52 18z" />
<glyph horiz-adv-x="640" d="M200 -220h-120v719q0 41 14.5 80.5t43.5 75t80.5 57t118.5 21.5q90 0 148.5 -47.5t58.5 -120.5q0 -35 -16.5 -65.5t-40 -51.5t-47.5 -38t-40.5 -33t-16.5 -29q0 -19 14 -29.5t54 -26.5l15 -6q44 -18 67 -29.5t46.5 -29.5t33 -41t9.5 -56q0 -68 -52 -105.5t-140 -37.5 q-90 0 -158 33v109q81 -44 156 -44q33 0 56.5 12.5t23.5 37.5q0 23 -19.5 36t-74.5 34q-75 28 -108 55.5t-33 82.5q0 27 16 51.5t38.5 43t45 36t38.5 38.5t16 43q0 34 -25 54t-67 20q-61 0 -98 -38t-37 -101v-710z" />
<glyph horiz-adv-x="336" d="M195 763l99 -201h-101l-151 201h153z" />
<glyph horiz-adv-x="509" d="M42 562l75 185h136l-108 -185h-103zM221 562l103 185h143l-142 -185h-104z" />
<glyph horiz-adv-x="283" d="M80 500h122v-500h-122v500zM89 594q-19 19 -19 50t19.5 50t51.5 19t51.5 -19t19.5 -50t-19.5 -49.5t-51.5 -18.5t-52 18z" />
<glyph horiz-adv-x="283" d="M80 500h122v-720h-122v720zM89 594q-19 19 -19 50t19.5 50t51.5 19t51.5 -19t19.5 -50t-19.5 -49.5t-51.5 -18.5t-52 18z" />
<glyph horiz-adv-x="283" d="M80 500h122v-720h-122v720zM-20 562l103 171h117l103 -171h-106l-55 99l-57 -99h-105z" />
<glyph horiz-adv-x="566" d="M546 500l-195 -245l195 -255h-142l-185 255l185 245h142zM80 720h122v-720h-122v720z" />
<glyph horiz-adv-x="540" d="M546 500l-144 -186l-53 -62q189 -398 499 -398q72 0 152 22v-107q-67 -28 -162 -28q-200 0 -349 129.5t-270 384.5l185 245h142zM80 720h122v-720h-122v720z" />
<glyph horiz-adv-x="571" d="M540 500l-187 -220l87 -138q18 -28 33 -38.5t38 -10.5q29 0 47 8v-100q-28 -14 -76 -14q-53 0 -83.5 24t-69.5 89l-66 112l-63 -75v-137h-120v720h122v-442l192 222h146z" />
<glyph horiz-adv-x="569" d="M543 500l-175 -206q49 -103 95 -176t107 -136.5t137.5 -95.5t168.5 -32q70 0 146 22v-107q-67 -28 -162 -28q-368 0 -582 488l-78 -92v-137h-120v720h121v-447l197 227h145z" />
<glyph horiz-adv-x="565" d="M546 500l-195 -245l195 -255h-142l-185 255l185 245h142zM80 720h122v-720h-122v720zM362 -56l-72 -177h-95l40 177h127z" />
<glyph horiz-adv-x="571" d="M540 500l-187 -220l87 -138q18 -28 33 -38.5t38 -10.5q29 0 47 8v-100q-28 -14 -76 -14q-53 0 -83.5 24t-69.5 89l-66 112l-63 -75v-137h-120v720h122v-442l192 222h146zM366 -56l-71 -177h-96l41 177h126z" />
<glyph horiz-adv-x="556" d="M543 500l-175 -206q49 -103 95 -176t107 -136.5t137.5 -95.5t168.5 -32q70 0 146 22v-107q-67 -28 -162 -28q-368 0 -582 488l-78 -92v-137h-120v720h121v-447l197 227h145zM333 -56l-71 -177h-96l41 177h126z" />
<glyph horiz-adv-x="280" d="M79 720h122v-720h-122v720z" />
<glyph horiz-adv-x="280" d="M79 720h122v-720h-122v720zM85 766l89 171h155l-136 -171h-108z" />
<glyph horiz-adv-x="410" d="M79 720h122v-720h-122v720zM288 420v294h113v-294h-113z" />
<glyph horiz-adv-x="280" d="M79 720h122v-720h-122v720zM204 -56l-71 -177h-96l40 177h127z" />
<glyph horiz-adv-x="403" d="M79 720h122v-720h-122v720zM289 303q-19 19 -19 50t19.5 50t51.5 19t51.5 -19t19.5 -50t-19.5 -49.5t-51.5 -18.5t-52 18z" />
<glyph horiz-adv-x="299" d="M89 720h122v-264l80 53v-85l-80 -53v-371h-122v292l-81 -53v85l81 53v343z" />
<glyph horiz-adv-x="412" d="M42 608v93h328v-93h-328z" />
<glyph horiz-adv-x="846" d="M62 720h164v-311h81v-73h-250v73h84v238h-79v73zM513 291v78q45 28 107 28q68 0 110 -36.5t42 -95.5q0 -89 -138 -190h157v-75h-280v65q55 42 83 64.5t57.5 56.5t31.5 60q3 22 -6 39q-17 35 -70 35q-50 0 -94 -29zM114 0l513 720h78l-513 -720h-78z" />
<glyph horiz-adv-x="804" d="M62 720h164v-311h81v-73h-250v73h84v238h-79v73zM697 0h-77v73h-180v58l130 261h86l-125 -250h94v103h72v-103h53v-70h-53v-72zM114 0l513 720h78l-513 -720h-78z" />
<glyph horiz-adv-x="312" d="M42 655q0 45 32.5 72.5t81.5 27.5q48 0 80.5 -27.5t32.5 -72.5q0 -46 -32.5 -73.5t-80.5 -27.5q-49 0 -81.5 27.5t-32.5 73.5zM115 655q0 -18 11.5 -29.5t29.5 -11.5t29.5 11.5t11.5 29.5q0 17 -11.5 28t-29.5 11t-29.5 -11t-11.5 -28z" />
<glyph horiz-adv-x="309" d="M44 640q0 44 31 70t79 26q49 0 80 -26t31 -70q0 -45 -31 -71t-80 -26q-48 0 -79 26t-31 71zM116 640q0 -17 10 -27t28 -10t28.5 10t10.5 27q0 15 -10.5 25t-28.5 10t-28 -10t-10 -25z" />
<glyph horiz-adv-x="306" d="M42 640q0 44 31.5 70t79.5 26q49 0 80 -26t31 -70q0 -45 -31 -71t-80 -26q-48 0 -79.5 26t-31.5 71zM115 640q0 -17 10 -27t28 -10t28 10t10 27q0 15 -10 25t-28 10t-28 -10t-10 -25z" />
<glyph horiz-adv-x="505" d="M186 0h-128l282 613h-331v107h458v-97z" />
<glyph horiz-adv-x="354" d="M15 500h98v170h121v-170h108v-97h-108v-403h-122v403h-97v97z" />
<glyph horiz-adv-x="354" d="M15 500h98v170h121v-170h108v-97h-108v-100h102v-81h-102v-222h-122v222h-91v81h91v100h-97v97z" />
<glyph horiz-adv-x="410" d="M292 558v288h112v-288h-112zM15 500h98v170h121v-170h108v-97h-108v-403h-122v403h-97v97z" />
<glyph horiz-adv-x="354" d="M15 500h98v170h121v-170h108v-97h-108v-403h-122v403h-97v97zM237 -56l-71 -177h-96l41 177h126z" />
<glyph horiz-adv-x="819" d="M225 616q0 43 -71 43q-44 0 -91 -20v72q51 22 102 22q66 0 105 -30.5t39 -79.5q0 -29 -19.5 -52t-51.5 -36q77 -26 77 -96q0 -52 -41.5 -83.5t-108.5 -31.5q-62 0 -108 23v72q51 -21 103 -21q32 0 50.5 13.5t18.5 35.5q0 25 -24 40.5t-69 15.5h-21v63h24q38 0 62 14 t24 36zM703 0h-78v73h-180v58l130 261h87l-125 -250h93v102h73v-102h53v-71h-53v-71zM118 0l513 720h78l-513 -720h-78z" />
<glyph horiz-adv-x="417" d="M134 720q28 0 78 -18t74 -18q55 0 89 41v-97q-11 -15 -36 -27t-54 -12t-79.5 18t-74.5 18q-52 0 -89 -40v96q11 16 36.5 27.5t55.5 11.5z" />
<glyph horiz-adv-x="533" d="M40 571v118q63 44 168 44q117 0 187 -66t70 -172q0 -41 -17.5 -85.5t-41 -79.5t-66 -79.5t-72 -71t-78.5 -69.5h304v-110h-468v101q21 19 60.5 54.5t55.5 50t46.5 42.5t43 41.5t33 36.5t28.5 37.5t19 34t15.5 37t5.5 36.5q4 40 -9 74q-29 72 -130 72q-89 0 -154 -46z" />
<glyph horiz-adv-x="327" d="M22 625v80q44 29 107 29q68 0 110 -36.5t42 -95.5q0 -87 -134 -187h153v-78h-281v68q42 31 64.5 48.5t52 44.5t43 49.5t13.5 42.5q0 30 -21.5 47t-54.5 17q-48 0 -94 -29z" />
<glyph horiz-adv-x="598" d="M531 500v-271q0 -116 -60.5 -179t-171.5 -63t-172 63t-61 179v271h122v-240q0 -84 26 -123.5t85 -39.5t84.5 39.5t25.5 123.5v240h122z" />
<glyph horiz-adv-x="598" d="M531 500v-271q0 -116 -60.5 -179t-171.5 -63t-172 63t-61 179v271h122v-240q0 -84 26 -123.5t85 -39.5t84.5 39.5t25.5 123.5v240h122zM229 562l89 171h156l-136 -171h-109z" />
<glyph horiz-adv-x="598" d="M531 500v-271q0 -116 -60.5 -179t-171.5 -63t-172 63t-61 179v271h122v-240q0 -84 26 -123.5t85 -39.5t84.5 39.5t25.5 123.5v240h122zM352 725h90q2 -72 -35.5 -113.5t-108.5 -41.5t-109 41.5t-36 113.5h90q0 -33 14.5 -51.5t40.5 -18.5q25 0 39.5 18.5t14.5 51.5z" />
<glyph horiz-adv-x="598" d="M531 500v-271q0 -116 -60.5 -179t-171.5 -63t-172 63t-61 179v271h122v-240q0 -84 26 -123.5t85 -39.5t84.5 39.5t25.5 123.5v240h122zM138 562l103 171h117l103 -171h-106l-55 99l-57 -99h-105z" />
<glyph horiz-adv-x="598" d="M531 500v-271q0 -116 -60.5 -179t-171.5 -63t-172 63t-61 179v271h122v-240q0 -84 26 -123.5t85 -39.5t84.5 39.5t25.5 123.5v240h122zM126 644q0 32 19 50.5t51 18.5t51.5 -19t19.5 -50t-19.5 -49.5t-51.5 -18.5t-51 18.5t-19 49.5zM352 594q-19 19 -19 50t19 50t51 19 t51.5 -19t19.5 -50t-19.5 -49.5t-51.5 -18.5t-51 18z" />
<glyph horiz-adv-x="598" d="M531 500v-271q0 -116 -60.5 -179t-171.5 -63t-172 63t-61 179v271h122v-240q0 -84 26 -123.5t85 -39.5t84.5 39.5t25.5 123.5v240h122zM277 733l89 -171h-107l-137 171h155z" />
<glyph horiz-adv-x="616" d="M531 500v-271q0 -116 -60.5 -179t-171.5 -63t-172 63t-61 179v271h122v-240q0 -84 26 -123.5t85 -39.5t84.5 39.5t25.5 123.5v240h122zM150 562l75 171h136l-108 -171h-103zM329 562l103 171h143l-142 -171h-104z" />
<glyph horiz-adv-x="598" d="M531 500v-271q0 -116 -60.5 -179t-171.5 -63t-172 63t-61 179v271h122v-240q0 -84 26 -123.5t85 -39.5t84.5 39.5t25.5 123.5v240h122zM142 599v91h315v-91h-315z" />
<glyph horiz-adv-x="354" d="M15 500h98v170h121v-170h108v-97h-108v-403h-35l-20 -52q37 -2 67 -25t30 -63q0 -46 -35.5 -69.5t-91.5 -23.5q-48 0 -64 8v73q14 -7 44 -7q20 0 36.5 9t16.5 26q0 22 -25.5 30t-59.5 4l38 90h-23v403h-97v97z" />
<glyph horiz-adv-x="598" d="M531 500v-271q0 -90 -37 -148.5t-106 -80.5q-86 -55 -86 -112q0 -44 47 -44q25 0 49 10v-76q-31 -11 -65 -11q-54 0 -89.5 25t-35.5 74q0 65 87 121q-109 2 -169 64.5t-60 177.5v271h122v-240q0 -84 26 -123.5t85 -39.5t84.5 39.5t25.5 123.5v240h122z" />
<glyph horiz-adv-x="598" d="M531 500v-271q0 -116 -60.5 -179t-171.5 -63t-172 63t-61 179v271h122v-240q0 -84 26 -123.5t85 -39.5t84.5 39.5t25.5 123.5v240h122zM185 644q0 46 32 72.5t81 26.5q50 0 81.5 -26.5t31.5 -72.5q0 -45 -31.5 -72t-81.5 -27q-49 0 -81 27t-32 72zM268 672 q-11 -11 -11 -28t11 -27.5t30 -10.5t30 10.5t11 27.5t-11 28t-30 11t-30 -11z" />
<glyph horiz-adv-x="598" d="M531 500v-271q0 -116 -60.5 -179t-171.5 -63t-172 63t-61 179v271h122v-240q0 -84 26 -123.5t85 -39.5t84.5 39.5t25.5 123.5v240h122zM226 711q28 0 77.5 -17.5t72.5 -17.5q52 0 89 40v-94q-11 -15 -36 -27t-55 -12q-28 0 -77.5 18t-73.5 18q-51 0 -88 -41v95 q11 15 36 26.5t55 11.5z" />
<glyph horiz-adv-x="512" d="M394 500h126l-204 -509h-120l-204 509h126l62 -166q4 -10 76 -208q7 19 33.5 93t42.5 115z" />
<glyph horiz-adv-x="798" d="M675 500h125l-177 -509h-120q-83 262 -104 339q-21 -77 -104 -339h-120l-177 509h126l51 -161q34 -108 64 -216q56 194 111 377h98q11 -40 53.5 -179.5t57.5 -197.5q1 4 25.5 88.5t38.5 127.5z" />
<glyph horiz-adv-x="798" d="M675 500h125l-177 -509h-120q-83 262 -104 339q-21 -77 -104 -339h-120l-177 509h126l51 -161q34 -108 64 -216q56 194 111 377h98q11 -40 53.5 -179.5t57.5 -197.5q1 4 25.5 88.5t38.5 127.5zM344 562l89 171h155l-136 -171h-108z" />
<glyph horiz-adv-x="798" d="M235 562l104 171h116l103 -171h-105l-56 99l-56 -99h-106zM675 500h125l-177 -509h-120q-83 262 -104 339q-21 -77 -104 -339h-120l-177 509h126l51 -161q34 -108 64 -216q56 194 111 377h98q11 -40 53.5 -179.5t57.5 -197.5q1 4 25.5 88.5t38.5 127.5z" />
<glyph horiz-adv-x="798" d="M243 594q-19 19 -19 50t19.5 50t51.5 19t51 -19t19 -50t-19 -49.5t-51 -18.5t-52 18zM450 594q-19 19 -19 50t19 50t51 19t51.5 -19t19.5 -50t-19.5 -49.5t-51.5 -18.5t-51 18zM675 500h125l-177 -509h-120q-83 262 -104 339q-21 -77 -104 -339h-120l-177 509h126 l51 -161q34 -108 64 -216q56 194 111 377h98q11 -40 53.5 -179.5t57.5 -197.5q1 4 25.5 88.5t38.5 127.5z" />
<glyph horiz-adv-x="798" d="M359 733l89 -171h-107l-138 171h156zM675 500h125l-177 -509h-120q-83 262 -104 339q-21 -77 -104 -339h-120l-177 509h126l51 -161q34 -108 64 -216q56 194 111 377h98q11 -40 53.5 -179.5t57.5 -197.5q1 4 25.5 88.5t38.5 127.5z" />
<glyph horiz-adv-x="527" d="M509 500l-144 -205l-35 -48q55 -92 103 -156t108 -121.5t129.5 -86.5t148.5 -29q89 0 144 20v-110q-59 -23 -148 -23q-90 0 -170 29t-148.5 87t-125.5 128.5t-118 167.5l-104 -153h-136l168 238l-161 262h137l99 -177l113 177h140z" />
<glyph horiz-adv-x="533" d="M247 -220h-123l85 217l-211 503h133l61 -171q61 -165 75 -208q11 28 37 103.5t37 104.5l61 171h133z" />
<glyph horiz-adv-x="522" d="M400 500h129l-207 -471v-249h-122v249l-208 471h129l73 -176q26 -63 66 -174q9 21 33 84.5t35 89.5z" />
<glyph horiz-adv-x="533" d="M247 -220h-123l85 217l-211 503h133l61 -171q61 -165 75 -208q11 28 37 103.5t37 104.5l61 171h133zM206 562l89 171h156l-136 -171h-109z" />
<glyph horiz-adv-x="533" d="M247 -220h-123l85 217l-211 503h133l61 -171q61 -165 75 -208q11 28 37 103.5t37 104.5l61 171h133zM105 562l104 171h117l102 -171h-105l-56 99l-56 -99h-106z" />
<glyph horiz-adv-x="533" d="M247 -220h-123l85 217l-211 503h133l61 -171q61 -165 75 -208q11 28 37 103.5t37 104.5l61 171h133zM111 594q-19 19 -19 50t19.5 50t51.5 19t51.5 -19t19.5 -50t-19.5 -49.5t-51.5 -18.5t-52 18zM319 594q-19 19 -19 50t19 50t51 19t51.5 -19t19.5 -50t-19.5 -49.5 t-51.5 -18.5t-51 18z" />
<glyph horiz-adv-x="533" d="M247 -220h-123l85 217l-211 503h133l61 -171q61 -165 75 -208q11 28 37 103.5t37 104.5l61 171h133zM237 733l89 -171h-107l-138 171h156z" />
<glyph horiz-adv-x="461" d="M439 100v-100h-399v92l249 308h-241v100h373v-92l-249 -308h267z" />
<glyph horiz-adv-x="472" d="M135 -4h-116l261 406h-234v98h412l-230 -358q36 -7 69 -39q135 -124 245 -186.5t232 -62.5q124 0 207 45v-112q-74 -46 -203 -46q-143 0 -268.5 65t-263.5 199q-49 47 -76 45z" />
<glyph horiz-adv-x="470" d="M135 -4h-117l281 406h-253v98h382v-92l-194 -266q37 -9 70 -39q136 -126 242 -187.5t228 -61.5q124 0 207 45v-112q-74 -46 -203 -46q-142 0 -265 64.5t-262 199.5q-49 47 -77 45z" />
<glyph horiz-adv-x="464" d="M439 100v-100h-399v92l249 308h-241v100h373v-92l-249 -308h267zM166 562l89 171h156l-137 -171h-108z" />
<glyph horiz-adv-x="475" d="M135 -4h-116l261 406h-234v98h412l-230 -358q36 -7 69 -39q135 -124 245 -186.5t232 -62.5q124 0 207 45v-112q-74 -46 -203 -46q-143 0 -268.5 65t-263.5 199q-49 47 -76 45zM184 562l89 171h156l-136 -171h-109z" />
<glyph horiz-adv-x="475" d="M135 -4h-117l281 406h-253v98h382v-92l-194 -266q37 -9 70 -39q136 -126 242 -187.5t228 -61.5q124 0 207 45v-112q-74 -46 -203 -46q-142 0 -265 64.5t-262 199.5q-49 47 -77 45zM179 562l89 171h156l-137 -171h-108z" />
<glyph horiz-adv-x="461" d="M395 733l-103 -171h-117l-103 171h105l56 -99l56 99h106zM439 100v-100h-399v92l249 308h-241v100h373v-92l-249 -308h267z" />
<glyph horiz-adv-x="475" d="M135 -4h-116l261 406h-234v98h412l-230 -358q36 -7 69 -39q135 -124 245 -186.5t232 -62.5q124 0 207 45v-112q-74 -46 -203 -46q-143 0 -268.5 65t-263.5 199q-49 47 -76 45zM407 733l-103 -171h-116l-104 171h106l56 -99l56 99h105z" />
<glyph horiz-adv-x="475" d="M135 -4h-117l281 406h-253v98h382v-92l-194 -266q37 -9 70 -39q136 -126 242 -187.5t228 -61.5q124 0 207 45v-112q-74 -46 -203 -46q-142 0 -265 64.5t-262 199.5q-49 47 -77 45zM398 733l-103 -171h-116l-104 171h106l56 -99l56 99h105z" />
<glyph horiz-adv-x="461" d="M161 644q0 32 19 50.5t51 18.5t51.5 -19t19.5 -50t-19.5 -49.5t-51.5 -18.5t-51 18.5t-19 49.5zM439 100v-100h-399v92l249 308h-241v100h373v-92l-249 -308h267z" />
<glyph horiz-adv-x="475" d="M135 -4h-116l261 406h-234v98h412l-230 -358q36 -7 69 -39q135 -124 245 -186.5t232 -62.5q124 0 207 45v-112q-74 -46 -203 -46q-143 0 -268.5 65t-263.5 199q-49 47 -76 45zM193 594q-19 19 -19 50t19.5 50t51.5 19t51 -19t19 -50t-19 -49.5t-51 -18.5t-52 18z" />
<glyph horiz-adv-x="475" d="M135 -4h-117l281 406h-253v98h382v-92l-194 -266q37 -9 70 -39q136 -126 242 -187.5t228 -61.5q124 0 207 45v-112q-74 -46 -203 -46q-142 0 -265 64.5t-262 199.5q-49 47 -77 45zM182 594q-19 19 -19 50t19.5 50t51.5 19t51.5 -19t19.5 -50t-19.5 -49.5t-51.5 -18.5 t-52 18z" />
<glyph horiz-adv-x="657" d="M54 360q0 161 78 267t205 106q73 0 134 -39l61 112h80l-87 -158q95 -106 95 -288q0 -161 -77.5 -267t-205.5 -106q-83 0 -147 47l-65 -120h-80l93 170q-84 106 -84 276zM494 360q0 101 -33 169l-213 -389q37 -37 89 -37q73 0 115 70.5t42 186.5zM181 360q0 -87 25 -151 l208 381q-35 27 -77 27q-72 0 -114 -70.5t-42 -186.5z" />
</font>
</defs>
</svg>
